<?xml version="1.0" encoding="utf-8"?>
<!-- Generator: Adobe Illustrator 25.2.3, SVG Export Plug-In . SVG Version: 6.00 Build 0)  -->
<svg version="1.1" id="Calque_1" xmlns="http://www.w3.org/2000/svg" xmlns:xlink="http://www.w3.org/1999/xlink" x="0px" y="0px"
	 viewBox="0 0 500 500" style="enable-background:new 0 0 500 500;" xml:space="preserve">
<style type="text/css">
	.st0{fill:#DCEFFC;}
	.st1{fill:#36BBED;}
	.st2{fill:#DDEFFC;}
	.st3{fill:#CA457C;}
	.st4{fill:#EB5A9A;}
	.st5{fill:none;stroke:#FFFFFF;stroke-width:4.4156;stroke-linecap:round;stroke-linejoin:round;stroke-miterlimit:10;}
	.st6{opacity:0.4;fill:#A8C4E5;}
	.st7{fill:#243F93;}
	.st8{fill:#2E4C9B;}
	.st9{fill:#37356C;}
	.st10{fill:#F5A884;}
	.st11{fill:#F8C0B0;}
	.st12{fill:#0397CD;}
	.st13{fill:#FFFFFF;}
	.st14{fill:#E2EBF5;}
	.st15{fill:#3D56A2;}
	.st16{fill:#4665AD;}
	.st17{fill:#FFFFFF;stroke:#B6DCF6;stroke-width:1.0504;stroke-miterlimit:10;}
	.st18{opacity:0.51;fill:#FFFFFF;}
	.st19{fill:#B6DCF6;}
</style>
<ellipse class="st0" cx="360.9" cy="475.7" rx="13.3" ry="6"/>
<polygon class="st0" points="432.1,141.3 254.5,19 170.2,320.9 347.7,443.1 "/>
<polygon class="st1" points="405.1,148.4 227.5,26.2 143.2,328.1 320.8,450.3 "/>
<g>
	<path class="st2" d="M243.3,435.7c-17.4-10.5-46-10.9-63.8-1.1c-17.8,9.9-18.1,26.4-0.6,36.8c17.4,10.5,45.7,10.9,63.8,1.3
		C262.6,462.1,260.7,446.1,243.3,435.7z"/>
	<path class="st3" d="M228.9,433.4c-16.6-9.9-43.7-10.4-60.6-1c-16.9,9.4-17.1,25-0.6,35c16.6,9.9,43.4,10.4,60.6,1.2
		C247.2,458.4,245.4,443.3,228.9,433.4z"/>
	<path class="st4" d="M228.3,423.1c-16.6-9.9-43.7-10.4-60.6-1c-16.9,9.4-17.1,25-0.6,35c16.6,9.9,43.4,10.4,60.6,1.2
		C246.6,448.1,244.9,433,228.3,423.1z"/>
	<polyline class="st5" points="187.3,429.9 182.4,446.8 222.2,437.8 	"/>
</g>
<g>
	<path class="st6" d="M105.2,421.8c-16,9.2-42.1,9.2-58.2-0.1c-16.1-9.3-16.2-24.3-0.2-33.6c16-9.2,42.1-9.2,58.2,0.1
		C121.1,397.5,121.2,412.6,105.2,421.8z"/>
	<path class="st7" d="M65.3,386.2l-17.6,3.6l-2.4,6.1c-0.6,4.4-0.5,6.7,2.4,9c2.4,1.9,7.4,0.4,10-0.8l11.3-6.8
		c8.4-4.6,7.8-8,6.8-10.9l0,0C74.6,383.4,70.7,384.1,65.3,386.2z"/>
	<path class="st7" d="M102.7,407.9l-17-5.8l-5.1,4.1c-2.7,3.5-3.8,5.5-2.5,9c1.1,2.9,6.2,4.1,9.1,4.4l13.2-0.2
		c9.6,0.2,10.7-3.1,11.4-5.9l0,0C112.2,410.1,108.5,408.8,102.7,407.9z"/>
	<g>
		<g>
			<g>
				<path class="st8" d="M72.9,300.2c6.5,19.2,7.1,39.7,6.5,59.8c-0.5,14.9-2.8,30-2.4,45c0.2,9.8,15.5,9.8,15.3,0
					c-0.4-15.4,2.1-30.8,2.5-46.2c0.6-20.9-0.3-42.7-7.1-62.6C84.4,286.9,69.7,290.9,72.9,300.2L72.9,300.2z"/>
			</g>
		</g>
	</g>
	<path class="st8" d="M42.2,283c3.4,12.4,5,25.3,6.2,38.1c0.7,7.6,1.6,14.8,0.8,22.3c-1.6,15.2-4.4,30.7-4.3,46
		c0.1,9.8,15.3,9.8,15.3,0c-0.1-15.5,2.8-31.2,4.4-46.7c0.8-7.8-0.3-15.4-1-23.1c-1.4-13.6-3-27.4-6.6-40.7
		C54.3,269.5,39.6,273.5,42.2,283L42.2,283z"/>
	<path class="st9" d="M98.9,165.6c0,2.9-2.4,5.3-5.3,5.3s-5.3-2.4-5.3-5.3c0-2.9,2.4-5.3,5.3-5.3S98.9,162.6,98.9,165.6z"/>
	<path class="st8" d="M102.5,163.2c0,4.9-4,8.9-8.9,8.9s-8.9-4-8.9-8.9c0-4.9,4-8.9,8.9-8.9S102.5,158.3,102.5,163.2z"/>
	<path class="st8" d="M94.7,154.4c0,2.9-2.4,5.3-5.3,5.3c-2.9,0-5.3-2.4-5.3-5.3c0-2.9,2.4-5.3,5.3-5.3
		C92.3,149.1,94.7,151.4,94.7,154.4z"/>
	<g>
		<g>
			<path class="st10" d="M53.3,221c2.5,5.1,6.3,9.1,11.9,10.7c6.7,1.9,14.3,1.1,21.1,0.7c6.3-0.4,12.5-0.9,18.8-1.3
				c3-0.2,3-4.8,0-4.7c-9.5,0.5-19.1,1.6-28.7,1.7c-1.6,0-3.2,0-4.9-0.1c-0.7,0-1.3-0.1-2-0.2c0.6,0.1-0.4-0.1-0.6-0.1
				c-0.4-0.1-0.8-0.1-1.1-0.2c-0.6-0.1-1.2-0.3-1.8-0.5c-0.3-0.1-0.6-0.2-0.8-0.3c-0.2-0.1-0.9-0.4-0.4-0.1c-0.5-0.2-1-0.5-1.5-0.8
				c-0.2-0.1-0.5-0.3-0.7-0.4c-0.1-0.1-1-0.7-0.5-0.3c-0.5-0.4-0.9-0.8-1.4-1.3c-0.2-0.3-0.5-0.5-0.7-0.8c-0.1-0.1-0.2-0.2-0.2-0.3
				c-0.4-0.5,0,0.1-0.2-0.2c-0.9-1.3-1.7-2.6-2.4-4C56,215.9,51.9,218.3,53.3,221L53.3,221z"/>
		</g>
	</g>
	<path class="st8" d="M55.5,307L55.5,307c1.3,1.5-4.4-5.8-2.7-4.8c3.6,2.2,23.8,15.9,28,16c5.1,0.1,2.1-4.8,5.9-8.2
		c3.6-3.2,4.4-8.4,4.8-13.2c0.1-1.3,0.2-2.7-0.4-3.9c-0.6-1.3-1.8-2.3-2.9-3.1c-9-6.8-26.6-23.6-39.1-18.2
		C34.6,277.7,49.1,299.8,55.5,307z"/>
	<path class="st1" d="M45,199.5c-2.7,3.4-2.3,5.5-2.2,10.2c0.1,4.6,3.2,8.5,7.6,9.8l45,12.6c0,0,2.6-17.3-6.3-22.5
		c-4.8-2.8-12.2-7.3-18-10.8C62.5,193.6,51.1,191.6,45,199.5z"/>
	<path class="st11" d="M65.5,199l3.8-17l10.3,7l-3.1,15.4C76.2,206.9,64.7,204.7,65.5,199z"/>
	<path class="st11" d="M76.8,157.4c0,0-9-8.8-12,8.5c-2.1,12,3.5,23.7,12.6,30c5.7,4,13.8,1.5,15.1-4.5c2.9-8.5,4.3-16.7,2.6-24.2
		c1.6-7.2-3.8-5.4-12.3-7.3L76.8,157.4z"/>
	<path class="st8" d="M65.4,190c0,0-11.1-6.4-7.2-22.8c4.2-17.8,20.5-13.5,29.9-12.8c4.1,0.3,7.1,0.2,10.6,4.6
		c3.2,4-1.6,11-7.1,10.6c-2.2-0.2-3.7,5.8-4.5,7.8c-1.4,3.4-4.4,4.1-5.8,7.4c-1.3,3.1-4.9,8.1-8.1,7.9C67.6,192.3,65.4,190,65.4,190
		z"/>
	<path class="st1" d="M42.6,280.8c-2.9-1.1-2.2-50.3,0.4-77.5l50.6,24.1c-0.3,23.1-3.2,41.4-0.4,69.6L42.6,280.8z"/>
	<path class="st1" d="M76.3,302c-12.5-4.6-24.4-9.6-31.4-18.1c-3.4-2-3-5.5,1-7.8l0,0c4-2.3,10-2.5,13.5-0.6l31.4,18.1
		c3.4,2,3,5.5-1,7.8l0,0C85.8,303.8,79.8,304,76.3,302z"/>
	<path class="st12" d="M93.6,227.4l-8.3-4c-0.3,22.5-3.1,40.7-0.4,68.3l-0.1,0c0.1,1.6-1.1,3.2-3.3,4.5v0c-4,2.3-10,2.5-13.5,0.6
		c-6-2.2-11.9-4.5-17.1-7.2c6.9,5.3,16,9,25.4,12.4c3.4,2,9.5,1.7,13.5-0.6l0,0c2.2-1.3,3.3-3,3.3-4.5l0.1,0
		C90.4,268.8,93.4,250.6,93.6,227.4z"/>
	<path class="st13" d="M83.2,206.1c-11.6-1.7-19.5,5.6-22.2-11.2h0c1.7-1.1,3.9-0.5,5,1.1c2,2.9,6.2,4.7,10.9,4.1
		c1.4-0.2,2.8,0.5,3.5,1.7L83.2,206.1z"/>
	<path class="st11" d="M84.5,180.9c0.1,2.6-1.3,4.8-3.2,4.9c-0.2,0-0.4,0-0.6-0.1c-1.6-0.3-2.9-2.2-3-4.6c-0.1-2.6,1.3-4.8,3.2-4.9
		C82.8,176.3,84.4,178.3,84.5,180.9z"/>
	<polygon class="st14" points="169.1,316.2 193.2,328.5 186.8,303.8 	"/>
	<path class="st4" d="M186.1,324.9l7.1,3.6L191,320C191.3,324.2,189.6,325.7,186.1,324.9z"/>
	<path class="st15" d="M185,313.8c-3.7,5.1-10.9,6.2-16,2.4c-5.1-3.7-6.2-10.9-2.4-16c3.7-5.1,10.9-6.2,16-2.4
		C187.7,301.6,188.8,308.7,185,313.8z"/>
	<polygon class="st15" points="181.9,297.4 104.8,214.3 90.7,232.2 156,302.1 	"/>
	<path class="st7" d="M176.9,309c-0.8-0.6-1.5-1.2-2-2l0,0l-68.2-74.2l-11.6,4l72.1,77.2l0,0c0.6,0.7,1.3,1.4,2,2
		c4.3,3.2,10.2,2.9,14.2-0.5L176.9,309z"/>
	<path class="st11" d="M120.3,235.2l-1.3,4.2c-0.8,2.6,1,5.8,4,7.1l0,0c3,1.2,6.1,0.1,6.9-2.6l1.3-4.2c0.8-2.6-1-5.8-4-7.1l0,0
		C124.2,231.4,121.1,232.6,120.3,235.2z"/>
	<g>
		<g>
			<path class="st11" d="M87.5,221.3c0.5,6.4,1.1,13,3.2,19.1c2,5.9,5,11.5,7.7,17.1c2,4,4.4,8.6,9,10c4,1.3,7.8-1.2,10.3-4.2
				c5.1-6,7.8-14,10.1-21.4c0.9-2.9-3.6-4.1-4.5-1.2c-1.9,6.2-4.2,12.6-7.9,18c-0.6,0.8-1.1,1.4-1.9,2.3c-0.3,0.3-0.7,0.6-1,0.9
				c-0.1,0.1-0.5,0.4-0.1,0.1c-0.2,0.1-0.4,0.3-0.6,0.4c-0.3,0.2-0.6,0.3-0.9,0.5c0.5-0.3-0.4,0.1-0.6,0.2c-0.1,0-0.7,0.1-0.3,0.1
				c0.4,0-0.1,0-0.2,0c-0.2,0-0.3,0-0.5,0c-0.4,0,0.5,0.1,0,0c-0.3-0.1-0.6-0.2-0.9-0.3c0.6,0.2-0.4-0.2-0.6-0.3
				c-0.1-0.1-0.3-0.2-0.4-0.3c-0.4-0.2,0.2,0.2-0.1-0.1c-0.3-0.3-0.7-0.6-1-0.9c-0.8-0.8-0.9-1-1.6-2.1c-0.6-1-1.2-2-1.7-3.1
				c-2.6-5.2-5.4-10.4-7.3-15.8c-2.2-6.1-2.9-12.6-3.4-19c-0.1-1.3-1-2.3-2.3-2.3C88.6,218.9,87.4,220,87.5,221.3L87.5,221.3z"/>
		</g>
	</g>
	<path class="st1" d="M80.4,221.2c2.8,23.9,10.4,39.2,20.8,46.9c5.5,3,10.6-5.6,8.5-10.9c-10.4-9.3-14.1-23.7-15.1-40.2
		c-1.4-3.3-5.2-5.2-8.9-4.2l0,0C81.9,213.8,79.6,217.5,80.4,221.2z"/>
	<path class="st14" d="M108.6,218.2L108.6,218.2l-4.6-4.9l-2.4,3.2c-2.6,0.6-5.2,2.2-7.2,4.7c-2.2,2.7-3.3,5.9-3.2,8.7l-1.1,1.4
		l2.3,2.8l0.1,0c0.3,0.5,0.8,0.9,1.2,1.3c3.6,2.9,9.8,1.4,13.8-3.5C111.2,227.3,111.6,221.3,108.6,218.2z"/>
	<path class="st3" d="M104.7,214c-0.1-0.1-0.2-0.1-0.3-0.2l0,0l-5-4.7l-3.8,4.6c-1.7,0.8-3.4,2.1-4.8,3.9c-1.4,1.7-2.3,3.5-2.8,5.3
		l-3.2,3.9l4.6,4.4c0.2,0.2,0.4,0.4,0.7,0.6c3.6,2.9,9.8,1.4,13.8-3.5C108,223.3,108.3,216.9,104.7,214z"/>
	<path class="st4" d="M99.1,223.4c-4,4.9-10.1,6.5-13.8,3.5c-3.6-2.9-3.4-9.3,0.6-14.2c4-4.9,10.1-6.5,13.8-3.5
		C103.3,212.2,103.1,218.5,99.1,223.4z"/>
	<path class="st13" d="M111.8,257.4c-0.2,3.8-1.5,11.9-8.2,13c-1,0.2-2-0.2-2.8-0.8l-1.6-1.3c-1.6-1.4-1.6-3.8-0.1-5.2
		c1.9-1.8,4.4-4.5,6.1-7.4c1.1-1.9,3.5-2.4,5.2-1.2l0,0C111.3,255.1,111.8,256.2,111.8,257.4z"/>
</g>
<path class="st4" d="M375.5,184.3L314.9,141c-1.9-1.4-2.8-4.6-2-7.2l0,0c0.8-2.6,2.9-3.6,4.8-2.3l60.6,43.3c1.9,1.4,2.8,4.6,2,7.2
	l0,0C379.6,184.6,377.4,185.6,375.5,184.3z"/>
<polygon class="st13" points="372.4,208.3 305,160.2 307.8,150.7 375.3,198.9 "/>
<polygon class="st13" points="366.8,226.6 299.4,178.4 302.2,169 369.6,217.2 "/>
<polygon class="st13" points="362.2,244.9 294.7,196.7 297.6,187.3 365,235.5 "/>
<polygon class="st13" points="317.5,234.8 289.7,214.9 292.5,205.5 320.3,225.3 "/>
<polygon class="st13" points="286.3,147 219,100.8 221.7,91.9 288.9,138.1 "/>
<polygon class="st13" points="280.2,167.4 212.9,121.3 215.5,112.4 282.8,158.5 "/>
<polygon class="st13" points="269.7,204 202.4,157.9 205.1,149 272.4,195.1 "/>
<polygon class="st13" points="234.9,159.7 207.1,140.6 209.8,131.7 237.5,150.7 "/>
<polygon class="st13" points="219.6,225.8 191.9,206.7 194.6,197.8 222.3,216.8 "/>
<polygon class="st13" points="213.8,251.5 186,232.4 188.7,223.5 216.4,242.5 "/>
<polygon class="st13" points="207.9,277.2 180.2,258.1 182.8,249.2 210.6,268.2 "/>
<polygon class="st13" points="225.2,196.3 197.4,177.3 200.1,168.3 227.8,187.3 "/>
<polygon class="st13" points="273.1,184.1 245.4,165.1 248.1,156.2 275.8,175.2 "/>
<polygon class="st13" points="289.7,127.7 262,108.7 264.7,99.7 292.4,118.8 "/>
<g>
	<g>
		<path class="st8" d="M271.5,67.5c-0.5,1.1-1,2.3-1.4,3.6l-1.3,4.2l-0.3,0.1l-1.3-0.9l-0.2-0.4c0.6-2.2,0.9-3.5,0.9-3.9
			c0-0.8-0.3-1.5-1-2.1c-0.3-0.2-1.5-1.1-3.8-2.7l-2.7-1.9c-0.2,0.6-0.9,2.9-2.2,6.9l-4.3,14.2c-1.2,4-1.9,6.6-2.1,7.9
			c-0.1,0.5,0.1,1,0.4,1.4c0.2,0.2,1,0.8,2.3,1.9l0.1,0.4l-0.5,1.7l-0.3,0.1c-1.3-1-3.4-2.5-6.3-4.5c-2.9-2-5-3.4-6.3-4.2l-0.1-0.4
			l0.5-1.7l0.3-0.1c1.4,0.9,2.2,1.3,2.5,1.4c0.4,0.1,0.8,0,1-0.4c0.5-1.1,1.4-3.6,2.6-7.6l4.3-14.2c1.3-4.1,1.9-6.5,2.1-7l-2.9-2
			c-2.4-1.7-3.9-2.6-4.4-2.7c-0.2-0.1-0.4,0-0.6,0.1c-0.2,0.2-0.5,0.6-0.8,1.4c-0.4,0.8-0.7,1.7-1,2.6l-0.3,0.1l-1.3-0.9l-0.1-0.4
			l1.3-4.3c0.4-1.2,0.7-2.5,0.9-3.9l0.3-0.1c0.8,0.7,3.7,2.8,8.7,6.3l8.3,5.7c4.7,3.2,7.6,5.2,8.9,5.8L271.5,67.5z"/>
	</g>
</g>
<g>
	<path class="st13" d="M322.7,356.3l-85.2-61.1c-2-1.5-2.9-3.9-2.2-6.3l16.9-59.8c0.8-2.9,4.9-4.3,7.3-2.6l84.7,60.8
		c2,1.4,2.8,3.8,2.1,6.2L329.2,354C328.5,356.6,324.8,357.9,322.7,356.3z"/>
	<path class="st8" d="M246.5,301.7l17.5-11.5c4.1-2.7,9.6-1.3,10.5,2.6l5.6,26.4l20.1-16.7c4.2-3.5,10.7-2.1,11.2,2.5l6,47.5
		L246.5,301.7z"/>
	<path class="st4" d="M281.8,265.4c-1.2,4.2-4.7,5.8-7.8,3.6c-3.1-2.2-4.7-7.5-3.5-11.7c1.2-4.2,4.7-5.8,7.8-3.6
		C281.4,255.9,283,261.2,281.8,265.4z"/>
</g>
<g>
	<g>
		<path class="st7" d="M158.8,144.7c-3.8,2.6-10.2,3.1-14.3,1.1c-4.2-2-4.5-5.7-0.7-8.3c3.8-2.6,10.2-3.1,14.3-1.1
			C162.2,138.4,162.6,142.1,158.8,144.7z"/>
		<polygon class="st15" points="165.1,133.8 136.4,136.6 133.8,106 162.7,103.6 		"/>
		<path class="st15" d="M161.4,140.3c-5.4,3.7-14.5,4.5-20.4,1.7c-5.9-2.8-6.3-8.1-1-11.8c5.4-3.7,14.5-4.5,20.4-1.7
			C166.4,131.3,166.8,136.6,161.4,140.3z"/>
		<path class="st7" d="M163.4,111.9c-0.2-0.1-0.4-0.2-0.7-0.3c-8-3.8-20.5-2.8-27.7,2.2c-0.2,0.1-0.3,0.2-0.4,0.3l1.3,15.4
			c0.2,0.1,0.4,0.2,0.6,0.3c8,3.8,20.5,2.8,27.7-2.2c0.2-0.1,0.3-0.2,0.5-0.4L163.4,111.9z"/>
		<path class="st15" d="M163.8,124.6c-7.3,5-19.7,6-27.7,2.2c-8-3.8-8.7-11-1.4-16s19.7-6,27.7-2.2S171.1,119.6,163.8,124.6z"/>
		
			<rect x="129.3" y="110.8" transform="matrix(0.9967 -8.162542e-02 8.162542e-02 0.9967 -8.8463 12.5452)" class="st16" width="39.3" height="7.3"/>
		<path class="st17" d="M163.3,117.7c-7.3,5-19.7,6-27.7,2.2c-8-3.8-8.7-11-1.4-16c7.3-5,19.7-6,27.7-2.2S170.5,112.7,163.3,117.7z"
			/>
		<g>
			<path class="st17" d="M180.5,66.3c-1.5-17.9-18.4-31.1-37.9-29.5c-19.5,1.6-34.1,17.4-32.6,35.3c0.8,9.8,6.3,18.2,14.2,23.5
				c4.5,4.2,6.8,9.5,8,13.5c1.1,3.8,4.2,6.7,8,7.7c6.2,1.6,12.1,1.4,17.5-1.2c3.4-1.6,5.8-4.9,6.2-8.7c0.5-3.8,1.8-9.3,5.6-14.3
				c0.1-0.1,0.2-0.3,0.3-0.4C177.2,85.6,181.4,76.3,180.5,66.3z"/>
		</g>
		<path class="st18" d="M137.4,62c0.5,6.4-3.3,13.2-8.6,15.3c-5.3,2.1-10-1.4-10.5-7.7c-0.5-6.4,3.3-13.2,8.6-15.3
			C132.2,52.2,136.9,55.7,137.4,62z"/>
	</g>
</g>
<g>
	<g>
		<path class="st7" d="M433.9,384.4L433.9,384.4c-1.9-1-2.9-3.3-2.1-5.2l30.6-75.3c1.8-4.5,2.1-9.7,0.4-14.6
			c-1.9-5.3-5.8-9.6-10.7-12.1l-24.7-12.3l2.8-6.9l24,11.9c6.5,3.3,12.1,8.7,15,15.5c3.1,7.1,3.3,14.7,0.6,21.4l-30.9,75.9
			C438.1,384.6,435.9,385.4,433.9,384.4z"/>
	</g>
	<path class="st15" d="M440.6,244c0,0.1-0.1,0.2-0.1,0.2l0,0l-9.3,22.6c-2.6,6.3-0.5,13.6,4.6,16.3c5.2,2.7,11.4-0.2,14-6.6
		l9.3-22.6l0,0c0-0.1,0.1-0.1,0.1-0.2c2.6-6.3,0.5-13.6-4.6-16.3C449.4,234.8,443.2,237.7,440.6,244z"/>
	<path class="st15" d="M461.8,263.7l-77.7,184.8c-3.2,8.1-8.8,12.5-17.1,8.4l0,0c-8.2-4.1-9.5-10.8-6.3-18.8l70.8-187.7
		C436.6,235.6,466.9,248.9,461.8,263.7z"/>
	<path class="st7" d="M441.3,244.3c6.4,3.6,11.2,9.9,8.9,16.5l-77.7,184.8c-2.3,5.7-5.7,9.6-10.5,9.9c0.8,0.6,1.6,1.1,2.6,1.6
		c8.3,4.1,13.9-0.3,17.1-8.4L459.5,264C462.8,254.4,451.3,245.4,441.3,244.3z"/>
	<path class="st15" d="M360.1,439.8c0,0-2.5,9.3-2,25.8c0.1,3.1,7.7,6.3,9.8,4.3c5.4-5.1,10.5-10.1,13.5-16.2
		C385.9,444.3,360.1,439.8,360.1,439.8z"/>
	<path class="st4" d="M358,465.7l0.7,4.2l0.8,4.7c0.1,0.9,1.2,1.3,1.8,0.8l3.4-2.7l3.7-3.1C364.2,466.7,360.7,465.8,358,465.7z"/>
</g>
<g>
	<path class="st19" d="M157.3,109c-4.3,3.2-11.8,4.1-16.8,2c-5-2.1-5.5-6.5-1.2-9.7c4.3-3.2,11.8-4.1,16.8-2
		C161,101.5,161.6,105.8,157.3,109z"/>
	<g>
		<path class="st19" d="M150.6,107.5c-0.5,0.1-0.9-0.3-1-0.8l-2.8-23.3c-0.1,0-0.2,0-0.3,0c-1.1-0.1-2.3-0.2-3.4-0.5l2.7,22.2
			c0.1,0.5-0.3,0.9-0.8,1c-0.5,0.1-0.9-0.3-1-0.8l-2.8-23c-1.9-0.7-3.8-1.6-5.4-2.8c-2.7-2.1-4.7-4.6-5.2-7.1
			c-0.6-2.4,0.2-4.4,2.1-5.5c1.8-1.1,3.5-1.2,5-0.5c3.4,1.6,4.3,7.4,4.3,7.7c0,0,0,0,0,0l0.8,6.9c1.2,0.3,2.4,0.5,3.7,0.6
			c0,0,0.1,0,0.1,0c-0.2-6.3,0.7-10.2,2.8-11.8c1.1-0.9,2.5-1.1,4.1-0.6c3.3,1,5.2,3.7,4.7,6.9c-0.5,3.2-3.4,6.6-8.9,7.3
			c-0.3,0-0.5,0.1-0.8,0.1l2.8,23.1C151.5,107,151.1,107.5,150.6,107.5z M148.5,81.6c5-0.3,7.7-3.2,8.1-5.8c0.3-2.3-1-4.2-3.5-4.9
			c-1-0.3-1.9-0.2-2.5,0.3C149.5,72.1,148.3,74.6,148.5,81.6z M135.5,67.9c-0.6,0.1-1.2,0.3-1.8,0.7c-1.5,0.9-1.5,2.4-1.3,3.5
			c0.7,2.8,3.8,6.5,8.6,8.3l-0.7-6c-0.2-1.4-1.2-5.3-3.3-6.3C136.5,67.9,136,67.8,135.5,67.9z"/>
	</g>
</g>
</svg>
