<?xml version="1.0" encoding="utf-8"?>
<!-- Generator: Adobe Illustrator 25.2.3, SVG Export Plug-In . SVG Version: 6.00 Build 0)  -->
<svg version="1.1" id="Calque_1" xmlns="http://www.w3.org/2000/svg" xmlns:xlink="http://www.w3.org/1999/xlink" x="0px" y="0px"
	 viewBox="0 0 500 430" style="enable-background:new 0 0 500 430;" xml:space="preserve">
<style type="text/css">
	.st0{fill:#D5ECFB;}
	.st1{fill:#E93E8F;}
	.st2{fill:#5793CE;}
	.st3{fill:#3A6DAC;}
	.st4{fill:url(#SVGID_1_);}
	.st5{fill:#EAEAEA;}
	.st6{fill:#1A3E78;}
	.st7{fill:#FDD762;}
	.st8{fill:#F8C0B0;}
	.st9{fill:#FFFFFF;}
	.st10{fill:#EB9D93;}
	.st11{fill:#CA2586;}
	.st12{fill:#284F8A;}
	.st13{fill:#E8A304;}
	.st14{fill:#F9BF32;}
	.st15{fill:#EEEDED;}
	.st16{fill:#E9F5FE;}
	.st17{fill:#B0DEED;}
	.st18{opacity:0.4;fill:#FFFFFF;enable-background:new    ;}
	.st19{fill:#B2D3EA;}
	.st20{fill:#6C4B99;}
	.st21{fill:#D88A2C;}
	.st22{fill:#584193;}
	.st23{fill:#523F92;}
	.st24{fill:#644696;}
	.st25{fill:#8865A9;}
	.st26{fill:#BB9FCC;}
</style>
<path class="st0" d="M382.4,381l-0.7-1.2l20.5-12c2.5-1.5,5.7-1.5,8.2,0l17,10.1l-0.7,1.2l-17-10.1c-2.1-1.2-4.7-1.3-6.8,0
	L382.4,381z"/>
<path class="st0" d="M443.5,377.7l-0.7-1.2l53.3-31.5c0.5-0.3,0.8-0.8,0.8-1.4c0-0.6-0.3-1.1-0.8-1.4l-17.7-10.9l0.7-1.2l17.7,10.9
	c0.9,0.5,1.5,1.5,1.5,2.6s-0.6,2-1.5,2.6L443.5,377.7z"/>
<path class="st0" d="M385.5,334.4l-0.7-1.2l51.9-29.9c0.5-0.3,0.9-0.9,0.9-1.5s-0.3-1.2-0.9-1.5l-27.5-15.8
	c-3.8-2.2-6.1-6.2-6.1-10.5v-90.4c0-3.8,1.9-7.2,4.9-9.3l4.1-2.8l0.8,1.1l-4.1,2.8c-2.7,1.9-4.3,4.9-4.3,8.2V274
	c0,3.9,2.1,7.4,5.4,9.3l27.5,15.8c1,0.6,1.5,1.6,1.5,2.7s-0.6,2.1-1.5,2.7L385.5,334.4z"/>
<path class="st1" d="M382,362.9c-0.5,0-0.9-0.2-1.2-0.7c-0.4-0.7-0.2-1.5,0.5-1.9l20.5-12c2.8-1.6,6.2-1.6,8.9,0l17,10.1
	c0.6,0.4,0.9,1.2,0.5,1.9c-0.4,0.6-1.2,0.9-1.9,0.5l-17-10.1c-1.9-1.1-4.2-1.1-6.1,0l-20.5,12C382.5,362.9,382.3,362.9,382,362.9z"
	/>
<path class="st0" d="M352.9,427.3l-114.2-66c-4-2.3-3.5-6.3,1.1-9l0,0c4.6-2.6,11.5-2.9,15.5-0.6l114.2,66c4,2.3,3.5,6.3-1.1,9l0,0
	C363.8,429.3,356.9,429.5,352.9,427.3z"/>
<g>
	<g>
		<g>
			<path class="st0" d="M462.2,252.8c-0.9-0.5-1.8-0.9-2.7-1.3h0l-5.2-2.3l0.4,0.9c-4-0.8-8.3-0.8-12.3-0.1l0.2-1l-6.2,2.7h0
				c-0.8,0.3-1.6,0.7-2.3,1.1c-7.7,4.5-7.7,11.7,0,16.2s20.3,4.5,28,0C469.9,264.5,469.9,257.2,462.2,252.8z"/>
			<path class="st2" d="M454.7,257c-3.6,2.1-9.5,2.1-13.1,0s-3.6-5.5,0-7.6c3.6-2.1,9.5-2.1,13.1,0
				C458.4,251.5,458.4,254.9,454.7,257z"/>
		</g>
		<g>
			<path class="st2" d="M448.2,254.6L448.2,254.6c-1.7,0-3.2-1.4-3.2-3.2v-39.9h6.3v39.9C451.3,253.2,449.9,254.6,448.2,254.6z"/>
			<path class="st2" d="M450.4,213c-1.3,0.7-3.3,0.7-4.6,0s-1.3-1.9,0-2.6c1.3-0.7,3.3-0.7,4.6,0C451.6,211.1,451.6,212.3,450.4,213
				z"/>
		</g>
		<path class="st0" d="M448.2,212.9L448.2,212.9c-1.4,0-2.6-1.1-2.6-2.6v-37.5h5.1v37.5C450.7,211.8,449.6,212.9,448.2,212.9z"/>
		<g>
			<path class="st3" d="M485,192.5V191l2.1-0.3l2.3-1.7c0.4-0.3,1.1-0.3,1.5-0.1l1.7,1l1.7-0.2v1.5h0c0,0.2-0.1,0.3-0.4,0.4
				l-5.4,2.4c-0.4,0.2-1,0.2-1.4-0.1l-1.8-1C485.1,192.8,485,192.6,485,192.5L485,192.5z"/>
			<path class="st2" d="M485.2,190.6l4.2-3.1c0.4-0.3,1.1-0.3,1.5-0.1l3.1,1.8c0.4,0.2,0.4,0.7-0.1,0.9l-5.4,2.4
				c-0.4,0.2-1,0.2-1.4-0.1l-1.8-1C484.9,191.2,484.9,190.9,485.2,190.6z"/>
			<g>
				<path class="st0" d="M478.1,197.7c0.6,0,1.2-0.1,1.7-0.4l6.5-3.8c0.4-0.2,0.5-0.7,0.3-1c-0.2-0.4-0.7-0.5-1-0.3l-6.5,3.8
					c-0.5,0.3-1.4,0.3-1.9,0l-10.8-6.2c-0.4-0.2-0.8-0.1-1,0.3c-0.2,0.4-0.1,0.8,0.3,1l10.8,6.2C477,197.6,477.6,197.7,478.1,197.7z
					"/>
			</g>
		</g>
		<g>
			
				<radialGradient id="SVGID_1_" cx="346.7948" cy="255.7911" r="64.3485" gradientTransform="matrix(1 0 0 -1 0 432)" gradientUnits="userSpaceOnUse">
				<stop  offset="0" style="stop-color:#39BDE5"/>
				<stop  offset="6.890000e-02" style="stop-color:#34B8E2"/>
				<stop  offset="0.1842" style="stop-color:#27A8D9"/>
				<stop  offset="0.3305" style="stop-color:#168FC9"/>
				<stop  offset="0.4457" style="stop-color:#1378B9"/>
				<stop  offset="1" style="stop-color:#242F5D"/>
			</radialGradient>
			<polygon class="st4" points="415.7,184 426.2,177.9 420.3,175.3 415.3,178.8 			"/>
			<path class="st2" d="M482.7,175c-0.6-0.3-1.2-0.7-1.8-1.1l-22.2-16.3c-4-2.9-8.1-3.7-11.3-2.1c-0.1,0-0.1,0.1-0.2,0.1l0,0
				l-30.7,17.8l2.8,0.9l10.7,4.9l14.6,10.4l11.5,6.1l0.5,0.1c2.7-2.3,5.7-4.2,7.4-7.5c2.9-5,10.8-6.4,15.5-10.5
				c0.5,0.3,0.9,0.6,1.4,0.8C481.8,177.7,482.1,176.4,482.7,175z"/>
			<path class="st3" d="M492.4,167.6c-0.5,0-0.9,0.2-1.3,0.4l0,0l-30,17.4l1.1,4.5l1.1-0.5c-1.7,2.7-4.4,4.4-6.7,6.5l3.4,0.7
				l29.4-17.1c0.1-0.1,0.3-0.1,0.4-0.2c0.4-0.2,0.8-0.4,1.1-0.7l0,0h0c2.2-1.7,3.5-4.7,3.5-8.5v-0.4
				C494.5,168.6,493.6,167.6,492.4,167.6z"/>
			<g>
				<path class="st5" d="M451.3,154.7c1.9,0.1,3.9,0.7,5.9,1.9C455.2,155.4,453.2,154.8,451.3,154.7z"/>
				<path class="st2" d="M465,186.9v-0.4c0-1.1-0.9-2.1-2.1-2.1c-1.1,0-2.1,0.9-2.1,2.1v0.4c0,2.8-0.9,4.8-2.4,5.6
					c-1.7,0.9-4.4,0.2-7-1.7l-22.2-16.3c-3.4-2.5-6.9-3.4-9.9-2.6l18.4-10.6l-21.3,12.3l2.8,0.9l10.7,4.9l14.6,10.4l11.5,6.1
					l0.5,0.1c2.7-2.3,5.7-4.2,7.4-7.5c0.3-0.5,0.6-0.9,1-1.4C465,186.9,465,186.9,465,186.9z"/>
			</g>
			<g>
				<path class="st0" d="M456.1,197.6c-2.4,0-5.1-1-7.7-2.9l-22.2-16.3c-2.7-2-5.3-2.6-7-1.7c-1.5,0.8-2.4,2.8-2.4,5.6
					c0,1.1-0.9,2.1-2.1,2.1s-2.1-0.9-2.1-2.1c0-4.4,1.7-7.7,4.7-9.2c3.2-1.6,7.3-0.9,11.3,2.1l22.2,16.3c2.7,2,5.3,2.6,7,1.7
					c1.5-0.8,2.4-2.8,2.4-5.6v-0.4c0-1.1,0.9-2.1,2.1-2.1c1.1,0,2.1,0.9,2.1,2.1v0.4c0,4.4-1.7,7.7-4.7,9.2
					C458.6,197.3,457.4,197.6,456.1,197.6z"/>
			</g>
		</g>
	</g>
	<g>
		<g>
			<path class="st6" d="M438.6,234c0,0-4.2-2.1-6.8,1s-6.2,10.6-6.4,15.6s4,4.7,6.4,3.5c2.4-1.2,9.5-11.5,9.9-13.5
				c0.4-2-0.5-4.7-1.2-5.3C440,234.8,438.6,234,438.6,234z"/>
			<path class="st2" d="M439.5,233l0.2,4.3c0,0.9-0.4,1.8-1.2,2.2c-0.7,0.4-1.8,0.7-3.2,0.5c-3.1-0.5-3.4-1.4-3.7-5.7
				C431.4,230,439.5,233,439.5,233z"/>
			<g>
				<path class="st6" d="M423.3,225.6c0,0-4.2-2.1-6.8,1s-6.2,10.6-6.4,15.6s4,4.7,6.4,3.5c2.4-1.2,9.5-11.5,9.9-13.5
					c0.4-2-0.5-4.7-1.2-5.3C424.7,226.5,423.3,225.6,423.3,225.6z"/>
				<path class="st2" d="M424.2,224.6l0.2,4.3c0,0.9-0.4,1.8-1.2,2.2c-0.7,0.4-1.8,0.7-3.2,0.5c-3.1-0.5-3.4-1.4-3.7-5.7
					C416.1,221.6,424.2,224.6,424.2,224.6z"/>
				<path class="st7" d="M461.5,145.1c-1.2-20.2-21.8,3-21.8,3l-14.1,13.8L413,175.8c-2.5,2.7-3.6,6.4-3.1,10l5.1,39.1
					c0.2,1.9,1.9,3.4,3.9,3.3c0.5,0,1.2-0.1,1.9-0.2c4.6-0.7,4.2-5.1,4.2-5.1l-0.9-36.5l26.6-16.1
					C450.6,170.4,462.8,165.2,461.5,145.1z"/>
			</g>
			<path class="st7" d="M476.9,152.7c-1.2-20.1-21.8,3-21.8,3L441,169.5l-12.7,13.9c-2.5,2.7-3.6,6.4-3.1,10l5.1,39.1
				c0.2,1.9,1.9,3.4,3.9,3.3c0.5,0,1.2-0.1,1.9-0.2c4.6-0.7,4.2-5.1,4.2-5.1l-0.9-36.5L466,178C466,178.1,478.1,172.9,476.9,152.7z"
				/>
			<path class="st1" d="M464.7,88.1c15.6,6.5,15.3,15.7,15.3,15.7s-3.1,33.8-2,56.4c0.4,9.4-50.2,10.2-42.6-15
				c8.9-29.7,5.6-53.7,9.7-57.4C449.2,84.1,460.6,86.4,464.7,88.1z"/>
			
				<ellipse transform="matrix(0.2494 -0.9684 0.9684 0.2494 255.4545 518.0208)" class="st8" cx="461.9" cy="94.2" rx="5.9" ry="8"/>
			<path class="st9" d="M463.1,101.1c-0.9,0-1.9-0.1-2.9-0.4c-2.2-0.6-4.2-1.8-5.5-3.3c-1.4-1.7-1.8-3.5-1.4-5.3
				c0.9-3.6,5.5-5.5,10.2-4.3c2.2,0.6,4.2,1.8,5.5,3.3c1.4,1.7,1.8,3.5,1.4,5.3c-0.5,1.8-1.8,3.2-3.8,4
				C465.6,100.8,464.4,101.1,463.1,101.1z M460.7,88.9c-2.9,0-5.3,1.3-5.9,3.5c-0.3,1.3,0,2.7,1.1,4c1.1,1.3,2.8,2.3,4.7,2.8
				s3.9,0.4,5.5-0.2c1.5-0.6,2.5-1.7,2.9-3l0,0c0.3-1.3,0-2.7-1.1-4c-1.1-1.3-2.8-2.3-4.7-2.8C462.4,89,461.5,88.9,460.7,88.9z"/>
			<path class="st8" d="M458.4,87.4c0,0,0.1,0.6-0.1,5.6c-0.1,1.6,5.4,3,6.8,1.6c1.4-1.4,0.8-2.9,1.2-8.2
				C466.6,81.1,458.4,87.4,458.4,87.4z"/>
			<path class="st10" d="M466.2,86.4c0,0-1.3,4.9-8,6.8l0.1-4.5L466.2,86.4z"/>
			<path class="st8" d="M470.4,73.9c1.7,6.4-2.2,13-8.6,14.6c-6.4,1.7-13-2.2-14.6-8.6c-1.7-6.4,2.2-13,8.6-14.6
				C462.2,63.6,468.8,67.5,470.4,73.9z"/>
			<path class="st10" d="M461.6,77.3c0,0-6.6,2.8-11.2,2.9c-4.6,0-3.6-3.8-3.6-3.8l13.6-2L461.6,77.3z"/>
			<path class="st7" d="M449,78.1c0,0,5.8-2.4,10.8-1.4c1.2,0.2,2.3,0.9,3,1.8c0.2,0.3,0.6,0.6,0.9,0.7c0.9,0.2,2.4-3.5,4.1-3.6
				c1.7-0.1,2.9,1.2,1.5,3.4c-1.4,2.3-1,4.8-0.3,5.2c0.7,0.4,7.6-5,1.5-17.2s-21.8-5.6-24.2-3.2c0,0-2.6,2.2-4.6,0.2
				C441.7,64.2,439.4,81.6,449,78.1z"/>
			<path class="st8" d="M471.2,128.5v9.1c0,1.1-0.4,2.1-1.2,2.8l-18.8,17.1l2.1,3.3l24.8-18c1.2-0.8,1.9-2.1,2-3.6l1.7-15.9
				L471.2,128.5z"/>
			<path class="st1" d="M478.7,99.2c0,0,5.7,8.6,7.8,31.1c0,0-9.7,3.1-15.2,1.4C465.7,129.9,478.7,99.2,478.7,99.2z"/>
			<path class="st11" d="M470.2,110c0,0-2.2,11.9-2.4,17.5c0,1.5,0.9,2.9,2.4,3.5l0,0V110z"/>
		</g>
		<g>
			<path class="st6" d="M465.3,169.3l-4.1-0.6l-26.8-15.5c-0.9-0.5-2.4-0.4-3.4,0.1l-19,10.9l-2.5-0.3v2.5l0,0
				c0,0.3,0.2,0.6,0.6,0.9l30.4,17.5c0.9,0.5,2.4,0.4,3.4-0.1l20.7-11.9c0.6-0.3,0.8-0.7,0.8-1.1l0,0V169.3z"/>
			<path class="st3" d="M445.2,159.6l-1.9-1.1h-20.9l-10.3,5.9l-2.5-0.3v2.5l0,0c0,0.3,0.2,0.6,0.6,0.9l30.4,17.5
				c0.5,0.3,1.1,0.4,1.7,0.3L445.2,159.6z"/>
			<path class="st2" d="M410.7,164.2l-1.1-0.1v2.5l0,0c0,0.3,0.2,0.6,0.6,0.9l0.5,0.3V164.2z"/>
			<path class="st12" d="M440.8,185.1c0.8,0.3,2,0.2,2.9-0.2v-4.2h-2.9V185.1z"/>
			<path class="st9" d="M440.5,182.5L410.1,165c-0.9-0.5-0.8-1.4,0.2-1.9l20.7-11.9c1-0.6,2.5-0.6,3.4-0.1l30.4,17.5
				c0.9,0.5,0.8,1.4-0.2,1.9l-20.7,11.9C442.8,182.9,441.3,183,440.5,182.5z"/>
			<path class="st0" d="M440,179.8l-25.2-14.6c-0.7-0.4-0.6-1.1,0.2-1.6l11.1-6.2c0.8-0.5,2.1-0.5,2.8-0.1l25.2,14.6
				c0.7,0.4,0.6,1.1-0.2,1.6l-11.1,6.2C441.9,180.2,440.7,180.2,440,179.8z"/>
		</g>
		<path class="st8" d="M432.2,150.5l-0.3,2.1c-0.3,1.8-0.2,3.6,0.1,5.4l0.4,1.9c0.2,1,1,1.9,2.1,2l0,0c0.8,0.1,1.6-0.4,1.7-1.2
			l0.5-4.5c0,0,1.1,1.5,1.7,1.5c0.5,0-0.6-4.5-1.9-7C435.2,148.1,432.2,150.5,432.2,150.5z"/>
		<path class="st8" d="M442.5,117.2l-3.3,6.4c-0.8,1.5-1.2,3.2-1.3,4.9l-1.4,22.1l-4.3-0.1l-1.9-24.8c-0.1-0.8,0-1.5,0.1-2.3
			l2.2-12.6L442.5,117.2z"/>
		<g>
			<path class="st6" d="M439.5,184.2l-2.5-3.3l-26.8-15.5c-0.9-0.5-1.5-1.8-1.5-3l0-21.9l-1.5-2l1.5-0.8l0,0c0.3-0.2,0.6-0.2,1,0.1
				l30.3,17.6c0.9,0.5,1.5,1.8,1.5,3l0,23.9c0,0.6-0.2,1.1-0.6,1.3l0,0L439.5,184.2z"/>
			<path class="st3" d="M421,171.6l-1.9-1.1l-10.4-18.1l0-11.9l-1.5-2l1.5-0.8l0,0c0.3-0.2,0.6-0.2,1,0.1l30.3,17.6
				c0.5,0.3,0.9,0.8,1.1,1.3L421,171.6z"/>
			<path class="st2" d="M407.8,139.4l-0.7-0.9l1.5-0.8l0,0c0.3-0.2,0.6-0.2,1,0.1l0.5,0.3L407.8,139.4z"/>
			<path class="st12" d="M440.2,155.4c0.7,0.6,1.2,1.6,1.3,2.6l-3,1.7l-1.4-2.5L440.2,155.4z"/>
			<path class="st2" d="M438.5,156.1l-30.3-17.6c-0.9-0.5-1.5,0-1.6,1.2l0,23.9c0,1.1,0.7,2.5,1.5,3l30.3,17.6
				c0.9,0.5,1.5,0,1.6-1.2l0-23.9C440,157.9,439.3,156.6,438.5,156.1z"/>
		</g>
		<path class="st8" d="M453.4,160.7l-0.5,1c-0.6,1.2-1.4,2.1-2.5,2.8l-3,1.9c-0.9,0.6-2.1,0.6-3.1,0.1c0,0-0.1,0-0.1-0.1
			c-1-0.6-1-2-0.3-2.8l3.1-3.2c0,0-1.8,1.4-2.3,0.8c-0.4-0.4,1.7-2.4,3.3-2.4c1.6-0.1,3.1-1.3,3.1-1.3L453.4,160.7z"/>
		<path class="st1" d="M445.4,87.7c0,0-11.5,12.6-16.2,24.1c0,0,4,7.1,13.6,9.9C452.5,124.5,445.4,87.7,445.4,87.7z"/>
		<path class="st11" d="M440.6,120.9l1.9-18.1l-4.4,16.9C438.9,120.2,439.7,120.6,440.6,120.9z"/>
		<path class="st9" d="M454,85.2l-3.1-0.8c0,0,1.5,2.3,3.6,2.9s2.5-1.2,2.5-1.2L454,85.2z"/>
	</g>
</g>
<path class="st1" d="M373.6,77.9L250.5,6.8c-4-2.3-7.7-2.4-10.5-0.6l0,0l-15.4,8.9l10.4,1.9c0,0.5-0.1,1.1-0.1,1.6v290.3
	c0,11.5,7,24.9,15.6,29.9l121.4,70.1c-1.1,3.5-3.5,10.8-3.5,10.8l15.1-8.8l0,0c3.5-1.8,5.7-6.3,5.7-12.8V107.8
	C389.3,96.2,382.2,82.9,373.6,77.9z"/>
<g>
	<polygon class="st0" points="489.3,327.1 470.8,316.4 452.3,327.1 470.8,337.8 	"/>
	<polygon class="st13" points="470.8,327.9 470.8,315.8 492.9,303.1 492.9,315.1 	"/>
	<polygon class="st14" points="470.8,315.8 448.7,303.1 448.7,315.1 470.8,327.9 	"/>
	<polygon class="st7" points="492.9,303.1 470.8,290.3 448.7,303.1 470.8,315.8 	"/>
</g>
<path class="st9" d="M416.3,164.2c0,1.9-1.3,2.7-3,1.7c-1.6-0.9-3-3.2-3-5.1s1.3-2.7,3-1.7S416.3,162.3,416.3,164.2z"/>
<path class="st1" d="M385.1,325.9c-0.5,0-0.9-0.2-1.2-0.7c-0.4-0.7-0.1-1.5,0.5-1.9l51.9-29.9c0.5-0.3,0.5-0.7,0.5-0.9
	s0-0.6-0.5-0.9l-27.5-15.8c-4-2.3-6.4-6.5-6.4-11.1v-90.4c0-4,2-7.7,5.2-9.9l4.1-2.8c0.6-0.4,1.5-0.3,1.9,0.4
	c0.4,0.6,0.3,1.5-0.4,1.9l-4.1,2.8c-2.5,1.7-4,4.6-4,7.6v90.4c0,3.6,1.9,7,5.1,8.8l27.5,15.8c1.2,0.7,1.9,1.9,1.9,3.3
	c0,1.4-0.7,2.6-1.9,3.3l-51.9,29.9C385.6,325.8,385.4,325.9,385.1,325.9z"/>
<path class="st11" d="M234.9,308.9c0,11.5,7,24.9,15.6,29.9l121.4,70.1c-1.1,3.5-3.5,10.8-3.5,10.8l15.1-8.8l0,0
	c3.5-1.8,5.7-6.3,5.7-12.8V107.8c0-6-1.9-12.5-5-18.1l-149.4,86.3L234.9,308.9L234.9,308.9z"/>
<path class="st1" d="M358.1,418.9L235,347.8c-8.6-5-15.6-18.4-15.6-29.9V27.6c0-11.5,7-16.8,15.6-11.8l123.1,71.1
	c8.6,5,15.6,18.4,15.6,29.9v290.3C373.7,418.6,366.7,423.9,358.1,418.9z"/>
<polygon class="st11" points="239.7,106.7 230.2,100.2 226.4,87.9 222.7,95.9 219.3,94.3 219.3,101 220.4,102.7 219.3,107.6 
	219.3,112.2 226.4,111.2 234.6,121.8 232.5,109.7 "/>
<path class="st9" d="M355.8,409.3L237.5,341c-6.4-3.7-11.6-13.7-11.6-22.2V32.6c0-8.6,5.2-12.5,11.6-8.8l118.3,68.3
	c6.4,3.7,11.6,13.7,11.6,22.2v286.2C367.4,409.1,362.2,413,355.8,409.3z"/>
<path class="st15" d="M307.4,321.4l-58.1-33.5V146.8l27.3,15.8c19,11,30.7,31.2,30.7,53.2V321.4z"/>
<g>
	<path class="st0" d="M228.6,133.1L228.6,133.1c-5.9-3.5-14-3.1-23,2.1c-17.8,10.3-32.3,35.4-32.3,55.9V206l0,0l0,0l0,0l0.6,0.4
		l58.2,34.2l0.9-17.8l0.7-6.9l3.1-10.7l0.4-1.6l6.6-13.3l5.2-6.5l4.2-5l10.3-8.1l0.9-0.7l5.1-2.2l6.8-1.8h5.3l5.9,1L228.6,133.1z"/>
	<path class="st0" d="M236,270.3l1.9-1.1v-67.6c-1,1.3-1.4,3.1-1.9,4.8V270.3z"/>
	<polygon class="st0" points="294.8,304.1 236,270.3 236.6,206.3 238.9,199.9 245.7,188.1 253.7,178.6 261,172.8 268.8,168 
		283,166.4 290.6,170.7 294.8,177.1 296.1,187 295.6,293.9 	"/>
	<path class="st2" d="M228.6,133.1c-4.9-2.9-11.4-3.1-18.7,0l59.9,34.6l6.4-1.7h5.3l5.9,1L228.6,133.1L228.6,133.1z"/>
	<g>
		<path class="st16" d="M211.4,132.5c-1.9,0.7-3.8,1.6-5.7,2.7c-1.3,0.8-2.6,1.6-3.9,2.5l59.7,34.5l2-1.6l0.9-0.7l5.1-2.2l2-0.5
			L211.4,132.5z"/>
		<path class="st9" d="M253.7,178.3l8.1-6.4l-59.7-34.4c-2.7,1.9-5.3,4.1-7.8,6.6L253.7,178.3z"/>
		<path class="st2" d="M296.7,303.1l-1.9,1.1V188.8c0-19.4-13.6-27.2-30.4-17.6S234,204.6,234,223.9v15.6l-1.9,1.1V225
			c0-20.6,14.5-45.6,32.3-55.9c17.8-10.3,32.3-1.9,32.3,18.6L296.7,303.1L296.7,303.1z"/>
	</g>
</g>
<polygon class="st17" points="191.2,180.1 187.9,193.7 189.5,215.5 185.3,213 179.9,201.2 184.6,186.1 "/>
<g>
	<path class="st18" d="M287.3,266.7c-0.4,0-0.7-0.1-1.1-0.3l-42.7-24.7c-1.3-0.7-2.2-2.6-2.2-4.2v-33.6c0-1,0.4-1.8,1-2.1
		c0.6-0.3,1.2-0.3,1.9,0.1l42.7,24.7c1.3,0.7,2.2,2.6,2.2,4.2v33.6c0,1-0.4,1.8-1,2.1C287.9,266.6,287.6,266.7,287.3,266.7z
		 M243.1,202.9c-0.1,0-0.1,0-0.1,0c-0.1,0.1-0.3,0.4-0.3,0.9v33.6c0,1.2,0.7,2.6,1.6,3l42.7,24.7c0.1,0.1,0.4,0.2,0.6,0.1
		c0.1-0.1,0.3-0.4,0.3-0.9v-33.6c0-1.2-0.7-2.6-1.6-3L243.5,203C243.4,202.9,243.2,202.9,243.1,202.9z"/>
	<g>
		<path class="st19" d="M256.7,243.1l-0.3-0.2c-1.1-0.6-2-2.4-2-3.9v-16c0-1.5,0.9-2.2,2-1.5l0.3,0.2c1.1,0.6,2,2.4,2,3.9v16
			C258.8,243,257.9,243.7,256.7,243.1z"/>
		<path class="st19" d="M265.3,248l-0.3-0.2c-1.1-0.6-2-2.4-2-3.9v-9.4c0-1.5,0.9-2.2,2-1.5l0.3,0.2c1.1,0.6,2,2.4,2,3.9v9.4
			C267.4,248,266.5,248.7,265.3,248z"/>
		<path class="st3" d="M273.9,253l-0.3-0.2c-1.1-0.6-2-2.4-2-3.9v-22.3c0-1.5,0.9-2.2,2-1.5l0.3,0.2c1.1,0.6,2,2.4,2,3.9v22.3
			C276,252.9,275,253.6,273.9,253z"/>
	</g>
</g>
<g>
	<ellipse class="st0" cx="205.1" cy="404" rx="36.8" ry="21.2"/>
	<g>
		<path class="st6" d="M182.6,392.7c-2.6,1.1-4.2,4-4,7c0.1,1.5,0.3,2.8,0.6,3.4c0.8,1.7,3.5,4.1,7.8,2.4s13.7-10.6,14.1-16.4
			C201.7,378.3,189.3,389.8,182.6,392.7z"/>
		<path class="st6" d="M207.6,410.6c0,0-1,6.2-0.5,7.4c0.5,1.1,3.5,3.6,7.9,3.1c4.4-0.5,17-4.9,19.8-13.2c4.4-12.9-24.4,1-24.4,1
			L207.6,410.6z"/>
		<path class="st7" d="M219.9,310.9l1,97.4c-0.1,3.4-2.3,6.2-5.3,6.8c-0.4,0.1-0.8,0.1-1.2,0.1c-3,0.3-4.8-1-5.8-2.4
			c-0.8-1.1-1.2-2.5-1.3-3.9l-1.2-41.6l-6.2-37.2l-8.6,65.8c-0.1,1.8-1,3.4-2.4,4.3c-0.9,0.6-2.2,1.1-3.9,1.1
			c-2.5-0.1-4.2-1.4-5.2-2.6c-0.8-0.9-1.3-2.2-1.2-3.5l3.4-39.6l1.3-50.5L219.9,310.9z"/>
		<path class="st8" d="M207.3,223.7l-1.5,8.9c0,0-0.1,3,3.3,3.9s4.4-1.3,4.4-1.3l1.5-10L207.3,223.7z"/>
		<path class="st8" d="M226,218.9c-2.4,7.6-9.8,12-16.6,9.9c-6.8-2.2-10.3-10.1-7.9-17.7c2.4-7.6,9.8-12,16.6-9.9
			C224.8,203.4,228.4,211.3,226,218.9z"/>
		<path class="st20" d="M207.8,232.8c-0.2-0.1-14.3-9.2-19.6,0.3c-8.5,15.5-2.3,33.3-5.3,71.9c-0.5,6.5,8.7,10.4,13,12.9
			c3.9,2.2,8.2,3.6,12.6,3.6c4.4,0,12.9-3.9,12.6-9.6c-1.4-26.5,0.9-48.9,3.1-70.5C224.2,241.2,221.5,238.3,207.8,232.8z"/>
		<path class="st21" d="M199.9,330.1l-8.6,65.8c-0.1,1.8-1,3.4-2.4,4.3c-0.2,0.1-0.5,0.3-0.7,0.4c1.8-1.3,7-56.5,7.9-62.7
			C197.1,331.8,199.9,330.1,199.9,330.1z"/>
	</g>
	<polygon class="st8" points="253.5,240.8 265.3,217.4 261.6,215 249.4,232.9 	"/>
	<polygon class="st8" points="175.6,215.9 181.3,189.8 185.9,189.8 184.2,211.5 	"/>
	<path class="st20" d="M224.2,241.2c0,0,13.2,5.2,24.6-9.1c1-1.3,3.1-1.1,3.6,0.2c1,2.4,2.3,5.9,0.8,9.2
		c-6.9,14.7-30.3,14.2-35.9,22.5C211.6,272.3,224.2,241.2,224.2,241.2z"/>
	<path class="st20" d="M198.8,229.5c0,0-10.9,0.8-12.5-8.6c-0.8-4.9-1.1-7.8-1.1-9.4c0-1.1-1-2-2.1-1.9c-2.6,0.3-6.7,1.1-7.2,2.9
		c-0.8,2.6-2.4,15.4,8.4,35.1C191.4,260.5,198.8,229.5,198.8,229.5z"/>
	<path class="st8" d="M181.3,189.8l0.1-3c0-1.1,0.3-2.1,0.9-3l3-5l0.8-1c0.7-0.9,2-1.1,3-0.5l0.7,0.4c0.9,0.6,1.4,1.6,1.3,2.6
		l-1.6,4.2l2-0.4c0.4-0.1,0.8,0.2,0.8,0.6l0,0c0.1,0.3-0.1,0.6-0.4,0.8l-3.2,1.3l-2.9,4.1L181.3,189.8z"/>
	<path class="st8" d="M265.4,217.5l1.4-2.6c0.5-0.9,0.7-2,0.7-3l-0.2-5.8l-0.2-1.2c-0.2-1.2-1.2-2-2.4-1.9l-0.8,0
		c-1,0.1-2,0.7-2.4,1.6l-0.7,4.5l-1.5-1.3c-0.3-0.2-0.8-0.2-1,0.1l0,0c-0.2,0.3-0.2,0.6,0,0.9l2.2,2.7l0.6,5.7L265.4,217.5z"/>
	<path class="st22" d="M215.6,261.1c-1.1,5.2,5.8,44.7-1.9,59.2c3.9-1.6,7.6-4.6,7.4-8.5c-1-19-0.1-35.8,1.3-51.8
		c6.6-3.3,16.9-5.3,24.1-10.6C238.7,252.3,216.6,256.4,215.6,261.1z"/>
	<path class="st9" d="M202.7,230.3l2-2c0,0,3.2,3.3,5.8,3.9c0,0,3.1,0.9,4.6,1l1.3,3.5C216.3,236.6,206.1,235.8,202.7,230.3z"/>
	<path class="st6" d="M216.8,219.1c0.5,0,1-0.3,1.4-0.7c0.5-0.8,0.2-4.3,1.9-4.9c2.6-0.9,8.7,2.3,9.4-7c0.3-4.8-2-6.1-2-8.8
		c0,0,0.2,1.3-12.2,0.5c-12.4-0.8-16.5,10.2-16.8,15.5c-0.3,5.3,2.2,13.9,10.8,15.1c1.4,0.2,7.3-4.6,7.2-5.2
		c-0.1-0.6-2.4-0.6-2.1-2.4C214.4,219.7,215.4,219.1,216.8,219.1z"/>
</g>
<g>
	<g>
		<path class="st15" d="M280.6,106.7L243,85c-1.7-1-3-3.6-3-5.8v-28c0-2.2,1.4-3.2,3-2.3l37.6,21.7c1.7,1,3,3.6,3,5.8v28
			C283.6,106.7,282.3,107.7,280.6,106.7z"/>
		<path class="st22" d="M276.9,62.3l-37.6-21.7c-0.7-0.4-1.4-0.5-1.9-0.2v0l-3.6,2.1c0,0,1.6,0.6,2.6,0.9v27.4c0,2.2,1.4,4.8,3,5.8
			l35.9,20.8v3.2l3.7-2.1l0,0c0.6-0.4,1-1.2,1-2.4v-28C279.9,65.9,278.6,63.3,276.9,62.3z"/>
		<path class="st20" d="M273.2,100.5l-37.6-21.7c-1.7-1-3-3.6-3-5.8v-28c0-2.2,1.4-3.2,3-2.3l37.6,21.7c1.7,1,3,3.6,3,5.8v28
			C276.2,100.5,274.9,101.5,273.2,100.5z"/>
		<path class="st9" d="M273.2,64.5l-37.6-21.7c-0.9-0.5-1.8-0.4-2.3,0.2c0.4,0,0.9,0.1,1.3,0.3L272.2,65c1.7,1,3,3.6,3,5.8v28
			c0,1-0.3,1.7-0.7,2.1c1-0.1,1.7-1,1.7-2.6v-28C276.2,68,274.9,65.4,273.2,64.5z"/>
	</g>
	<g>
		<path class="st9" d="M248.2,69.2c0,1.6-1.1,2.3-2.5,1.5s-2.5-2.8-2.5-4.4c0-1.6,1.1-2.3,2.5-1.5C247.1,65.6,248.2,67.6,248.2,69.2
			z"/>
		<path class="st9" d="M255.9,73.6c0,1.6-1.1,2.3-2.5,1.5s-2.5-2.8-2.5-4.4c0-1.6,1.1-2.3,2.5-1.5C254.8,70,255.9,72,255.9,73.6z"/>
		<path class="st9" d="M263.6,78.1c0,1.6-1.1,2.3-2.5,1.5s-2.5-2.8-2.5-4.4c0-1.6,1.1-2.3,2.5-1.5C262.5,74.5,263.6,76.4,263.6,78.1
			z"/>
	</g>
</g>
<g>
	<g>
		<path class="st15" d="M355.5,254.3l-37.6-21.7c-1.7-1-3-3.6-3-5.8v-62.9c0-2.2,1.4-3.2,3-2.3l37.6,21.7c1.7,1,3,3.6,3,5.8V252
			C358.5,254.2,357.1,255.3,355.5,254.3z"/>
		<path class="st2" d="M351.7,175l-37.6-21.7c-0.7-0.4-1.4-0.4-1.9-0.2v0l-3.6,2.1c0,0,1.6,0.6,2.6,0.9v62.4c0,2.2,1.4,4.8,3,5.8
			l35.9,20.8v3.2l3.7-2.1l0,0c0.6-0.4,1-1.2,1-2.4v-62.9C354.8,178.5,353.4,175.9,351.7,175z"/>
		<path class="st0" d="M348,248.1l-37.6-21.7c-1.7-1-3-3.6-3-5.8v-62.9c0-2.2,1.4-3.2,3-2.3l37.6,21.7c1.7,1,3,3.6,3,5.8v62.9
			C351,248.1,349.7,249.1,348,248.1z"/>
		<path class="st9" d="M348,177.1l-37.6-21.7c-1-0.6-1.8-0.4-2.3,0.2c0.4,0,0.9,0.1,1.3,0.3l37.6,21.7c1.7,1,3,3.6,3,5.8v62.9
			c0,1-0.3,1.7-0.7,2.1c1-0.1,1.7-1,1.7-2.6v-62.9C351,180.7,349.7,178.1,348,177.1z"/>
	</g>
</g>
<g>
	<g>
		<path class="st15" d="M355.5,339.3l-37.6-21.7c-1.7-1-3-3.5-3-5.8v-62.9c0-2.2,1.4-3.2,3-2.3l37.6,21.7c1.7,1,3,3.5,3,5.8V337
			C358.5,339.3,357.1,340.3,355.5,339.3z"/>
		<path class="st11" d="M351.7,260l-37.6-21.7c-0.7-0.4-1.4-0.4-1.9-0.2v0l-3.6,2.1c0,0,1.6,0.6,2.6,0.9v62.4c0,2.2,1.4,4.8,3,5.8
			l35.9,20.8v3.2l3.7-2.1l0,0c0.6-0.4,1-1.2,1-2.4v-62.9C354.8,263.6,353.4,261,351.7,260z"/>
		<path class="st1" d="M348,333.1l-37.6-21.7c-1.7-1-3-3.5-3-5.8v-62.9c0-2.2,1.4-3.2,3-2.3l37.6,21.7c1.7,1,3,3.5,3,5.8v62.9
			C351,333.1,349.7,334.1,348,333.1z"/>
		<path class="st9" d="M348,262.1l-37.6-21.7c-1-0.6-1.8-0.4-2.3,0.2c0.4,0,0.9,0.1,1.3,0.3l37.6,21.7c1.7,1,3,3.5,3,5.8v62.9
			c0,1-0.3,1.7-0.7,2.1c1-0.1,1.7-1,1.7-2.6v-62.9C351,265.7,349.7,263.1,348,262.1z"/>
	</g>
</g>
<g>
	<g>
		<path class="st0" d="M103.1,366.7l33.1-18.6c1.5-0.8,4-0.7,5.7,0.3l21,12.4c1.7,1,1.8,2.5,0.4,3.3l-33.1,18.6
			c-1.5,0.8-4,0.7-5.7-0.3l-21-12.4C101.8,369,101.6,367.5,103.1,366.7z"/>
		<path class="st14" d="M129.7,373.3l37.8-21.3c0.8-0.4,1.1-1,1.1-1.6l0,0l0-4.2c0,0-1.3,1.1-2.1,1.7L143,334
			c-1.9-1.1-4.8-1.3-6.5-0.3l-36.2,20.4l-2.8-1.6l-0.1,4.2l0,0c0,0.7,0.5,1.5,1.6,2.1l24.1,14.2C125.1,374.1,128,374.3,129.7,373.3z
			"/>
		<path class="st7" d="M98.8,350.7l37.8-21.3c1.7-1,4.6-0.8,6.5,0.3l24.1,14.2c1.9,1.1,2.1,2.8,0.4,3.8L129.8,369
			c-1.7,1-4.6,0.8-6.5-0.3l-24.1-14.2C97.3,353.3,97.1,351.6,98.8,350.7z"/>
		<path class="st9" d="M129.8,369l37.8-21.3c1-0.5,1.3-1.3,1.1-2.1c-0.2,0.4-0.5,0.7-1,1l-37.8,21.3c-1.7,1-4.6,0.8-6.5-0.3
			l-24.1-14.2c-0.8-0.5-1.3-1.1-1.5-1.7c-0.4,0.9,0,2,1.4,2.8l24.1,14.2C125.2,369.8,128.1,370,129.8,369z"/>
	</g>
	<g>
		<path class="st9" d="M138.4,345.2c-1.4-0.8-1.4-2.1,0-2.9c1.4-0.8,3.7-0.8,5.1,0c1.4,0.8,1.4,2.1,0,2.9
			C142.1,346,139.8,346,138.4,345.2z"/>
		<path class="st9" d="M130.7,349.5c-1.4-0.8-1.4-2.1,0-2.9c1.4-0.8,3.7-0.8,5.1,0c1.4,0.8,1.4,2.1,0,2.9
			C134.4,350.4,132.1,350.4,130.7,349.5z"/>
		<path class="st9" d="M123,353.9c-1.4-0.8-1.4-2.1,0-2.9c1.4-0.8,3.7-0.8,5.1,0c1.4,0.8,1.4,2.1,0,2.9
			C126.6,354.7,124.4,354.7,123,353.9z"/>
	</g>
</g>
<g>
	<ellipse class="st0" cx="90" cy="294.3" rx="26.4" ry="15.3"/>
	<g>
		<path class="st23" d="M104.9,109.7c0,0-0.7,14-1.8,23.4s-23.8-7.2-23.8-7.2v-10.7L104.9,109.7z"/>
		<g>
			<path class="st6" d="M92.8,284.1c-0.3,0.9-6.2,8-12.1,9.8c-2.6,0.8-4.3,0.9-5.4,0.8c-1.1-0.1-1.8-1.3-1.4-2.4
				c1-2.9,3.9-8.8,11.3-12.4C95.1,274.9,92.8,284.1,92.8,284.1z"/>
			<path class="st6" d="M94.8,286.9c0,0-2.2,5.2-2.9,9.5c-0.4,2.6,1,6.1,2.2,8.4c0.7,1.4,2.6,1.7,3.8,0.7c1.9-1.7,4.4-4.8,4.8-9.1
				c0.7-7.3,0-8.6,0-8.6L94.8,286.9z"/>
			<path class="st7" d="M108.9,198.3c0,0,0.8,9.2,0,19.5c-0.8,10.2-3.5,58-4,69.5c0,0,0.3,3.5-6.5,2.7c-6.7-0.8-6.2-4.6-6.2-4.6
				s-9.5-0.1-9.8-5.7s-9.7-66.6-9.7-88.6L108.9,198.3z"/>
			<g>
				<path class="st8" d="M69.3,150.5l-4.6,7.2l-15.9,19.3c0,0,0.5,1.8,2.5,2.2c1.5,0.4,15-12.4,20.7-18c1.5-1.5,1.8-3.9,0.6-5.6
					L69.3,150.5z"/>
				<path class="st24" d="M78.3,121c0,0-7.4-0.2-9.9,10.5s-4.6,24-2.3,25.1C72.8,159.9,77,156,77,156L78.3,121z"/>
				<path class="st20" d="M76.1,121.5c1.3-0.5,2.7-0.6,4-0.2c6.3,1.8,29.9,8.7,33.8,12.1c4.5,3.8-6.7,25.4-6.6,32.5s1,15.4,1.6,23.1
					c0.6,7.7,1.5,11.9-4.8,15.2c-6.3,3.3-17,3.4-25.1-2.7s-6.6-10.3-6.2-14.8c0.3-4.4,3.1-23.7,2.8-29.1c0,0-2.8-2.1-4.9-5.7
					s1.6-10.2,3.2-14.4s-0.9-9.2-0.4-12.7C73.6,122.9,74.8,122,76.1,121.5z"/>
				<path class="st9" d="M83.7,128.8c-0.5,3.9,3.1,7.6,8,8.2c4.9,0.6,9.3-2,9.8-5.9c0.5-3.9-3.1-7.6-8-8.2
					C88.5,122.3,84.2,124.9,83.7,128.8z"/>
				<path class="st8" d="M86.2,129.1c-0.4,2.8,2.2,5.4,5.7,5.8s6.6-1.4,7-4.2c0.4-2.8-2.2-5.4-5.7-5.8
					C89.7,124.5,86.6,126.4,86.2,129.1z"/>
				<path class="st8" d="M89.7,120c0,0,4.3-3.5,5.1-1.7c0.8,1.8,1.5,9.4,1.5,9.4l-8.5,2.3l1.3-7.7C89.1,122.2,87.4,120.8,89.7,120z"
					/>
				<ellipse class="st8" cx="89.1" cy="110.9" rx="12.6" ry="12.6"/>
				<path class="st10" d="M95.4,120.5c0.1,0.4,0.2,0.8,0.2,1.3c-0.8,4.4-7.4,6.3-7.4,6.3l1-5.8c0,0-0.8-0.7-0.6-1.3
					C91.2,120.1,94.4,119.3,95.4,120.5z"/>
				<ellipse class="st8" cx="89.1" cy="110.9" rx="12.6" ry="12.6"/>
				<polygon class="st8" points="120.2,164.4 118.8,198.2 113.8,198.7 110.6,168.3 				"/>
				<path class="st24" d="M103.9,161.6c0.3-1.2,2.4-2.1,2.8-3.7c1.7-7.9,2.1-19.5,2.1-19.5l1.4,15.9c-1.6,4.7-3,9-2.9,11.5
					c0.1,4.1,0.4,8.8,0.8,13.4v0C108.1,179.2,102.3,168.8,103.9,161.6z"/>
				<path class="st25" d="M112.9,132.6c0,0,3.9,1.5,6.2,13.6c2.2,12.1,3.9,24.3-0.1,25.9c-4,1.6-7.3,2.8-8.5-0.5s-1.9-18.9-2.1-24.5
					C108.4,141.5,108.1,133.7,112.9,132.6z"/>
				<path class="st8" d="M49.9,175.5c0,0-2.1,0.8-3.7,2.5c-1.3,1.4-2,2.6-2.5,3.4c-1.2,1.8-2.3,5.8-1.5,6.3s5-6.6,5.7-5
					c0.7,1.7,0,3.2,0.9,3.2c0.9,0,4-7.2,6.4-9.4C57.6,174.3,49.9,175.5,49.9,175.5z"/>
			</g>
			<path class="st21" d="M92.2,285.4c0,0-1.2,0-2.7-0.3l0,0l-1.8-74.3L92.2,285.4z"/>
		</g>
		<g>
			<path class="st20" d="M99.4,245.2l2.6-3.4l27.7-16c0.9-0.5,1.6-1.9,1.6-3.1l0-22.6l1.6-2.1l-1.5-0.9l0,0
				c-0.3-0.2-0.7-0.2-1.1,0.1l-31.3,18.1c-0.9,0.5-1.6,1.9-1.6,3.1l0,24.7c0,0.7,0.2,1.1,0.6,1.3l0,0L99.4,245.2z"/>
			<path class="st26" d="M118.5,232.2l2-1.1l10.8-18.7l0-12.3l1.6-2.1l-1.5-0.9l0,0c-0.3-0.2-0.7-0.2-1.1,0.1l-31.3,18.1
				c-0.5,0.3-0.9,0.8-1.2,1.4L118.5,232.2z"/>
			<path class="st26" d="M132.1,198.9l0.7-0.9l-1.5-0.9l0,0c-0.3-0.2-0.7-0.2-1.1,0.1l-0.6,0.3L132.1,198.9z"/>
			<path class="st20" d="M98.7,215.5c-0.7,0.6-1.2,1.6-1.3,2.6l3.1,1.8l1.5-2.6L98.7,215.5z"/>
			<path class="st25" d="M100.4,216.2l31.3-18.1c0.9-0.5,1.6,0,1.6,1.2l0,24.7c0,1.2-0.7,2.6-1.6,3.1l-31.3,18.1
				c-0.9,0.5-1.6,0-1.6-1.2l0-24.7C98.8,218.1,99.5,216.7,100.4,216.2z"/>
		</g>
		<polygon class="st9" points="106.9,233.9 108.4,233 108.4,220.2 106.9,221.1 		"/>
		<polygon class="st9" points="110.3,231.9 111.8,231 111.8,218.2 110.3,219.1 		"/>
		<polygon class="st9" points="113.8,229.9 115.3,229 115.3,216.2 113.8,217 		"/>
		<path class="st8" d="M118.7,197.9c0,0,1.3,7.9,1.1,10.4s-1.6,6.7-2.6,6.6s0-10.2-1.8-9.2c-1.8,1-2,2.7-2.8,2.1s1.4-9.2,0.8-12.9
			C112.9,191.2,118.7,197.9,118.7,197.9z"/>
		<path class="st10" d="M84.2,112c-6.3,2.2-7.6,0.9-7.6,0.8c-0.1-0.4-0.1-0.8-0.1-1.2c-0.1-1.4,0.1-2.8,0.4-4l16.4-2.2
			C93.3,105.4,90.7,109.7,84.2,112z"/>
		<path class="st23" d="M76,99.1c1.5-1.3,6.9-7.6,16.5-6.1c6,0.9,11.1,5.1,12.2,14.4c0.8,6.3-1.6,12.6-5.8,17.2
			c-0.2-0.1-0.5-0.2-0.7-0.3c-2.4-1.6-2.7-2.5-2.7-2.5L95,117c0-0.7,0.5-1.3,1.2-1.3c0.5,0,1.2-0.3,1.8-1.1c1.4-1.8,0.8-4.6-2-4.8
			c-1.4-0.1-2-0.8-2.2-1.6c-0.2-0.6-0.8-1-1.5-0.8c-3.2,1.1-10.9,3.6-15.9,2.2C70,107.8,74.5,100.4,76,99.1z"/>
		<path class="st9" d="M83.2,117.7l-3.9-1.1c0,0,1.8,2.9,4.5,3.6s3.1-1.5,3.1-1.5L83.2,117.7z"/>
		<polygon class="st26" points="112.2,207.7 115.5,205.8 114.2,207.8 112.6,208.4 		"/>
	</g>
</g>
<g>
	<g>
		<path class="st11" d="M39.5,213.1L1.8,191.6c-0.8-0.4-1.1-1-1.1-1.6l0,0l0-4.2c0,0,1.3,1.1,2.1,1.7l23.6-13.8
			c1.9-1.1,4.8-1.3,6.5-0.3l36.1,20.5l2.8-1.6l0,4.2l0,0c0,0.7-0.5,1.5-1.6,2.1L46,212.8C44.1,213.9,41.2,214,39.5,213.1z"/>
		<path class="st1" d="M70.6,190.6l-37.7-21.5c-1.7-0.9-4.6-0.8-6.5,0.3L2.2,183.5c-1.9,1.1-2.1,2.8-0.4,3.8l37.7,21.5
			c1.7,0.9,4.6,0.8,6.5-0.3l24.1-14.1C72,193.2,72.2,191.5,70.6,190.6z"/>
		<path class="st9" d="M39.5,208.8L1.7,187.3c-0.9-0.5-1.3-1.3-1-2.1c0.2,0.4,0.5,0.7,1,1l37.7,21.5c1.7,0.9,4.6,0.8,6.5-0.3
			L70,193.2c0.8-0.5,1.3-1.1,1.5-1.7c0.4,0.9,0,2-1.4,2.8L46,208.5C44,209.6,41.1,209.7,39.5,208.8z"/>
	</g>
	<g>
		<path class="st9" d="M30.9,184.9c1.4-0.8,1.4-2.1,0-2.9c-1.4-0.8-3.7-0.8-5.1,0c-1.4,0.8-1.4,2.1,0,2.9
			C27.2,185.7,29.5,185.7,30.9,184.9z"/>
		<path class="st9" d="M38.6,189.3c1.4-0.8,1.4-2.1,0-2.9c-1.4-0.8-3.7-0.8-5.1,0c-1.4,0.8-1.4,2.1,0,2.9
			C34.9,190.1,37.2,190.1,38.6,189.3z"/>
		<path class="st9" d="M46.3,193.6c1.4-0.8,1.4-2.1,0-2.9c-1.4-0.8-3.7-0.8-5.1,0c-1.4,0.8-1.4,2.1,0,2.9
			C42.7,194.5,44.9,194.5,46.3,193.6z"/>
	</g>
</g>
<g>
	<path class="st11" d="M334.7,270.7c0,3.5-2.5,4.9-5.5,3.2s-5.5-6-5.5-9.5s2.5-4.9,5.5-3.2C332.2,262.9,334.7,267.2,334.7,270.7z"/>
	<path class="st11" d="M337,280.6c0,0,0-0.1,0-0.2c-0.2-1.5-1.6-2.8-2.5-2.4c-1.4,0.5-3.2,0.3-5.2-0.9s-3.8-3-5.2-5.1
		c-0.9-1.4-2.3-1.7-2.5-0.5c0,0,0,0.1,0,0.1l-2.6,16.5l20.8,12L337,280.6z"/>
</g>
<g>
	<path class="st9" d="M334.7,270.7c0,3.5-2.5,4.9-5.5,3.2s-5.5-6-5.5-9.5s2.5-4.9,5.5-3.2C332.2,262.9,334.7,267.2,334.7,270.7z"/>
	<path class="st9" d="M337,280.6c0,0,0-0.1,0-0.2c-0.2-1.5-1.6-2.8-2.5-2.4c-1.4,0.5-3.2,0.3-5.2-0.9s-3.8-3-5.2-5.1
		c-0.9-1.4-2.3-1.7-2.5-0.5c0,0,0,0.1,0,0.1l-2.6,16.5l20.8,12L337,280.6z"/>
</g>
<g>
	<polygon class="st9" points="341.1,312.7 315.9,298.1 315.9,296.3 341.1,310.9 	"/>
	<polygon class="st9" points="333.5,316.2 315.9,306.1 315.9,304.2 333.5,314.4 	"/>
	<polygon class="st9" points="331.1,310.9 315.9,302.1 315.9,300.3 331.1,309.1 	"/>
	<polygon class="st9" points="341.1,316.6 333.5,312.2 333.5,310.4 341.1,314.8 	"/>
</g>
<g>
	<polygon class="st2" points="341.1,191.3 315.9,176.8 315.9,175 341.1,189.5 	"/>
	<polygon class="st2" points="333.5,194.9 315.9,184.7 315.9,182.9 333.5,193.1 	"/>
	<polygon class="st2" points="331.1,189.5 315.9,180.8 315.9,178.9 331.1,187.7 	"/>
	<polygon class="st2" points="341.1,195.3 333.5,190.9 333.5,189.1 341.1,193.5 	"/>
</g>
<g>
	<polygon class="st2" points="341.1,206.7 315.9,192.1 315.9,190.3 341.1,204.8 	"/>
	<polygon class="st2" points="333.5,210.2 315.9,200.1 315.9,198.2 333.5,208.4 	"/>
	<polygon class="st2" points="331.1,204.9 315.9,196.1 315.9,194.3 331.1,203.1 	"/>
	<polygon class="st2" points="341.1,210.6 333.5,206.2 333.5,204.4 341.1,208.8 	"/>
</g>
<g>
	<polygon class="st2" points="341.1,222 315.9,207.4 315.9,205.6 341.1,220.2 	"/>
	<polygon class="st2" points="333.5,225.5 315.9,215.4 315.9,213.6 333.5,223.7 	"/>
	<polygon class="st2" points="331.1,220.2 315.9,211.4 315.9,209.6 331.1,218.4 	"/>
	<polygon class="st2" points="341.1,225.9 333.5,221.6 333.5,219.7 341.1,224.1 	"/>
</g>
<g>
	<polygon class="st9" points="261.7,265 243.8,254.6 243.8,252.9 261.7,263.3 	"/>
	<polygon class="st9" points="272.9,271.4 265.2,267 265.2,265.3 272.9,269.7 	"/>
	<polygon class="st9" points="262.4,269 254.7,264.5 254.7,262.9 262.4,267.3 	"/>
	<polygon class="st9" points="279,278.6 265.2,270.6 265.2,268.9 279,276.9 	"/>
	<polygon class="st9" points="288.4,287.7 268,275.9 268,274.2 288.4,286 	"/>
	<polygon class="st9" points="283.8,277.7 276.2,273.3 276.2,271.6 283.8,276 	"/>
	<polygon class="st9" points="251.4,262.7 243.8,258.2 243.8,256.6 251.4,261 	"/>
	<polygon class="st9" points="264.7,274 243.7,261.9 243.7,260.2 264.7,272.3 	"/>
	<polygon class="st9" points="256.6,273 244,265.7 244,264 256.6,271.3 	"/>
</g>
<path class="st7" d="M443.1,361.4c-0.5,0-0.9-0.2-1.2-0.7c-0.4-0.6-0.2-1.5,0.5-1.9l53.3-31.5c0.4-0.2,0.5-0.7,0.5-0.8
	c0-0.2,0-0.6-0.5-0.8l-14.5-8.7c-0.6-0.4-0.9-1.2-0.5-1.9c0.4-0.6,1.2-0.9,1.9-0.5l14.5,8.7c1.1,0.7,1.8,1.9,1.8,3.2
	s-0.7,2.5-1.8,3.2l-53.3,31.5C443.6,361.4,443.4,361.4,443.1,361.4z"/>
<g>
	<polygon class="st0" points="453.5,385.5 435,374.9 416.6,385.5 435,396.2 	"/>
	<polygon class="st11" points="435,386.3 435,374.3 457.1,361.5 457.1,373.6 	"/>
	<polygon class="st11" points="435,374.3 413,361.5 413,373.6 435,386.3 	"/>
	<polygon class="st1" points="457.1,361.5 435,348.8 413,361.5 435,374.3 	"/>
</g>
<polygon class="st15" points="256.8,105.3 260.5,117.5 270.1,124.1 262.8,127 265,139.2 256.8,128.6 248.6,129.7 250.8,120.1 
	243.6,108.8 253.1,113.2 "/>
<polygon class="st15" points="287.2,122.7 290.9,134.9 300.4,141.5 293.2,144.4 295.4,156.5 287.2,146 279,147.1 281.2,137.5 
	273.9,126.2 283.5,130.6 "/>
<polygon class="st15" points="239.7,106.7 230.2,100.2 226.4,87.9 225.9,89.1 225.9,111.3 226.4,111.2 234.6,121.8 232.5,109.7 "/>
<g>
	<g>
		<g>
			<polygon class="st13" points="159.3,45.2 163,57.4 172.6,63.9 165.3,66.9 167.5,79 159.3,68.4 151.1,69.5 153.3,59.9 146.1,48.6 
				155.6,53.1 			"/>
			<path class="st14" d="M141.6,51.2l4.4-2.5l6.9,3.2c0,0,0,4.6,0,4.7s-2.8,0.2-3,0.2C149.7,56.8,141.6,51.2,141.6,51.2z"/>
			<path class="st13" d="M167.5,79l-4.4,2.6l-2.2-12.1l2.1-2.3c0,0,2.4,0.4,2.4,0.4L167.5,79z"/>
			<polygon class="st7" points="154.9,47.7 158.6,59.9 168.1,66.5 160.9,69.4 163.1,81.5 154.9,71 146.7,72.1 148.9,62.5 
				141.6,51.2 151.1,55.6 			"/>
			<path class="st9" d="M163.1,81.5l-2.2-12.1l7.2-2.9l-9.5-6.6l-3.7-12.2l-3.7,7.9l-9.5-4.4l0.7,1l9.2,4.3l3.3-7l3.3,10.8l8.7,6
				l-6.6,2.7l2,11.4L163.1,81.5z"/>
			<polygon class="st13" points="154.9,47.7 159.3,45.2 163,57.4 158.6,59.9 			"/>
			<polygon class="st14" points="172.6,63.9 168.1,66.5 158.6,59.9 163,57.4 			"/>
		</g>
		<polygon class="st9" points="158.8,60.2 158.1,59.8 162.9,57 163,57.4 163.4,57.6 		"/>
	</g>
	<g>
		<g>
			<polygon class="st13" points="189.7,62.5 193.4,74.8 202.9,81.3 195.7,84.2 197.9,96.4 189.7,85.8 181.5,86.9 183.7,77.3 
				176.4,66 186,70.4 			"/>
			<path class="st14" d="M172,68.6l4.4-2.6l6.9,3.2c0,0,0,4.6,0,4.7s-2.8,0.2-3,0.2S172,68.6,172,68.6z"/>
			<path class="st13" d="M197.9,96.4l-4.4,2.6l-2.2-12.1l2.1-2.3c0,0,2.4,0.4,2.4,0.4L197.9,96.4z"/>
			<polygon class="st7" points="185.2,65.1 189,77.3 198.5,83.9 191.3,86.8 193.4,98.9 185.2,88.4 177.1,89.5 179.2,79.8 172,68.6 
				181.5,73 			"/>
			<path class="st9" d="M193.4,98.9l-2.2-12.1l7.2-2.9l-9.5-6.6l-3.7-12.2l-3.7,7.9l-9.5-4.4l0.7,1l9.2,4.3l3.3-7l3.3,10.8l8.7,6
				l-6.6,2.7l2,11.4L193.4,98.9z"/>
			<polygon class="st13" points="185.2,65.1 189.7,62.5 193.4,74.8 189,77.3 			"/>
			<polygon class="st14" points="202.9,81.3 198.5,83.9 189,77.3 193.4,74.8 			"/>
		</g>
		<polygon class="st9" points="189.2,77.6 188.5,77.2 193.3,74.4 193.4,74.8 193.7,75 		"/>
	</g>
	<g>
		<g>
			<polygon class="st13" points="220.1,79.9 223.8,92.1 233.3,98.7 226.1,101.6 228.2,113.8 220.1,103.2 211.9,104.3 214,94.7 
				206.8,83.4 216.3,87.8 			"/>
			<path class="st14" d="M202.4,85.9l4.4-2.6l6.9,3.2c0,0,0,4.6,0,4.7s-2.8,0.2-3,0.2C210.5,91.6,202.4,85.9,202.4,85.9z"/>
			<path class="st13" d="M228.2,113.8l-4.4,2.6l-2.2-12.1l2.1-2.3l2.4,0.4L228.2,113.8z"/>
			<polygon class="st7" points="215.6,82.5 219.3,94.7 228.9,101.2 221.6,104.2 223.8,116.3 215.6,105.8 207.4,106.8 209.6,97.2 
				202.4,85.9 211.9,90.4 			"/>
			<path class="st9" d="M223.8,116.3l-2.2-12.1l7.2-2.9l-9.5-6.6l-3.7-12.2l-3.7,7.9l-9.5-4.4l0.7,1l9.2,4.3l3.3-7l3.3,10.8l8.7,6
				l-6.6,2.7l2,11.4L223.8,116.3z"/>
			<polygon class="st13" points="215.6,82.5 220.1,79.9 223.8,92.1 219.3,94.7 			"/>
			<polygon class="st14" points="233.3,98.7 228.9,101.2 219.3,94.7 223.8,92.1 			"/>
		</g>
		<polygon class="st9" points="219.6,95 218.9,94.6 223.7,91.8 223.8,92.1 224.1,92.3 		"/>
	</g>
	<g>
		<g>
			<polygon class="st13" points="250.4,97.3 254.1,109.5 263.7,116.1 256.4,119 258.6,131.1 250.4,120.6 242.2,121.7 244.4,112.1 
				237.2,100.8 246.7,105.2 			"/>
			<path class="st14" d="M232.7,103.3l4.4-2.6l6.9,3.2c0,0,0,4.6,0,4.7s-2.8,0.2-3,0.2C240.8,108.9,232.7,103.3,232.7,103.3z"/>
			<path class="st13" d="M258.6,131.1l-4.4,2.6l-2.2-12.1l2.1-2.3c0,0,2.4,0.4,2.4,0.4L258.6,131.1z"/>
			<polygon class="st7" points="246,99.9 249.7,112.1 259.2,118.6 252,121.6 254.2,133.7 246,123.2 237.8,124.2 239.9,114.6 
				232.7,103.3 242.2,107.8 			"/>
			<path class="st9" d="M254.2,133.7l-2.2-12.1l7.2-2.9l-9.5-6.6L246,99.9l-3.7,7.9l-9.5-4.4l0.7,1l9.2,4.3l3.3-7l3.3,10.8l8.7,6
				l-6.6,2.7l2,11.4L254.2,133.7z"/>
			<polygon class="st13" points="246,99.9 250.4,97.3 254.1,109.5 249.7,112.1 			"/>
			<polygon class="st14" points="263.7,116.1 259.2,118.6 249.7,112.1 254.1,109.5 			"/>
		</g>
		<polygon class="st9" points="249.9,112.4 249.2,112 254,109.2 254.1,109.5 254.5,109.7 		"/>
	</g>
	<g>
		<g>
			<polygon class="st13" points="280.8,114.7 284.5,126.9 294,133.4 286.8,136.4 289,148.5 280.8,138 272.6,139.1 274.8,129.4 
				267.5,118.2 277.1,122.6 			"/>
			<path class="st14" d="M263.1,120.7l4.5-2.6l6.9,3.2c0,0,0,4.6,0,4.7s-2.8,0.2-3,0.2C271.2,126.3,263.1,120.7,263.1,120.7z"/>
			<path class="st13" d="M289,148.5l-4.5,2.6l-2.2-12.1l2.1-2.3c0,0,2.4,0.4,2.4,0.4L289,148.5z"/>
			<polygon class="st7" points="276.3,117.2 280.1,129.4 289.6,136 282.4,138.9 284.5,151.1 276.3,140.5 268.1,141.6 270.3,132 
				263.1,120.7 272.6,125.2 			"/>
			<path class="st9" d="M284.5,151.1l-2.2-12.1l7.2-2.9l-9.5-6.6l-3.7-12.2l-3.7,7.9l-9.5-4.4l0.7,1l9.2,4.3l3.3-7l3.3,10.8l8.7,6
				l-6.6,2.7l2,11.4L284.5,151.1z"/>
			<polygon class="st13" points="276.3,117.2 280.8,114.7 284.5,126.9 280.1,129.4 			"/>
			<polygon class="st14" points="294,133.4 289.6,136 280.1,129.4 284.5,126.9 			"/>
		</g>
		<polygon class="st9" points="280.3,129.8 279.6,129.4 284.4,126.6 284.5,126.9 284.8,127.1 		"/>
	</g>
</g>
</svg>
