<?xml version="1.0" encoding="utf-8"?>
<!-- Generator: Adobe Illustrator 25.2.3, SVG Export Plug-In . SVG Version: 6.00 Build 0)  -->
<svg version="1.1" id="Calque_1" xmlns="http://www.w3.org/2000/svg" xmlns:xlink="http://www.w3.org/1999/xlink" x="0px" y="0px"
	 viewBox="0 0 500 430" style="enable-background:new 0 0 500 430;" xml:space="preserve">
<style type="text/css">
	.st0{fill:#D5ECFB;}
	.st1{fill:#E93E8F;}
	.st2{fill:#CA2586;}
	.st3{fill:#FFFFFF;}
	.st4{fill:#F9BF32;}
	.st5{fill:#FDD762;}
	.st6{fill:#D88A2C;}
	.st7{opacity:0.3;fill:#231F20;}
	.st8{fill:#F1F2F2;}
	.st9{fill:#8865A9;}
	.st10{fill:#6C4B99;}
	.st11{fill:#644696;}
	.st12{fill:#2842A2;}
	.st13{opacity:0.83;fill:#F9BF32;}
	.st14{opacity:0.49;fill:#F1F2F2;}
	.st15{opacity:0.83;}
	.st16{fill:#F7F7F7;}
	.st17{fill:#523F92;}
	.st18{fill:#1A3E78;}
	.st19{fill:#F8C0B0;}
	.st20{fill:#EB9D93;}
	.st21{fill:#BB9FCC;}
	.st22{fill:#584193;}
</style>
<g>
	<path class="st0" d="M446.2,341.3l-88.1-50.8c-3.1-1.8-2.7-4.9,0.9-6.9l0,0c3.5-2,8.9-2.3,11.9-0.5l88.1,50.8
		c3.1,1.8,2.7,4.9-0.9,6.9l0,0C454.6,342.8,449.3,343.1,446.2,341.3z"/>
	<path class="st1" d="M462.2,72l-94.9-54.8c-3.1-1.8-6-1.8-8.1-0.5l0,0l-11.9,6.9l8,1.5c0,0.4,0,0.8,0,1.2v223.8
		c0,8.9,5.4,19.2,12.1,23l93.5,54c-0.9,2.7-2.7,8.3-2.7,8.3l11.6-6.8l0,0c2.7-1.4,4.4-4.9,4.4-9.9V95
		C474.2,86.1,468.8,75.8,462.2,72z"/>
	<path class="st2" d="M355.2,250.1c0,8.9,5.4,19.2,12.1,23l93.5,54c-0.9,2.7-2.7,8.3-2.7,8.3l11.6-6.8l0,0c2.7-1.4,4.4-4.9,4.4-9.9
		V95c0-4.6-1.5-9.7-3.8-13.9l-115.2,66.5L355.2,250.1L355.2,250.1z"/>
	<path class="st1" d="M450.2,334.9l-94.9-54.8c-6.7-3.8-12.1-14.2-12.1-23V33.2c0-8.9,5.4-13,12.1-9.1l94.9,54.8
		c6.7,3.8,12.1,14.2,12.1,23.1v223.8C462.2,334.6,456.8,338.7,450.2,334.9z"/>
	<path class="st3" d="M448.4,327.4l-91.2-52.6c-5-2.9-9-10.5-9-17.1V37.1c0-6.6,4-9.6,9-6.8l91.2,52.7c4.9,2.9,9,10.5,9,17.1v220.6
		C457.4,327.3,453.4,330.3,448.4,327.4z"/>
</g>
<path class="st4" d="M105.3,394.9c0-0.7-1-1.3-2.2-1.2l-4.6,0c-0.8,0-2,0.8-2.2,0.6c-0.3-0.4-0.2-0.9,0.3-1.2l3.3-1.9
	c0.8-0.5-4.5-0.3-5.4-0.8l0-4.1c-0.8-0.5-2.2-0.5-3.1,0l-3.3,1.9c-0.5,0.3-1.3,0.4-2,0.2c-0.5-0.1-1-0.2-1.4-0.3
	c-0.7-0.2-1.1-0.5-1.1-1v-2.7c0-0.7-1-1.3-2.2-1.3h-7.6c-1.2,0-2.2,0.6-2.2,1.3v2.7c0,0.4-0.5,0.8-1.2,1c-0.5,0.1-0.9,0.2-1.3,0.3
	c-0.7,0.2-1.5,0.1-2.1-0.2l-3.3-1.9c-0.9-0.5-2.2-0.5-3.1,0l-0.4,4.5c-0.8,0.5-5.8-0.1-4.9,0.4l3.3,1.9c0.5,0.3,0.7,0.7,0.4,1.1
	c-0.2,0.3-1.5-0.5-2.2-0.5l-4.7,0c-1.2,0-2.2,0.6-2.2,1.3l0,6.4c0,0.7,1,1.2,2.2,1.2l2.7,0l-0.1,5.2c0,0.1,0,0.2,0,0.3v0h0
	c0,0.3,0.2,0.5,0.6,0.8l5.4,3.1c0.5,0.3,1.2,0.4,1.9,0.3l0,0v0c0.4,0,0.8-0.1,1.1-0.3l3.3-1.9c0.5-0.3,1.3-0.4,2-0.2
	c0.5,0.1,1,0.2,1.4,0.3c0.7,0.2,1.1,0.5,1.1,1l0,2.7c0,0.7,1,1.3,2.2,1.2l7.6,0c1.2,0,2.2-0.6,2.2-1.3l0-2.7c0-0.4,0.5-0.8,1.2-1
	c0.4-0.1,0.9-0.2,1.3-0.3c0.7-0.2,1.5-0.1,2.1,0.2l3.3,1.9c0.3,0.2,0.7,0.3,1.1,0.3v0l0.1,0c0.7,0.1,1.4,0,1.9-0.3l5.3-3.1
	c0.4-0.2,0.5-0.5,0.6-0.7l0,0l0-0.1c0,0,0,0,0-0.1l-0.1-5.4l2.7,0c1.2,0,2.2-0.6,2.2-1.3L105.3,394.9z M88.2,400.2
	c-1.3,3.8-8.2,6-14.4,4.6c-4.7-1-7.6-4-6.7-6.9c1.3-3.8,8.2-6,14.4-4.6C86.3,394.3,89.1,397.3,88.2,400.2z"/>
<path class="st4" d="M100.5,387.6l0-3.4h-4.9l-1.1-0.6c-0.8-0.5-2.2-0.5-3.1,0l-1.1,0.6h-6.8v-2.5c0-0.7-1-1.3-2.2-1.3h-7.6
	c-1.2,0-2.2,0.6-2.2,1.3v2.5h-6.9l-1-0.6c-0.9-0.5-2.2-0.5-3.1,0l-1,0.6h-4.9v3.3c0,0.3,0.2,0.7,0.6,0.9l3.3,1.9l37.9-0.1l3.3-1.9
	C100.3,388.2,100.5,387.9,100.5,387.6L100.5,387.6z"/>
<g id="XMLID_130_">
	<path id="XMLID_131_" class="st5" d="M97.2,396.5l5.9,0c1.2,0,2.2-0.6,2.2-1.3l0-4.4c0-0.7-1-1.3-2.2-1.2l-4.6,0
		c-0.8,0-1.4-0.3-1.7-0.7c-0.2-0.2-0.3-0.5-0.5-0.7c-0.3-0.4-0.2-0.9,0.3-1.2l3.3-1.9c0.8-0.5,0.8-1.3,0-1.8l-5.4-3.1
		c-0.8-0.5-2.2-0.5-3.1,0l-3.3,1.9c-0.5,0.3-1.3,0.4-2,0.2c-0.5-0.1-1-0.2-1.4-0.3c-0.7-0.2-1.1-0.5-1.1-1v-2.7c0-0.7-1-1.3-2.2-1.3
		h-7.6c-1.2,0-2.2,0.6-2.2,1.3v2.7c0,0.4-0.5,0.8-1.2,1c-0.5,0.1-0.9,0.2-1.3,0.3c-0.7,0.2-1.5,0.1-2.1-0.2l-3.3-1.9
		c-0.9-0.5-2.2-0.5-3.1,0l-5.3,3.1c-0.8,0.5-0.8,1.3,0,1.8l3.3,1.9c0.5,0.3,0.7,0.7,0.4,1.1c-0.2,0.3-0.4,0.6-0.6,0.8
		c-0.3,0.4-0.9,0.7-1.7,0.7l-4.7,0c-1.2,0-2.2,0.6-2.2,1.3l0,4.4c0,0.7,1,1.2,2.2,1.2l4.6,0c0.8,0,1.4,0.3,1.7,0.7
		c0.2,0.2,0.3,0.5,0.5,0.7c0.3,0.4,0.2,0.9-0.3,1.2l-3.3,1.9c-0.8,0.5-0.8,1.3,0,1.8l5.4,3.1c0.9,0.5,2.2,0.5,3.1,0l3.3-1.9
		c0.5-0.3,1.3-0.4,2-0.2c0.5,0.1,1,0.2,1.4,0.3c0.7,0.2,1.1,0.5,1.1,1l0,2.7c0,0.7,1,1.3,2.2,1.2l7.6,0c1.2,0,2.2-0.6,2.2-1.3l0-2.7
		c0-0.4,0.5-0.8,1.2-1c0.4-0.1,0.9-0.2,1.3-0.3c0.7-0.2,1.5-0.1,2.1,0.2l3.3,1.9c0.9,0.5,2.2,0.5,3.1,0l5.3-3.1
		c0.8-0.5,0.8-1.3,0-1.8l-3.3-1.9c-0.5-0.3-0.7-0.7-0.4-1.1C96.7,397.3,97.2,396.5,97.2,396.5z M67.1,391.9c1.3-3.8,8.2-6,14.4-4.6
		c4.7,1,7.6,4,6.7,6.9c-1.3,3.8-8.2,6-14.4,4.6C69.1,397.7,66.2,394.8,67.1,391.9z"/>
</g>
<path class="st4" d="M263.9,409c0-0.6-0.8-1-1.7-1l-3.7,0c-0.6,0-1.6,0.6-1.8,0.5c-0.3-0.3-0.2-0.7,0.3-1l2.6-1.5
	c0.7-0.4-3.6-0.2-4.3-0.6l0-3.3c-0.7-0.4-1.8-0.4-2.5,0l-2.6,1.5c-0.4,0.2-1,0.3-1.6,0.2c-0.4-0.1-0.8-0.2-1.1-0.3
	c-0.6-0.1-0.9-0.4-0.9-0.8v-2.2c0-0.6-0.8-1-1.7-1h-6.1c-1,0-1.7,0.4-1.7,1v2.1c0,0.4-0.4,0.7-1,0.8c-0.4,0.1-0.7,0.2-1.1,0.3
	c-0.6,0.1-1.2,0.1-1.7-0.2l-2.6-1.5c-0.7-0.4-1.8-0.4-2.5,0l-0.3,3.6c-0.7,0.4-4.6-0.1-3.9,0.3l2.7,1.5c0.4,0.2,0.5,0.6,0.3,0.9
	c-0.2,0.2-1.2-0.4-1.8-0.4l-3.8,0c-1,0-1.7,0.5-1.7,1l0,5.1c0,0.6,0.8,1,1.7,1l2.2,0l-0.1,4.2c0,0.1,0,0.1,0,0.2v0h0
	c0,0.2,0.2,0.4,0.5,0.6l4.3,2.5c0.4,0.2,1,0.3,1.5,0.3l0,0v0c0.3,0,0.7-0.1,0.9-0.3l2.6-1.5c0.4-0.2,1-0.3,1.6-0.2
	c0.4,0.1,0.8,0.2,1.1,0.3c0.6,0.1,0.9,0.4,0.9,0.8l0,2.2c0,0.6,0.8,1,1.7,1l6.1,0c1,0,1.7-0.5,1.7-1l0-2.1c0-0.4,0.4-0.7,1-0.8
	c0.3-0.1,0.7-0.2,1-0.2c0.6-0.1,1.2-0.1,1.7,0.2l2.6,1.5c0.3,0.1,0.6,0.2,0.9,0.3v0l0,0c0.5,0.1,1.1,0,1.5-0.3l4.3-2.5
	c0.3-0.2,0.4-0.4,0.5-0.6l0,0l0-0.1c0,0,0,0,0,0l-0.1-4.3l2.1,0c1,0,1.7-0.4,1.7-1L263.9,409z M250.2,413.2c-1,3.1-6.6,4.8-11.5,3.7
	c-3.8-0.8-6.1-3.2-5.3-5.5c1-3.1,6.6-4.8,11.5-3.7C248.6,408.6,250.9,410.9,250.2,413.2z"/>
<path class="st4" d="M260.1,403.2l0-2.7h-3.9l-0.9-0.5c-0.7-0.4-1.8-0.4-2.5,0l-0.9,0.5h-5.4v-2c0-0.6-0.8-1-1.7-1h-6.1
	c-1,0-1.7,0.4-1.7,1v2h-5.5l-0.8-0.5c-0.7-0.4-1.8-0.4-2.5,0l-0.8,0.5h-3.9v2.7c0,0.3,0.2,0.5,0.5,0.7l2.7,1.5l30.3,0l2.6-1.5
	C259.8,403.6,260,403.4,260.1,403.2L260.1,403.2z"/>
<g id="XMLID_125_">
	<path id="XMLID_126_" class="st5" d="M257.4,410.2l4.7,0c1,0,1.7-0.4,1.7-1l0-3.5c0-0.6-0.8-1-1.7-1l-3.7,0c-0.6,0-1.1-0.2-1.4-0.6
		c-0.1-0.2-0.3-0.4-0.4-0.6c-0.3-0.3-0.2-0.7,0.3-1l2.6-1.5c0.7-0.4,0.7-1,0-1.4l-4.3-2.5c-0.7-0.4-1.8-0.4-2.5,0l-2.6,1.5
		c-0.4,0.2-1,0.3-1.6,0.2c-0.4-0.1-0.8-0.2-1.1-0.3c-0.6-0.1-0.9-0.4-0.9-0.8v-2.2c0-0.6-0.8-1-1.7-1h-6.1c-1,0-1.7,0.4-1.7,1v2.1
		c0,0.4-0.4,0.7-1,0.8c-0.4,0.1-0.7,0.2-1.1,0.3c-0.6,0.1-1.2,0.1-1.7-0.2l-2.6-1.5c-0.7-0.4-1.8-0.4-2.5,0l-4.3,2.5
		c-0.7,0.4-0.7,1,0,1.4l2.7,1.5c0.4,0.2,0.5,0.6,0.3,0.9c-0.2,0.2-0.3,0.5-0.5,0.7c-0.2,0.3-0.7,0.5-1.3,0.5l-3.8,0
		c-1,0-1.7,0.5-1.7,1l0,3.5c0,0.6,0.8,1,1.7,1l3.7,0c0.6,0,1.1,0.2,1.4,0.6c0.1,0.2,0.3,0.4,0.4,0.6c0.3,0.3,0.2,0.7-0.3,1l-2.6,1.5
		c-0.7,0.4-0.7,1,0,1.4l4.3,2.5c0.7,0.4,1.8,0.4,2.5,0l2.6-1.5c0.4-0.2,1-0.3,1.6-0.2c0.4,0.1,0.8,0.2,1.1,0.3
		c0.6,0.1,0.9,0.4,0.9,0.8l0,2.2c0,0.6,0.8,1,1.7,1l6.1,0c1,0,1.7-0.5,1.7-1l0-2.1c0-0.4,0.4-0.7,1-0.8c0.3-0.1,0.7-0.2,1-0.2
		c0.6-0.1,1.2-0.1,1.7,0.2l2.6,1.5c0.7,0.4,1.8,0.4,2.5,0l4.3-2.5c0.7-0.4,0.7-1,0-1.4l-2.7-1.5c-0.4-0.2-0.5-0.6-0.3-0.9
		C257,410.9,257.4,410.3,257.4,410.2z M233.3,406.6c1-3.1,6.6-4.8,11.5-3.7c3.8,0.8,6.1,3.2,5.3,5.5c-1,3.1-6.6,4.8-11.5,3.7
		C234.9,411.3,232.6,408.9,233.3,406.6z"/>
</g>
<path id="XMLID_21_" class="st6" d="M127.9,251.9c-2.9-1.7-7.7-1.7-10.7-0.1L80.4,273c-2.9,1.7-3,4.5,0,6.2l25.1,14.9
	c2.9,1.7,7.7,1.8,10.6,0.1l36.9-21.3c2.9-1.7,2.9-4.5,0-6.2L127.9,251.9z"/>
<g>
	<path id="XMLID_12_" class="st5" d="M127.9,249.8c-2.9-1.7-7.7-1.7-10.7-0.1l-36.9,21.2c-2.9,1.7-3,4.5,0,6.2l25.1,14.9
		c2.9,1.7,7.7,1.8,10.6,0.1l36.9-21.3c2.9-1.7,2.9-4.5,0-6.2L127.9,249.8z"/>
</g>
<polygon id="XMLID_11_" class="st3" points="149.9,266.1 109.8,289.7 108.6,289 148.6,265.4 "/>
<polygon id="XMLID_10_" class="st3" points="145.5,263.8 105.5,287.4 104.2,286.7 144.3,263.1 "/>
<polygon id="XMLID_9_" class="st3" points="141.4,261.3 101.4,285 100.1,284.2 140.2,260.6 "/>
<polygon id="XMLID_8_" class="st3" points="137.2,259 97.2,282.6 95.9,281.8 136,258.2 "/>
<polygon id="XMLID_3_" class="st3" points="133,256.5 93,280.1 91.8,279.4 131.8,255.8 "/>
<polygon id="XMLID_2_" class="st3" points="128.9,254.1 88.8,277.8 87.6,277 127.6,253.4 "/>
<polygon id="XMLID_1_" class="st3" points="124.5,252.7 104.4,264.6 103.2,263.9 123.3,252 "/>
<path id="XMLID_32_" class="st6" d="M187.1,216.7c-2.9-1.7-7.7-1.7-10.7-0.1l-36.9,21.2c-2.9,1.7-3,4.5,0,6.2l25.1,14.9
	c2.9,1.7,7.7,1.8,10.6,0.1l36.9-21.3c2.9-1.7,2.9-4.5,0-6.2L187.1,216.7z"/>
<g>
	<path id="XMLID_31_" class="st5" d="M187.1,214.6c-2.9-1.7-7.7-1.7-10.7-0.1l-36.9,21.2c-2.9,1.7-3,4.5,0,6.2l25.1,14.9
		c2.9,1.7,7.7,1.8,10.6,0.1l36.9-21.3c2.9-1.7,2.9-4.5,0-6.2L187.1,214.6z"/>
</g>
<polygon id="XMLID_30_" class="st3" points="208.2,231.5 169.2,254.6 168,253.8 207,230.9 "/>
<polygon id="XMLID_29_" class="st3" points="204,229.3 165,252.3 163.7,251.6 202.8,228.6 "/>
<polygon id="XMLID_28_" class="st3" points="200,226.9 160.9,249.9 159.7,249.2 198.7,226.2 "/>
<polygon id="XMLID_27_" class="st3" points="195.9,224.6 156.9,247.6 155.6,246.9 194.7,223.9 "/>
<polygon id="XMLID_26_" class="st3" points="191.8,222.2 152.8,245.2 151.6,244.5 190.6,221.5 "/>
<polygon id="XMLID_25_" class="st3" points="187.7,219.9 148.7,242.9 147.5,242.2 186.5,219.2 "/>
<polygon id="XMLID_24_" class="st3" points="183.7,217.5 163.5,229.4 162.3,228.7 182.4,216.8 "/>
<path class="st7" d="M395.6,168.4v-9.2c0-3.5-2.4-7.7-5.4-9.4l-41.9-24.2V171l16.6,9.6l-3.2,1.8l-13.3-2.3c0,0,4.8,1.2,5.4,0.9
	l21.4,5.5l12.1,7c1,0.6,1.9,0.8,2.7,0.7c0,0,0,0,0,0l2.2-0.1c1.9-0.1,3.5-1.7,3.5-3.6v-16c1.2-1.6,1.4-3.7,0.4-5.6
	C395.9,168.8,395.7,168.6,395.6,168.4z"/>
<path id="XMLID_6_" class="st2" d="M328.1,127.2l1.1-1.9c1.2-2.1,3.8-2.8,5.9-1.6l49.8,28.8c3.2,1.8,5.8,6.4,5.8,10.1V196
	c0,2.1-1.6,3.8-3.7,3.9l-2.3,0.1c-0.7,0-1.4-0.2-2.1-0.5l-48.7-28.1c-3.2-1.8-5.8-6.4-5.8-10.1V127.2z"/>
<path id="XMLID_208_" class="st8" d="M327.9,128.9c0-3.7,2.6-5.2,5.8-3.4l48.1,27.8c3.2,1.8,5.8,6.4,5.8,10.1v32.5
	c0,3.7-2.6,5.2-5.8,3.4l-48.1-27.8c-3.2-1.8-5.8-6.4-5.8-10.1V128.9z"/>
<polygon id="XMLID_211_" class="st1" points="332.3,131.5 382.1,160 382.1,162.4 332.3,134 "/>
<polygon id="XMLID_218_" class="st1" points="332.3,139.3 382.1,167.8 382.1,170.2 332.3,141.7 "/>
<polygon id="XMLID_226_" class="st1" points="347.1,155.6 382.1,175.5 382.1,178 347.1,158 "/>
<polygon id="XMLID_230_" class="st1" points="342.1,152.7 345.9,154.8 345.9,157.3 342.1,155.1 "/>
<polygon id="XMLID_231_" class="st1" points="332.3,147.1 340.6,151.8 340.6,154.3 332.3,149.5 "/>
<polygon id="XMLID_227_" class="st1" points="366,174.1 382.1,183.3 382.1,185.7 366,176.6 "/>
<path id="XMLID_5_" class="st2" d="M380.4,87.1l1-1.8c1.1-1.9,3.5-2.6,5.4-1.5l46.3,26.8c3,1.7,5.4,5.9,5.4,9.4v31.1
	c0,1.9-1.5,3.5-3.5,3.6l-2.2,0.1c-0.7,0-1.3-0.1-1.9-0.5l-45.2-26.1c-3-1.7-5.4-5.9-5.4-9.4V87.1z"/>
<polygon id="XMLID_229_" class="st1" points="332.3,154.8 364.5,173.3 364.5,175.8 332.3,157.3 "/>
<polygon id="XMLID_228_" class="st1" points="332.3,162.6 355.9,176.2 355.9,178.6 332.3,165.1 "/>
<path id="XMLID_52_" class="st8" d="M379.7,88c0-3.5,2.4-4.9,5.4-3.1l44.9,25.9c3,1.7,5.4,6,5.4,9.4v30.4c0,3.5-2.4,4.9-5.4,3.1
	l-44.9-25.9c-3-1.7-5.4-6-5.4-9.4V88z"/>
<polygon id="XMLID_51_" class="st1" points="383.8,90.5 430.3,117.1 430.3,119.4 383.8,92.8 "/>
<polygon id="XMLID_50_" class="st1" points="383.8,97.8 430.3,124.3 430.3,126.6 383.8,100 "/>
<polygon id="XMLID_49_" class="st1" points="397.6,113 430.3,131.6 430.3,133.9 397.6,115.3 "/>
<polygon id="XMLID_48_" class="st1" points="393,110.3 396.5,112.3 396.5,114.6 393,112.5 "/>
<polygon id="XMLID_47_" class="st1" points="383.8,105 391.5,109.5 391.5,111.7 383.8,107.3 "/>
<polygon id="XMLID_46_" class="st1" points="415.3,130.3 430.3,138.9 430.3,141.2 415.3,132.6 "/>
<polygon id="XMLID_45_" class="st1" points="383.8,112.3 413.9,129.5 413.9,131.8 383.8,114.6 "/>
<polygon id="XMLID_44_" class="st1" points="383.8,119.5 405.9,132.2 405.9,134.5 383.8,121.8 "/>
<path class="st9" d="M91,305.6c0-0.1,0-0.2,0-0.3l-0.2-8.9l-18.7-0.1l-0.8-0.5c-1.7-1-4.5-1-6.2,0l-0.9,0.4l-23.3-0.1l0.1,10.7
	c0,1,0.5,1.8,1.3,2.3l20.5,12c1.7,1,4.5,1,6.2,0l21-12c0.6-0.3,0.9-0.9,0.9-1.6L91,305.6z"/>
<path id="XMLID_38_" class="st8" d="M69.1,282.8c-1.7-1-4.5-1-6.2,0l-20.6,11.8c-1.7,1-1.7,2.6,0,3.6L62.8,310c1.7,1,4.5,1,6.2,0
	l20.4-11.8c1.7-1,1.7-2.6,0-3.6L69.1,282.8z"/>
<path id="XMLID_34_" class="st10" d="M65.4,303l-2.8-4.2c-0.1-0.1-0.2-0.1-0.3-0.2l-6.6-1.5c-0.3-0.1-0.4-0.3-0.2-0.5l4.9-2.3
	c0.1,0,0.1-0.1,0.1-0.2l-1-4.3c0-0.2,0.3-0.3,0.6-0.2l5.9,2.8c0.1,0.1,0.3,0.1,0.4,0.1l6-1.1c0.3-0.1,0.6,0.1,0.6,0.3l-1.3,4
	c0,0.1,0,0.2,0.1,0.2l4.7,3.6c0.2,0.2,0.1,0.4-0.2,0.4l-6.7-0.3c-0.1,0-0.2,0-0.3,0.1l-3.1,3.3C65.9,303.2,65.5,303.2,65.4,303z"/>
<path class="st9" d="M76.8,347.8c0-0.1,0-0.2,0-0.3l-0.2-9.6l-20.1-0.1l-0.9-0.5c-1.8-1.1-4.9-1.1-6.7,0l-1,0.5l-25-0.2l0.1,11.5
	c0,1,0.5,2,1.4,2.5l22.1,12.9c1.8,1.1,4.9,1.1,6.7,0l22.6-12.9c0.6-0.3,1-1,1-1.7L76.8,347.8z"/>
<path id="XMLID_548_" class="st8" d="M53.2,323.3c-1.8-1.1-4.9-1.1-6.7,0l-22.1,12.6c-1.8,1.1-1.9,2.8,0,3.9l22.1,12.8
	c1.8,1.1,4.9,1.1,6.7,0l22-12.7c1.8-1.1,1.8-2.8,0-3.9L53.2,323.3z"/>
<path id="XMLID_18_" class="st10" d="M55.5,343.4c0,0-0.4,0-0.6,0l-12.7-1.1l-0.5-8.7c0-1.1,0.5-2.1,1.6-2.8
	c2.3-1.5,6.2-1.1,8.7,0.7c1.3,1,1.9,2.1,1.9,3.2c1.6,0.1,3.2,0.7,4.5,1.6c2.5,1.9,2.6,4.6,0.3,6.1C57.9,343.1,56.7,343.4,55.5,343.4
	z"/>
<path class="st6" d="M133.1,332.7c0-0.1,0-0.2,0-0.3l-0.2-8.8l-18.5-0.1l-0.8-0.5c-1.7-1-4.5-1-6.2,0l-0.9,0.4l-23-0.1l0.1,10.6
	c0,1,0.5,1.8,1.3,2.3l20.3,11.9c1.7,1,4.5,1,6.2,0l20.8-11.9c0.6-0.3,0.9-0.9,0.9-1.6L133.1,332.7z"/>
<path id="XMLID_453_" class="st5" d="M111.4,310.1c-1.7-1-4.5-1-6.2,0l-20.4,11.6c-1.7,1-1.7,2.6,0,3.6l20.4,11.8c1.7,1,4.5,1,6.2,0
	l20.3-11.7c1.7-1,1.7-2.6,0-3.6L111.4,310.1z"/>
<path id="XMLID_15_" class="st3" d="M120.3,325.5c-0.4-2.2-2.6-4.6-6.1-6.5c-3.3-1.8-6.8-2.8-10-2.8c-3,0-5.4,0.9-6.9,2.5
	c-0.9,1-1.3,2.2-1.1,3.5c0.4,2.3,2.7,4.9,6.2,6.8c2.2,1.2,4.1,1.9,6.1,2.4l0.4,0.1l0.2-1.7l-0.3-0.1c-1.5-0.3-3.3-1-5-2
	c-2.8-1.5-4.7-3.4-4.9-5.2c-0.2-0.9,0.1-1.8,0.8-2.5c1.2-1.3,3.1-2,5.5-2c2.5,0,5.3,0.8,7.8,2.1c2.8,1.5,4.4,3.2,4.7,4.8
	c0.1,0.8-0.1,1.6-0.8,2.3c-0.8,0.8-2,1.3-3.3,1.3c-0.8,0-1.5-0.2-2.1-0.5c-0.3-0.2-0.5-0.3-0.5-0.5c0-0.1,0.1-0.4,1.1-1l3.9-2.4
	l-0.4-0.3c-0.7-0.7-1.9-1.5-3.1-2.1c-2.2-1.2-4.5-1.8-6.7-1.8c-1.9,0-3.4,0.5-4.3,1.5c-0.5,0.5-0.6,1.1-0.5,1.7
	c0.2,0.9,1,1.9,2.2,2.5c1.5,0.8,2.9,1.2,4.4,1.2c0.2,0,0.5,0,0.7,0c-0.1,0.2-0.1,0.4-0.1,0.6c0.1,0.9,1.1,1.6,1.7,1.9
	c1.4,0.8,3,1.2,4.6,1.2c1.9,0,3.5-0.6,4.6-1.8C120.2,327.8,120.5,326.7,120.3,325.5z M104.2,323.6c0-0.2,0-0.4,0.2-0.5
	c0.6-0.6,1.6-1,2.9-1c1.3,0,2.7,0.4,4,1c0.3,0.2,0.7,0.4,0.9,0.6l-1.7,1c-0.6,0.4-1.5,0.6-2.6,0.6c-1,0-2-0.2-2.7-0.6
	C104.6,324.3,104.2,323.9,104.2,323.6z"/>
<path id="XMLID_512_" class="st10" d="M314.9,109.6l-1,0.8H305l-1-0.9c-2.8-2.6-4.4-6.2-4.4-10.1v-3.8h20.1v3.4
	C319.8,103.2,318,107,314.9,109.6z"/>
<path id="XMLID_511_" class="st11" d="M312.2,113.2h-5.7c-0.9,0-1.7-0.8-1.7-1.7v-1.2h9.1v1.2C313.9,112.4,313.2,113.2,312.2,113.2z
	"/>
<path id="XMLID_510_" class="st12" d="M316.8,91.6c-3.9-2.3-10.3-2.3-14.2,0c-3.9,2.3-3.9,5.9,0,8.2c3.9,2.3,10.3,2.3,14.2,0
	C320.7,97.6,320.7,93.9,316.8,91.6z"/>
<path id="XMLID_509_" class="st13" d="M309.7,58c-10.1,0-18.4,8.2-18.4,18.4c0,6.4,3.3,12.1,8.3,15.4v4.2l0,0c0.1,1.4,1.1,2.9,3,4
	c3.9,2.2,10.3,2.2,14.1,0c1.9-1.1,2.8-2.5,2.9-3.9h0.1v-4.2c5-3.3,8.3-8.9,8.3-15.4C328.1,66.2,319.9,58,309.7,58z"/>
<path id="XMLID_508_" class="st3" d="M299.4,78.4c0-6.6,5.4-12,12-12c6.1,0,5.7-5.1-2.2-5.1c-7.8,0-14.2,6.3-14.2,14.2
	C295.1,80.4,299.4,82.6,299.4,78.4z"/>
<path id="XMLID_507_" class="st14" d="M316.8,101.4c-3.9,2.2-10.3,2.3-14.1,0c-1.9-1.1-2.9-2.5-3-4v1.4c0.1,1.4,1.1,2.9,3,4
	c3.9,2.2,10.3,2.2,14.1,0c1.9-1.1,2.8-2.5,2.9-3.9h0.1v-1.4h-0.1C319.6,98.9,318.7,100.3,316.8,101.4z"/>
<path id="XMLID_506_" class="st14" d="M316.8,105.4c-3.9,2.2-10.3,2.3-14.1,0c-1.1-0.6-1.9-1.4-2.4-2.2c0.3,0.9,0.6,1.8,1,2.6
	c0.4,0.4,0.9,0.7,1.4,1c3.9,2.2,10.3,2.2,14.1,0c0.4-0.3,0.8-0.5,1.2-0.8c0.5-0.9,0.9-1.8,1.2-2.8
	C318.7,104,317.9,104.8,316.8,105.4z"/>
<g class="st15">
	<path class="st4" d="M309.7,56.5C309.7,56.5,309.6,56.5,309.7,56.5c-0.8,0-1.5-0.7-1.5-1.5l0.1-11.5c0-0.8,0.7-1.5,1.5-1.5
		c0,0,0,0,0,0c0.8,0,1.5,0.7,1.5,1.5L311.2,55C311.1,55.8,310.5,56.5,309.7,56.5z"/>
</g>
<g class="st15">
	<path class="st4" d="M320.6,59.4c-0.3,0-0.5-0.1-0.8-0.2c-0.7-0.4-1-1.3-0.5-2l5.8-9.9c0.4-0.7,1.3-1,2-0.5c0.7,0.4,1,1.3,0.5,2
		l-5.8,9.9C321.6,59.1,321.1,59.4,320.6,59.4z"/>
</g>
<g class="st15">
	<path class="st4" d="M328.7,67.4c-0.5,0-1-0.3-1.3-0.8c-0.4-0.7-0.2-1.6,0.6-2l10-5.7c0.7-0.4,1.6-0.2,2,0.6c0.4,0.7,0.2,1.6-0.6,2
		l-10,5.7C329.2,67.4,328.9,67.4,328.7,67.4z"/>
</g>
<g class="st15">
	<path class="st4" d="M290.8,67.3c-0.3,0-0.5-0.1-0.8-0.2l-9.8-5.9c-0.7-0.4-0.9-1.3-0.5-2.1c0.4-0.7,1.3-0.9,2.1-0.5l9.9,5.9
		c0.7,0.4,0.9,1.3,0.5,2.1C291.8,67,291.4,67.3,290.8,67.3z"/>
</g>
<g class="st15">
	<path class="st4" d="M298.9,59.3c-0.5,0-1-0.3-1.3-0.8l-5.6-10c-0.4-0.7-0.1-1.6,0.6-2c0.7-0.4,1.6-0.1,2,0.6l5.6,10
		c0.4,0.7,0.1,1.6-0.6,2C299.4,59.2,299.2,59.3,298.9,59.3z"/>
</g>
<path id="XMLID_90_" class="st10" d="M200.6,333.7c-1.5-0.8-3.8-0.8-5.3,0l-76.7,43.1c-0.3,0.2-0.5,0.5-0.5,0.8v1.5
	c0,0.6,0.3,1.2,0.9,1.5l49.4,28.5c1.5,0.8,3.8,0.8,5.3,0l75.7-43.9c0.8-0.5,1.3-1.3,1.3-2.2l0-1.1L200.6,333.7z"/>
<path id="XMLID_89_" class="st16" d="M200.6,331.8c-1.5-0.8-3.8-0.8-5.3,0l-76.1,43.9c-1.5,0.8-1.5,2.2,0,3l49.2,28.4
	c1.5,0.8,3.8,0.8,5.3,0l75.9-44c1.5-0.8,1.4-2.2,0-3.1L200.6,331.8z"/>
<polygon id="XMLID_88_" class="st10" points="192.2,338.3 223.6,356.4 219.1,359 187.9,340.9 "/>
<polygon id="XMLID_87_" class="st9" points="184.1,343 230.4,369.6 228.1,370.9 181.8,344.4 "/>
<polygon id="XMLID_86_" class="st9" points="175.8,347.7 222.2,374.3 219.8,375.6 173.6,349 "/>
<polygon id="XMLID_85_" class="st9" points="167.6,352.3 213.9,378.9 211.6,380.3 165.3,353.7 "/>
<polygon id="XMLID_84_" class="st9" points="159.3,357 205.7,383.6 203.3,385 157.1,358.4 "/>
<polygon id="XMLID_83_" class="st9" points="151.1,361.7 197.4,388.3 195.1,389.6 148.8,363.1 "/>
<polygon id="XMLID_82_" class="st9" points="142.8,366.4 189.2,393 186.8,394.3 140.6,367.7 "/>
<polygon id="XMLID_81_" class="st9" points="134.6,371 159,385 156.6,386.3 132.3,372.4 "/>
<path id="XMLID_357_" class="st10" d="M409.1,351.2c-8.6-5-22.7-5-31.3,0c-8.6,5-8.6,13.1,0,18.1c8.6,5,22.7,5,31.3,0
	C417.7,364.3,417.7,356.1,409.1,351.2z"/>
<path id="XMLID_356_" class="st8" d="M409.1,348.5c-8.6-5-22.7-5-31.3,0c-8.6,5-8.6,13.1,0,18.1c8.6,5,22.7,5,31.3,0
	C417.7,361.6,417.7,353.5,409.1,348.5z"/>
<path id="XMLID_353_" class="st10" d="M402.5,364l-19.4-3.5c-1.6-0.6-2.4-1.7-1.6-2.2l15.2-7.3c0.8-0.4,2.8,0.3,3.5,1.2l4.2,10.8
	C405.1,364,404.1,364.6,402.5,364l-19.4-3.5c-1.6-0.6-2.4-1.7-1.6-2.2l15.2-7.3c0.8-0.4,2.8,0.3,3.5,1.2l4.2,10.8
	C405.1,364,404.1,364.6,402.5,364z"/>
<ellipse id="XMLID_309_" class="st4" cx="320.5" cy="406.2" rx="21.3" ry="12.3"/>
<path id="XMLID_308_" class="st5" d="M335.6,394.9c-8.3-4.8-21.9-4.8-30.2,0c-8.3,4.8-8.3,12.6,0,17.4c8.3,4.8,21.9,4.8,30.2,0
	C343.9,407.5,343.9,399.7,335.6,394.9z"/>
<path id="XMLID_306_" class="st4" d="M321.5,409.8c-1.7,0.8-4.5,0.6-6.1-0.3c-1.7-0.9-1.6-2.3,0.1-3.1c0.3-0.1,0.7-0.2,1.1-0.3
	l-1.1-3.4c-1.1-0.1-2.1-0.3-3-0.8c-1.7-0.9-1.6-2.3,0.1-3.1c1.7-0.8,4.5-0.6,6.1,0.3c0.8,0.5,1.2,1.1,1.2,1.6l6.5,1
	c0.2-0.2,0.5-0.4,0.8-0.6c1.7-0.8,4.5-0.6,6.1,0.3c1.7,0.9,1.6,2.3-0.1,3.1c-1.7,0.8-4.5,0.6-6.1-0.3c-0.8-0.4-1.2-1-1.2-1.5l-6.6-1
	c-0.2,0.2-0.4,0.3-0.8,0.5c-0.3,0.2-0.7,0.3-1.2,0.3l1.1,3.4c1.1,0.1,2.2,0.3,3,0.8C323.2,407.6,323.2,409,321.5,409.8z"/>
<ellipse id="XMLID_152_" class="st6" cx="248.3" cy="319.8" rx="21.3" ry="12.3"/>
<path id="XMLID_151_" class="st5" d="M263.4,308.5c-8.3-4.8-21.9-4.8-30.2,0s-8.3,12.6,0,17.4c8.3,4.8,21.9,4.8,30.2,0
	C271.7,321.1,271.7,313.3,263.4,308.5z"/>
<path id="XMLID_149_" class="st4" d="M249.3,323.4c-1.7,0.8-4.5,0.6-6.1-0.3c-1.7-0.9-1.6-2.3,0.1-3.1c0.3-0.1,0.7-0.2,1.1-0.3
	l-1.1-3.4c-1.1-0.1-2.1-0.3-3-0.8c-1.7-0.9-1.6-2.3,0.1-3.1c1.7-0.8,4.5-0.6,6.1,0.3c0.8,0.5,1.2,1.1,1.2,1.6l6.5,1
	c0.2-0.2,0.5-0.4,0.8-0.6c1.7-0.8,4.5-0.6,6.1,0.3c1.7,0.9,1.6,2.3-0.1,3.1c-1.7,0.8-4.5,0.6-6.1-0.3c-0.8-0.4-1.2-1-1.2-1.5l-6.6-1
	c-0.2,0.2-0.4,0.3-0.8,0.5c-0.3,0.2-0.7,0.3-1.2,0.3l1.1,3.4c1.1,0.1,2.2,0.3,3,0.8C251,321.2,251,322.6,249.3,323.4z"/>
<g>
	<ellipse class="st0" cx="236.7" cy="263.2" rx="26.4" ry="15.3"/>
	<g>
		<path class="st17" d="M247.3,84v10.7c0,0-22.7,16.7-23.8,7.2c-1.1-9.4-1.8-23.4-1.8-23.4L247.3,84z"/>
		<g>
			<path class="st18" d="M241.5,248.7c7.4,3.6,10.3,9.6,11.3,12.4c0.4,1.1-0.3,2.2-1.4,2.4s-2.8,0-5.4-0.8
				c-5.9-1.8-11.8-8.9-12.1-9.8C233.8,253,231.5,243.8,241.5,248.7z"/>
			<path class="st18" d="M224,256.6c0,0-0.7,1.3,0,8.6c0.4,4.4,2.9,7.4,4.8,9.1c1.2,1.1,3.1,0.8,3.8-0.7c1.2-2.3,2.7-5.7,2.2-8.4
				c-0.7-4.3-2.9-9.5-2.9-9.5L224,256.6z"/>
			<path class="st5" d="M253.9,160c0,21.9-9.4,83-9.7,88.6s-9.8,5.7-9.8,5.7s0.5,3.9-6.2,4.6c-6.8,0.8-6.5-2.7-6.5-2.7
				c-0.5-11.5-3.2-59.3-4-69.5c-0.8-10.2,0-19.5,0-19.5L253.9,160z"/>
			<g>
				<path class="st19" d="M254.1,124.4c-1.2,1.8-0.9,4.2,0.6,5.6c5.8,5.6,19.2,18.4,20.8,18c2-0.5,2.5-2.2,2.5-2.2L262,126.6
					l-4.6-7.2L254.1,124.4z"/>
				<path class="st11" d="M249.7,124.9c0,0,4.2,3.9,10.9,0.6c2.2-1.1,0.2-14.4-2.3-25.1s-9.9-10.5-9.9-10.5L249.7,124.9z"/>
				<path class="st10" d="M253.3,93.6c0.5,3.5-1.9,8.4-0.4,12.7c1.5,4.3,5.2,10.9,3.1,14.4c-2.1,3.6-4.9,5.7-4.9,5.7
					c-0.2,5.5,2.5,24.7,2.8,29.1c0.3,4.5,1.8,8.6-6.2,14.8c-8,6.1-18.8,6-25.1,2.7c-6.3-3.3-5.4-7.5-4.8-15.2
					c0.6-7.7,1.4-16,1.6-23.1c0.2-7.1-11.1-28.7-6.6-32.5c3.9-3.3,27.5-10.3,33.8-12.1c1.3-0.4,2.7-0.3,4,0.2
					C251.9,90.9,253,91.8,253.3,93.6z"/>
				<path class="st3" d="M233.2,91.8c-4.9,0.6-8.5,4.3-8,8.2c0.5,3.9,4.9,6.5,9.8,5.9c4.9-0.6,8.5-4.3,8-8.2
					C242.5,93.8,238.1,91.2,233.2,91.8z"/>
				<path class="st19" d="M233.5,93.8c-3.5,0.4-6.1,3.1-5.7,5.8c0.4,2.8,3.5,4.7,7,4.2s6.1-3.1,5.7-5.8
					C240.1,95.2,237,93.4,233.5,93.8z"/>
				<path class="st19" d="M237.5,91.1l1.3,7.7l-8.5-2.3c0,0,0.7-7.6,1.5-9.4c0.8-1.8,5.1,1.7,5.1,1.7
					C239.2,89.7,237.5,91.1,237.5,91.1z"/>
				<ellipse class="st19" cx="237.6" cy="79.8" rx="12.6" ry="12.6"/>
				<path class="st20" d="M238.1,89.8c0.2,0.7-0.6,1.3-0.6,1.3l1,5.8c0,0-6.6-1.9-7.4-6.3c0.1-0.4,0.1-0.9,0.2-1.3
					C232.2,88.2,235.5,88.9,238.1,89.8z"/>
				<ellipse class="st19" cx="237.6" cy="79.8" rx="12.6" ry="12.6"/>
				<polygon class="st19" points="216,137.2 212.8,167.6 207.9,167.1 206.5,133.3 				"/>
				<path class="st11" d="M218.6,148.1L218.6,148.1c0.4-4.6,0.7-9.2,0.8-13.4c0.1-2.5-1.3-6.8-2.9-11.5l1.4-15.9
					c0,0,0.4,11.6,2.1,19.5c0.3,1.5,2.5,2.5,2.8,3.7C224.3,137.7,218.6,148.1,218.6,148.1z"/>
				<path class="st9" d="M218.2,116c-0.1,5.6-0.9,21.3-2.1,24.5s-4.5,2.1-8.5,0.5c-4-1.6-2.3-13.7-0.1-25.9s6.2-13.6,6.2-13.6
					C218.5,102.6,218.3,110.4,218.2,116z"/>
				<path class="st19" d="M271.5,145.4c2.4,2.2,5.5,9.4,6.4,9.4c0.9,0,0.2-1.6,0.9-3.2c0.7-1.7,5,5.5,5.7,5s-0.3-4.5-1.5-6.3
					c-0.6-0.8-1.2-2-2.5-3.4c-1.5-1.7-3.7-2.5-3.7-2.5S269.1,143.2,271.5,145.4z"/>
			</g>
			<path class="st6" d="M239,179.7l-1.8,74.3l0,0c-1.5,0.3-2.7,0.3-2.7,0.3L239,179.7z"/>
		</g>
		<g>
			<path class="st10" d="M228.7,213.3L228.7,213.3c0.4-0.2,0.6-0.6,0.6-1.3l0-24.7c0-1.2-0.7-2.6-1.6-3.1l-31.3-18.1
				c-0.4-0.2-0.8-0.2-1.1-0.1l0,0l-1.5,0.9l1.6,2.1l0,22.6c0,1.2,0.7,2.6,1.6,3.1l27.7,16l2.6,3.4L228.7,213.3z"/>
			<path class="st21" d="M228.9,185.6c-0.3-0.6-0.7-1.1-1.2-1.4l-31.3-18.1c-0.4-0.2-0.8-0.2-1.1-0.1l0,0l-1.5,0.9l1.6,2.1l0,12.3
				l10.8,18.7l2,1.1L228.9,185.6z"/>
			<path class="st21" d="M196.9,166.4l-0.6-0.3c-0.4-0.2-0.8-0.2-1.1-0.1l0,0l-1.5,0.9l0.7,0.9L196.9,166.4z"/>
			<path class="st10" d="M224.8,186.3l1.5,2.6l3.1-1.8c-0.1-1-0.6-2.1-1.3-2.6L224.8,186.3z"/>
			<path class="st9" d="M227.8,188.2l0,24.7c0,1.2-0.7,1.7-1.6,1.2l-31.3-18.1c-0.9-0.5-1.6-1.9-1.6-3.1l0-24.7
				c0-1.2,0.7-1.7,1.6-1.2l31.3,18.1C227.1,185.6,227.8,187,227.8,188.2z"/>
		</g>
		<polygon class="st3" points="219.8,189.9 218.3,189.1 218.3,201.9 219.8,202.8 		"/>
		<polygon class="st3" points="216.3,187.9 214.8,187.1 214.8,199.9 216.3,200.8 		"/>
		<polygon class="st3" points="212.8,185.9 211.3,185.1 211.3,197.9 212.8,198.7 		"/>
		<path class="st19" d="M213.2,163.9c-0.6,3.7,1.6,12.3,0.8,12.9c-0.8,0.6-1-1.1-2.8-2.1c-1.8-1-0.8,9.1-1.8,9.2s-2.4-4.1-2.6-6.6
			s1.1-10.4,1.1-10.4S213.8,160.1,213.2,163.9z"/>
		<path class="st20" d="M233.3,74.3l16.4,2.2c0.3,1.3,0.5,2.6,0.4,4c0,0.4-0.1,0.8-0.1,1.2c-0.1,0.1-1.3,1.4-7.6-0.8
			C235.9,78.6,233.3,74.3,233.3,74.3z"/>
		<path class="st17" d="M250.3,78.5c-5,1.4-12.8-1.1-15.9-2.2c-0.6-0.2-1.3,0.1-1.5,0.8c-0.2,0.7-0.8,1.5-2.2,1.6
			c-2.8,0.1-3.4,2.9-2,4.8c0.6,0.8,1.2,1.1,1.8,1.1c0.7,0,1.2,0.7,1.2,1.3l-0.5,4.8c0,0-0.3,0.9-2.7,2.5c-0.2,0.1-0.5,0.2-0.7,0.3
			c-4.3-4.6-6.6-10.8-5.8-17.2c1.1-9.4,6.2-13.5,12.2-14.4c9.7-1.5,15.1,4.8,16.5,6.1C252.2,69.2,256.7,76.7,250.3,78.5z"/>
		<path class="st3" d="M239.7,87.7c0,0,0.4,2.3,3.1,1.5s4.5-3.6,4.5-3.6l-3.9,1.1L239.7,87.7z"/>
		<polygon class="st21" points="214.1,177.3 212.4,176.7 211.2,174.7 214.5,176.6 		"/>
	</g>
</g>
<g>
	
		<ellipse transform="matrix(0.1188 -0.9929 0.9929 0.1188 -62.1992 618.4589)" class="st0" cx="317.3" cy="344.3" rx="19.2" ry="33.2"/>
	<g>
		<path class="st18" d="M298.3,331.8c-2.4,0.7-4.2,3.1-4.3,5.9c-0.1,1.3,0,2.5,0.2,3.1c0.5,1.6,2.7,4,6.7,3s13.4-8,14.4-13.2
			C317,320.9,304.7,329.9,298.3,331.8z"/>
		<path class="st18" d="M318.9,350.5c0,0-1.6,5.5-1.3,6.6c0.3,1.1,2.7,3.6,6.7,3.6c4,0,15.8-2.6,19.2-9.7
			c5.3-11.1-21.9-1.7-21.9-1.7L318.9,350.5z"/>
		<path class="st5" d="M340.6,262.5l-9.6,87.4c-0.5,3-2.7,5.4-5.5,5.5c-0.3,0-0.7,0-1.1,0c-2.7-0.1-4.2-1.4-4.9-2.8
			c-0.6-1.1-0.8-2.4-0.7-3.7l3.3-37.4l-1.6-34l-14.7,58c-0.3,1.6-1.3,3-2.6,3.6c-0.9,0.5-2.1,0.8-3.6,0.5c-2.2-0.3-3.6-1.7-4.4-2.9
			c-0.6-0.9-0.9-2.1-0.7-3.3l7.3-35.1l6.5-45.1L340.6,262.5z"/>
		<path class="st19" d="M338.6,183l-2.3,7.8c0,0-0.4,2.7,2.6,3.8s4.1-0.7,4.1-0.7l2.4-8.8L338.6,183z"/>
		<path class="st19" d="M355.9,180.6c-3,6.6-10.1,9.7-15.9,7c-5.8-2.7-8.2-10.1-5.2-16.7c3-6.6,10.1-9.7,15.9-7
			C356.5,166.6,358.8,174.1,355.9,180.6z"/>
		<path class="st10" d="M338,191.1c-0.2-0.1-11.9-9.8-17.6-1.8c-9.3,13-5.6,29.6-12.5,63.8c-1.1,5.7,6.7,10.2,10.3,12.9
			c3.2,2.4,7,4.1,10.9,4.6c3.9,0.5,11.9-2.1,12.3-7.3c1.6-23.9,6.1-43.7,10.3-62.9C351.9,200.5,349.8,197.6,338,191.1z"/>
		<path class="st6" d="M320.6,277.5l-14.7,58c-0.3,1.6-1.3,3-2.6,3.6c-0.2,0.1-0.5,0.2-0.7,0.3c1.7-1,12.3-49.9,13.8-55.3
			C317.9,278.7,320.6,277.5,320.6,277.5z"/>
	</g>
	<polygon class="st19" points="378.2,203.2 391.3,183.5 388.2,181 375.3,195.7 	"/>
	<polygon class="st19" points="311,172.6 319,149.8 323.1,150.3 319.2,169.6 	"/>
	<path class="st10" d="M351.9,200.5c0,0,11.3,6.1,23-5.5c1-1,2.9-0.7,3.2,0.6c0.7,2.2,1.4,5.5-0.3,8.3c-7.7,12.5-28.6,9.5-34.6,16.3
		C337.3,227,351.9,200.5,351.9,200.5z"/>
	<path class="st10" d="M330.4,187.3c0,0-9.9-0.4-10.3-9c-0.2-4.4-0.1-7.1,0-8.6c0.1-1-0.7-1.9-1.7-1.9c-2.4,0-6.1,0.3-6.8,1.8
		c-1,2.3-3.8,13.6,3.8,32.4C320.4,214.2,330.4,187.3,330.4,187.3z"/>
	<path class="st19" d="M319,149.8l0.4-2.7c0.1-0.9,0.5-1.8,1.1-2.6l3.2-4.1l0.8-0.8c0.8-0.7,1.9-0.8,2.8-0.1l0.6,0.5
		c0.7,0.6,1.1,1.5,0.9,2.5l-1.9,3.6l1.8-0.1c0.3,0,0.7,0.2,0.7,0.6l0,0c0,0.3-0.2,0.6-0.5,0.6l-3,0.8l-3.1,3.4L319,149.8z"/>
	<path class="st19" d="M391.3,183.6l1.5-2.2c0.5-0.8,0.9-1.7,1-2.6l0.5-5.2l0-1.1c0-1.1-0.9-1.9-1.9-2l-0.7-0.1
		c-0.9-0.1-1.8,0.4-2.4,1.2l-1.1,3.9l-1.2-1.3c-0.2-0.3-0.6-0.3-0.9,0l0,0c-0.2,0.2-0.3,0.5-0.1,0.8l1.6,2.7l-0.1,5.1L391.3,183.6z"
		/>
	<path class="st22" d="M342,217.4c-1.6,4.6,0.4,40.7-8.1,52.8c3.6-1,7.3-3.3,7.6-6.8c1.1-17.1,3.7-32.1,6.7-46.2
		c6.3-2.3,15.7-3,22.8-6.9C363.7,211.9,343.5,213.3,342,217.4z"/>
	<path class="st3" d="M333.8,188.4l2-1.6c0,0,2.5,3.3,4.8,4.1c0,0,2.7,1.1,4.1,1.4l0.8,3.3C345.3,195.5,336.2,193.7,333.8,188.4z"/>
	<path class="st18" d="M347.6,179.9c0.5,0,1-0.1,1.3-0.5c0.6-0.6,0.6-3.9,2.2-4.2c2.4-0.5,7.5,3,9.1-5.3c0.8-4.3-1.1-5.7-0.9-8.1
		c0,0,0,1.2-11-0.9c-11.1-2.1-15.9,7.4-16.7,12.1c-0.8,4.7,0.5,12.7,8,14.7c1.2,0.3,7.1-3.3,7-3.9c-0.1-0.6-2.1-0.8-1.6-2.4
		C345.4,180.1,346.3,179.7,347.6,179.9z"/>
</g>
<g>
	<path id="XMLID_60_" class="st2" d="M374,219.9l1-1.8c1.1-1.9,3.5-2.6,5.4-1.5l46.3,26.8c3,1.7,5.4,5.9,5.4,9.4v31.1
		c0,1.9-1.5,3.5-3.5,3.6l-2.2,0.1c-0.7,0-1.3-0.1-1.9-0.5l-45.2-26.1c-3-1.7-5.4-5.9-5.4-9.4V219.9z"/>
	<path id="XMLID_53_" class="st8" d="M373.3,220.8c0-3.5,2.4-4.9,5.4-3.1l44.9,25.9c3,1.7,5.4,6,5.4,9.4v30.4c0,3.5-2.4,4.9-5.4,3.1
		l-44.9-25.9c-3-1.7-5.4-6-5.4-9.4V220.8z"/>
	<polygon id="XMLID_43_" class="st1" points="377.4,223.3 423.9,249.8 423.9,252.1 377.4,225.5 	"/>
	<polygon id="XMLID_41_" class="st1" points="377.4,230.5 423.9,257.1 423.9,259.4 377.4,232.8 	"/>
	<polygon id="XMLID_40_" class="st1" points="391.2,245.7 423.9,264.4 423.9,266.6 391.2,248 	"/>
	<polygon id="XMLID_22_" class="st1" points="386.5,243 390.1,245 390.1,247.3 386.5,245.3 	"/>
	<polygon id="XMLID_20_" class="st1" points="377.4,237.8 385.1,242.2 385.1,244.5 377.4,240.1 	"/>
	<polygon id="XMLID_14_" class="st1" points="408.9,263 423.9,271.6 423.9,273.9 408.9,265.3 	"/>
	<polygon id="XMLID_13_" class="st1" points="377.4,245 407.4,262.3 407.4,264.6 377.4,247.3 	"/>
	<polygon id="XMLID_7_" class="st1" points="377.4,252.3 399.4,265 399.4,267.2 377.4,254.6 	"/>
</g>
</svg>
