<?xml version="1.0" encoding="utf-8"?>
<!-- Generator: Adobe Illustrator 25.2.3, SVG Export Plug-In . SVG Version: 6.00 Build 0)  -->
<svg version="1.1" id="Calque_1" xmlns="http://www.w3.org/2000/svg" xmlns:xlink="http://www.w3.org/1999/xlink" x="0px" y="0px"
	 viewBox="0 0 500 500" style="enable-background:new 0 0 500 500;" xml:space="preserve">
<style type="text/css">
	.st0{opacity:5.000000e-02;}
	.st1{fill:#6884A4;}
	.st2{opacity:0.2;}
	.st3{fill:#EDECEE;}
	.st4{opacity:0.6;}
	.st5{fill:#EF847A;}
	.st6{opacity:0.3;}
	.st7{fill:#F7BB99;}
	.st8{fill:#315271;}
	.st9{opacity:0.4;}
	.st10{fill:#FFD662;}
	.st11{fill:#E28C8B;}
	.st12{opacity:0.1;}
	.st13{fill:#60A0CE;}
	.st14{opacity:0.7;fill:#FFFFFF;}
	.st15{fill:#A0CA7B;}
	.st16{fill:#4AB492;}
	.st17{fill:#B3A5D0;}
	.st18{opacity:0.15;}
</style>
<g>
	<g>
		<path class="st0" d="M364,255.3l-69.7-40.2c-62.1-35.9-162.8-35.8-224.9,0.1C7.3,251,7.2,309.2,69.3,345c0.1,0.1,0.2,0.1,0.2,0.1
			l0,0l69.4,40.1c62.1,35.9,162.8,35.8,224.9-0.1C426,349.3,426.1,291.1,364,255.3z"/>
		<path class="st1" d="M289.2,193.6L250.5,296v24.5l177.4-22.4v-24.5C412.8,233.7,358.4,202.3,289.2,193.6z"/>
		<polygon class="st2" points="250.5,296 250.5,320.5 427.9,298.1 427.9,273.7 		"/>
		<path class="st3" d="M410.5,296L410.5,296c-0.1-6.6-1.3-13.2-3.7-19.7L266.7,294l17.9-47.4v-40.8c-51.5-6.5-107.4,1.7-147.4,24.8
			c-31.3,18.1-46.9,41.7-46.8,65.4l0,0v23.5c0,0,0,0.1,0,0.1v0l0,0c0.1,23.6,15.7,47.3,47,65.3c62.6,36.1,164,36.2,226.5,0.1
			c31.3-18.1,46.7-41.7,46.6-65.4h0.1V296z"/>
		<path class="st4" d="M250.6,295.9l30.4-39.7l3.7-9.7v-40.8c-51.4-6.5-107.2,1.7-147.2,24.7L250.6,295.9z"/>
		<path d="M410.4,296c0.1,23.7-15.4,47.4-46.6,65.4c-62.5,36.1-163.9,36-226.5-0.1c-31.3-18.1-46.9-41.7-47-65.3l0,0v23.5
			c0,0,0,0.1,0,0.1v0c0.1,23.6,15.7,47.3,47,65.3c62.6,36.1,164,36.2,226.5,0.1c31.3-18.1,46.7-41.7,46.6-65.4h0.1L410.4,296
			L410.4,296z"/>
		<path class="st1" d="M289.2,169.1l-38.7,102.4V296l177.4-22.4v-24.5C412.8,209.3,358.4,177.8,289.2,169.1z"/>
		<polygon class="st2" points="250.5,271.6 250.5,296 427.9,273.7 427.9,249.2 		"/>
	</g>
	<g>
		<path class="st4" d="M190.9,292.1c6.4-8.6,19.6-11.6,16.4-17.5c-2.2-5.8-16.6-11.8-28.6-13.5c-12.4-1.7-17.2,6.9-28.2,5.6
			c-13.4-1.7-23.3,9.3-29.6,14.6c-14,10.6,10.3,27.6,24.1,22.9C160,299.1,179.7,306.9,190.9,292.1z"/>
		<g>
			<g>
				<path class="st5" d="M216.9,134.3c1.1,0.6-5.2,8.2-6.8,7.5C208.6,141.2,214.6,132.9,216.9,134.3z"/>
				<path class="st6" d="M216.9,134.3c1.1,0.6-5.2,8.2-6.8,7.5C208.6,141.2,214.6,132.9,216.9,134.3z"/>
				<g>
					<path class="st7" d="M209.1,130.3c2.7,1.5,6.4,4.9,8.2,4.6c3.1-0.4,1.7-0.3,3.3-0.3c1.6,0,3.2,0.2,5.2,1.1
						c2,0.9,4.4,0.8,4.4,1.9c0.1,1.1-1.3,1.2-1.9,1.4c-0.6,0.1-4-0.6-4.1-0.4c-0.1,0.2,0.8,1.4,1.6,2.3c0.7,1,1.8,1.9,2.9,2.6
						c1.1,0.7,5.1,3.5,4.9,4.4c-0.2,0.9-1.6,0.6-1.6,0.6s0.4,1.4-1.7,1.2c-2.1-0.2-3.6-0.6-3.6-0.6s-0.6,0.6-2,0.3
						c-1.5-0.3-1.5-0.5-1.5-0.5s-0.6,0.7-3.7-0.5c-3.1-1.3-6.9-6.2-9.6-7c-2.7-0.9-4.6-1.8-6-2.8
						C202.9,137.8,205.9,128.5,209.1,130.3z"/>
					<path class="st6" d="M204.3,138.8c1.4,1,3.2,1.8,6,2.8c2.6,0.9,6.5,5.8,9.6,7c3.1,1.3,3.7,0.5,3.7,0.5s0,0.2,1.5,0.5
						c1.5,0.3,2-0.3,2-0.3s1.5,0.4,3.6,0.6c2.1,0.3,1.7-1.2,1.7-1.2s0.1,0,0.3,0c-3.4-0.6-7.7-2.7-9.8-3c-2.9-0.5-6.4-4.5-10.3-7.1
						c-2-1.3-4.6-2.9-7.8-5C203.8,135.7,203.6,138.2,204.3,138.8z"/>
				</g>
				<path class="st3" d="M210.9,139.9c1.3-2.2,3.5-4.2,6-5.6l-30.3-18.4c-0.7-0.5-1.2-1.2-1.3-2.1l-3-33.7c-0.4-4.5-4.2-8-8.8-7.9
					c-4.6,0.1-8.1,4.1-7.6,8.7l4.2,37.7c0.6,5,3.9,9.2,8.6,11l31.3,12.3C210.3,141.2,210.6,140.6,210.9,139.9z"/>
				<path class="st2" d="M210.9,139.9c1.3-2.2,3.5-4.2,6-5.6l-30.3-18.4c-0.7-0.5-1.2-1.2-1.3-2.1l-3-33.7c-0.4-4.5-4.2-8-8.8-7.9
					c-4.6,0.1-8.1,4.1-7.6,8.7l4.2,37.7c0.6,5,3.9,9.2,8.6,11l31.3,12.3C210.3,141.2,210.6,140.6,210.9,139.9z"/>
				<path class="st2" d="M173.6,72.2c-4.6,0.1-8.1,4.1-7.6,8.7l4.2,37.7c0.6,5,3.9,9.2,8.6,11l31.3,12.3c0.2-0.6,0.4-1.2,0.8-1.9
					c0.7-1.2,1.7-2.4,2.9-3.4l-31.4-16.1c-2.3-1.5-2.8-2.8-3.2-6.3l-2.9-33.3v0c-0.3-4.1,0.7-5.9,2.8-6.8
					C177.6,72.9,175.7,72.1,173.6,72.2z"/>
			</g>
			<g>
				<path class="st8" d="M177.4,262.2c0,4.2,5.6,8.9,12.4,11.5c6.9,2.6,9.8,6.6,3.1,8.4c-3.4,0.9-21-3.6-29.1-7.3
					c-3-1.4-2.6-3.9-2.6-4.2c0.1-3.2,2.8-5.6,2.1-9.1C162.6,257.1,177.3,251.4,177.4,262.2z"/>
				<g class="st6">
					<path d="M193,280.4c-3.4,0.9-21-3.6-29.1-7.3c-1.8-0.8-2.3-2-2.5-2.9c0,0.2-0.1,0.3-0.1,0.5c0,0.3-0.5,2.8,2.6,4.2
						c8,3.7,25.6,8.3,29.1,7.3c3.3-0.9,4.2-2.3,3.6-3.8C196.1,279.1,195,279.8,193,280.4z"/>
					<path d="M163.5,260.5c-0.1,0.3-0.1,0.6-0.1,1c0,0.1,0,0.2,0,0.4C163.6,261.4,163.6,261,163.5,260.5z"/>
				</g>
				<path class="st6" d="M175,265.1c1.3-0.5,2.1-0.9,2.7-1.5c-0.1-0.5-0.2-0.9-0.2-1.4c-0.1-10.7-14.8-5-14-0.7
					c0.2,0.9,0.2,1.6,0.1,2.3C166.5,266.1,171.8,266.2,175,265.1z"/>
				<path class="st6" d="M161.4,270.6c0,0.3-0.5,2.8,2.6,4.2c8,3.7,25.6,8.3,29.1,7.3c4-1.1,4.5-3,2.8-4.8c-0.2-0.2-0.4-0.4-0.5-0.5
					c0,0,0,0,0,0c-2.6,3.3-8,2.6-10.7,1.6c-3-1.1-8.7-3.1-12.7-4.2c-4.3-1.2-4-4.3-3.8-6.4c1.5-12.6-0.8-6.1-2.1-9.8c0,0,0,0,0,0
					c-0.4,0.2-0.7,0.5-1,0.8c0,0-0.1,0.1-0.1,0.1c0,0-0.1,0.1-0.1,0.1c-0.2,0.2-0.3,0.3-0.4,0.5c-0.1,0.1-0.2,0.3-0.3,0.4
					c0,0,0,0.1-0.1,0.1c-0.1,0.1-0.1,0.2-0.2,0.3c-0.1,0.2-0.2,0.4-0.3,0.7c0,0,0,0.1,0,0.1c0,0.2-0.1,0.5,0,0.7
					C164.2,265.1,161.5,267.4,161.4,270.6z"/>
			</g>
			<path class="st6" d="M175.1,265.1c1.3-0.5,2.1-0.9,2.7-1.5c-0.1-0.5-0.2-0.9-0.2-1.4c-0.1-10.7-14.8-5-14-0.7
				c0.2,0.9,0.2,1.6,0.1,2.3C166.6,266.1,171.9,266.2,175.1,265.1z"/>
			<path class="st8" d="M130.8,274.3c-0.1,4.2-1.8,16.7,2.9,20.5c4.8,3.8,12.4,4.1,11.1-4c-1.4-8.1-4.4-15.8-3.9-23.5
				C141.5,259.6,131.1,265.3,130.8,274.3z"/>
			<g class="st6">
				<g>
					<path class="st9" d="M130.8,274.3c-0.1,4.2-1.8,16.7,2.9,20.5c4.5,3.6,11.5,4.1,11.2-2.5c-12.5,5-10.7-6.9-10.9-13.7
						c-0.1-2.9,0.2-6.6,1.3-12.3c0.1-0.4,0.1-0.8,0.1-1.1C133.1,266.9,130.9,270.2,130.8,274.3z"/>
				</g>
			</g>
			<path class="st6" d="M134.5,292.8c-4.8-3.8-3-16.3-2.9-20.5c0-1,0.2-2,0.4-2.9c-0.7,1.4-1.1,3.1-1.2,4.9
				c-0.1,4.2-1.8,16.7,2.9,20.5c4.1,3.3,10.4,4,11.1-1.1C143,296.4,138,295.5,134.5,292.8z"/>
			<path class="st6" d="M140.9,267.3c0.5-7.7-9.9-2-10.1,7c0,0.7-0.1,1.8-0.2,3c1.8,1.2,8.2,2.5,10.9-1.1
				C141.1,273.2,140.7,270.2,140.9,267.3z"/>
			<path class="st8" d="M179,142.1l-30.4,5.2l15,115c2.8,2.4,8,2.6,11.2,1.4c1.3-0.5,2.1-0.9,2.7-1.5l0.1,0c0-0.3,0.1-0.6,0.1-1
				L179,142.1z"/>
			<path class="st2" d="M164.1,166c0-4.1-1.2-7.9-3.1-10.9l-0.8-9.7l-11.6,2l0.1,0.9c-7.6,0.5-13.7,8.2-13.7,17.7
				c0,9.8,6.5,17.7,14.5,17.7c1.3,0,2.5-0.2,3.7-0.6l10.3,79.2c1.6,1.3,3.9,2,6.3,2.1l-7.4-90.4C163.5,171.6,164.1,168.9,164.1,166z
				"/>
			<path class="st8" d="M165.2,161.6c0-3.5-0.8-6.7-2.2-9.4l1.1-6.8l-7.5,0c-1.8-1-3.8-1.6-6-1.6c-2.2,0-4.2,0.6-6,1.6l-11.4,0
				L129,270.6c-0.2,3.3,2.1,6.2,5.4,6.8c4.1,0.7,8-2,8.7-6.1l15.9-95.3C162.7,172.9,165.2,167.6,165.2,161.6z"/>
			<path class="st6" d="M171,152.6c-0.4-2.7-0.6-5.7-0.8-9l-10.3,1.8l-1.9,0c0.1,4.3,0.3,8,0.6,10.9
				C163,155.5,167.4,154.3,171,152.6z"/>
			<path class="st2" d="M134.5,276.1l9.6-124.8L163,152l1.1-6.6l-30.9,0.1L129,270.6c-0.2,3.3,2.1,6.2,5.4,6.8c0.1,0,0.1,0,0.2,0
				C134.5,277,134.5,276.5,134.5,276.1z"/>
			<path class="st1" d="M145,75.5c0.6,0.5,1.7,1.3,3.1,2.3c4.9,5,10,8,9.7,32.7c-0.2,18.6,0.1,35,0.8,43.9c-0.7,0.1-1.5,0.2-2.2,0.3
				c5.8-0.8,11.8-2.4,16.4-4.9c-0.6,0.3-1.2,0.6-1.8,0.9c-2.3-15.5,0.4-44.3,0.4-54.2c0-12.9-1.7-18.2-5.1-23.3h0
				c-0.7-1.4-1.6-2.7-2.2-3.5c0.2,0,0.3-0.1,0.5-0.1c-6.9,0.7-14.4,3.1-18.9,4.7c-0.5,0.2-1,0.3-1.5,0.5
				C144.6,75.2,144.8,75.4,145,75.5z"/>
			<path class="st6" d="M178.5,140.2c0-7.5-0.9-15.5-0.6-21.6c0.8-18.3,3.5-20.7,3.5-32.8c0-6.7-1.6-11.1-4.4-13.5
				c-3.2-2.8-8.4-3.2-14-2.6c-0.2,0-0.3,0.1-0.5,0.1c0.6,0.9,1.5,2.1,2.2,3.5h1.7c3.4,5.2,3.4,10.5,3.4,23.3c0,9.9-2.7,40.5-0.4,56
				C174.7,150.1,178.5,144.9,178.5,140.2z"/>
			<path class="st3" d="M158.6,156.3c-6.4,1.1-12.8-0.6-16.8-1.5c-5.6-1.3-9.9-5.2-9.9-10.5c-1.9-14,0.9-14.7,0.9-28.8l-4.5-27.1
				c0-4.5,3.2-7.3,7.1-9.5c2.6-1.5,5.7-2.8,8.9-3.9c0.2,0.3,0.5,0.5,0.6,0.7c0.6,0.5,1.7,1.3,3.1,2.3c4.9,5,10,8,9.7,32.7
				C157.6,129.2,157.8,147.4,158.6,156.3z M180.2,140.2c0-7.5-0.9-15.5-0.6-21.6c0.8-18.3,3.5-20.7,3.5-32.8
				c0-6.7-1.6-11.1-4.4-13.5c-3.2-2.8-8.4-3.2-14-2.6c-0.2,0-0.3,0.1-0.5,0.1c0.6,0.9,1.5,2.1,2.2,3.5h0c3.4,5.2,5.1,10.5,5.1,23.3
				c0,9.9-2.7,40.5-0.4,56C176.4,150.1,180.2,144.9,180.2,140.2z"/>
			<path class="st9" d="M147.3,138.8c0.8-18.3,0-20.4,0-32.5c0-6.7-1.6-11.1-4.4-13.5c-2.2-1.9-5.4-2.7-9.1-2.8
				c0.7-3.5,2.8-6.5,5.9-8.3c3-1.7,6.6-3.2,10.3-4.4c7.1-2.4,21.2-6.8,29.5-3.9c-0.3-0.3-0.6-0.7-0.9-0.9c-7.2-6.2-24.7-0.7-32.9,2
				c-3.7,1.3-7.3,2.7-10.3,4.4c-3.9,2.2-7.1,5-7.1,9.5l4.5,27.1c0,14.1-2.7,14.8-0.9,28.8c0,5.4,4.3,9.3,9.9,10.5
				c0.8,0.2,4.4,1,5.3,1.1C147,150.1,147.1,143.4,147.3,138.8z"/>
			<g>
				<path class="st7" d="M143.7,161c1.4,2.8,2.5,7.6,4.2,8.5c2.8,1.4,1.6,0.7,2.9,1.7c1.3,0.9,2.5,2,3.7,3.8
					c1.2,1.8,3.1,3.1,2.6,4.1c-0.6,1-1.8,0.3-2.3,0.1c-0.6-0.2-3-2.7-3.2-2.6c-0.2,0.1-0.1,1.6,0,2.8c0.1,1.2,0.4,2.6,0.9,3.8
					c0.5,1.2,2.2,5.8,1.6,6.4c-0.6,0.7-1.7-0.4-1.7-0.4s-0.5,1.4-2,0c-1.6-1.4-2.6-2.5-2.6-2.5s-0.8,0.2-1.9-0.9
					c-1-1.1-0.9-1.3-0.9-1.3s-0.9,0.3-2.7-2.5c-1.8-2.8-2.2-9-3.9-11.2c-1.7-2.3-2.8-4-3.4-5.6C134.3,163.6,142,157.6,143.7,161z"/>
				<path class="st6" d="M134.9,165.2c0.6,1.6,1.6,3.3,3.4,5.6c1.7,2.2,2.1,8.4,3.9,11.2c1.8,2.8,2.7,2.5,2.7,2.5s-0.1,0.2,0.9,1.3
					c1,1.1,1.9,0.9,1.9,0.9s1,1.2,2.6,2.5c1.6,1.4,2,0,2,0s0.1,0.1,0.2,0.2c-2.5-2.5-4.8-6.6-6.4-8c-2.2-2-2.8-7.4-4.5-11.7
					c-0.9-2.2-2.2-5-3.7-8.5C136.2,162.3,134.6,164.3,134.9,165.2z"/>
			</g>
			<g>
				<path class="st3" d="M138.8,129.4l8,38.7c-0.4,4.2-7.1,5.3-8.9,2.5c-3.6-5.8-14.8-31.6-14.5-42.4
					C123.7,115,136.2,119.4,138.8,129.4z"/>
				<path class="st3" d="M130,83.4c-3.8,4.5-8.3,41.3-6.2,47.2c0.7,2,3,15.6,5.4,15.7c0.9,0,2-0.1,2.9-0.7
					c4.8-3.1,8.5-26.2,10.5-35.2c1.9-8.6,3.1-23.8-6.7-28.4C133.9,81.1,131.8,81.3,130,83.4z"/>
				<path class="st9" d="M129.2,130.6C129.2,130.6,129.2,130.6,129.2,130.6c-0.8-10.2,3.2-40.6,6.6-44.7c0.6-0.7,1.3-1.8,2-2.7
					c-0.6-0.4-1.2-0.8-1.9-1.2c-2-1-4.1-0.7-5.9,1.4c-3.5,4.1-7.4,34.5-6.6,44.7c0,0,0,0,0,0c-0.3,10.8,10.9,36.6,14.5,42.4
					c0.9,1.4,3.1,1.8,5.1,1.3C138.8,164.2,128.9,140.8,129.2,130.6z"/>
			</g>
			<g>
				<path class="st7" d="M144.4,75c0.3,0.4,0.6,0.7,0.9,0.9c2.1,1.6,11.1,9,17.4,6.8c8.7-3,3.8-9.8,1.9-12.5
					c0.4-0.1,0.7-0.1,1.1-0.1c-1.2-1.5-1.9-4.1-1.9-9.3c0-7.1-5.3-11.4-9.6-11.1c-4.3,0.3-9.7,2.5-8.5,8.5
					C146.4,62.1,148.4,71.1,144.4,75z"/>
				<path class="st6" d="M144.4,75c0.3,0.4,0.6,0.7,0.9,0.9c0.5,0.4,1.4,1.1,2.6,1.9c4.6-2.3,4.1-9.6,4-16.4
					c-0.1-3.4,2.4-6.8,5.9-11.1c-1.2-0.6-2.5-0.9-3.6-0.8c-4.3,0.3-9.7,2.5-8.5,8.5C146.4,62.1,148.4,71.1,144.4,75z"/>
				<path class="st7" d="M170.3,49.8c0,7.9,0.3,20.5-5.9,21.3c-6.1,0.9-21-9.3-21-20.6c0-11.3,8.9-17.4,16.5-15.5
					C167.2,36.9,170.3,44.8,170.3,49.8z"/>
				<path class="st6" d="M143.4,50.4c0,11.3,14.9,21.5,21,20.6c1.3-0.2,2.3-0.9,3-1.9c-1.1,0.5-2.8,1.7-4.9,0.7
					c-3.9-1.8-9.5-6.8-9.9-11.1c-0.5-5.4-1.8-8.6-2.7-11.4c0,0,0-1.5-1.1-9.7C145.7,40.3,143.4,44.7,143.4,50.4z"/>
				<path class="st8" d="M167.1,37.2c3.9,3.9,8.2,5-0.3,9.2c-6.1,3-9-0.9-13.6,0.7c-2.7,0.9-0.3,7.6-1,7.8c-0.7,0.2-2.2,0.9-2.7-0.3
					c-1.7-5-5.1-2.3-4.8,0.4c0.3,2.7,3,5.9,2.3,8.5c-0.8,2.6-1.9-2.5-4.6-7.9c-2.7-5.3-3-15.2,4.9-20.1
					C155.1,30.7,162.6,32.7,167.1,37.2z"/>
				<path class="st2" d="M147.2,35.5c-7.9,4.9-7.7,14.8-4.9,20.1c2.7,5.3,3.9,10.5,4.6,7.9c0.8-2.6-1.9-5.8-2.3-8.5
					c-0.3-2.7,3.1-5.4,4.8-0.4c0.4,1.2,1.8,0.6,2.6,0.4c-0.8-2.7-2.1-4.6-3.2-6.5c-1.4-2.5-2.2-6.1,0.4-9.9
					c4.3-6.4,12.2-4.4,15.3-3.4C160,32.2,153.8,31.5,147.2,35.5z"/>
			</g>
		</g>
	</g>
	<g>
		<path class="st4" d="M351,349.5c6.4-8.6,19.6-11.6,16.4-17.5c-2.2-5.8-16.6-11.8-28.6-13.5c-12.4-1.7-17.2,6.9-28.2,5.6
			c-13.4-1.7-23.3,9.3-29.6,14.6c-14,10.6,10.3,27.6,24.1,22.9C320.2,356.6,339.8,364.3,351,349.5z"/>
		<g>
			<path class="st8" d="M346.7,347L346.7,347c-3.1,0-5.6-2.5-5.6-5.6v-18c0-3.1,2.5-5.6,5.6-5.6c3.1,0,5.6,2.5,5.6,5.6v18
				C352.3,344.5,349.8,347,346.7,347z"/>
			<path class="st6" d="M341.1,324.6v16.8c0,2.7,1.9,4.9,4.4,5.4V330C345.5,327.3,343.6,325.1,341.1,324.6z"/>
			<path class="st6" d="M346.7,345.2c-2.4,0-4.4-1.4-5.5-3.3c0.3,2.8,2.6,5,5.5,5c2.9,0,5.2-2.2,5.5-5
				C351.1,343.9,349.1,345.2,346.7,345.2z"/>
			<path class="st6" d="M346.7,317.9c-3.1,0-5.6,2.5-5.6,5.6v11.8c1.2,1.6,3,2.6,5.1,2.6c2.4,0,4.6-1.1,6-2.9v-11.5
				C352.3,320.4,349.8,317.9,346.7,317.9z"/>
			<g>
				<path class="st8" d="M316.9,337.5c0,0,4.7,11.7,0.4,14c-4.2,2.3-8-0.2-12.7-2.1c-4.7-1.9-12.4-5.5-13.9-6.2
					c-1.5-0.7-5-2.5-4.5-6.5c0.5-3.9,6.7-4.1,14.9-2.1C309.3,336.5,316.9,337.5,316.9,337.5z"/>
				<path class="st6" d="M305.3,335.5l-0.1,2.7c-0.2,3.3,2.1,6.2,5.4,6.8c3.1,0.6,6.1-0.9,7.7-3.4c-0.6-2.3-1.3-4.1-1.3-4.1
					S311.7,336.8,305.3,335.5z"/>
				<path class="st6" d="M309.6,338.5c0,0-0.8-1.1-2.2-2.6c-2-0.4-4.1-0.8-6.2-1.4c-8.2-2-14.4-1.8-14.9,2.1c-0.5,4,3,5.8,4.5,6.5
					c1.5,0.7,9.2,4.3,13.9,6.2c2.2,0.9,4.2,1.9,6.1,2.5C313.6,348.7,309.6,338.5,309.6,338.5z"/>
				<path class="st6" d="M317.3,350.3c-4.2,2.3-8-0.2-12.7-2.1c-4.7-1.9-12.4-5.5-13.9-6.2c-1.3-0.6-4.1-2.1-4.5-5.1
					c-0.3,3.8,3,5.6,4.5,6.3c1.5,0.7,9.2,4.3,13.9,6.2c4.7,1.9,8.5,4.4,12.7,2.1c1.5-0.8,1.9-2.7,1.8-4.9
					C319,348.3,318.5,349.7,317.3,350.3z"/>
			</g>
			<path class="st8" d="M355.2,209.7l-1.3,119.1c0,4.1-3.4,7.5-7.6,7.4c-3.3,0-6.1-2.5-6.4-5.8l-15.1-115.4L355.2,209.7z"/>
			<path class="st2" d="M338.7,241.5c1-2.4,1.6-5.1,1.6-8c0-4.1-1.2-7.9-3.1-11l-0.8-9.7l-11.6,2l0.1,0.9
				c-7.6,0.5-13.7,8.2-13.7,17.7c0,9.8,6.5,17.7,14.5,17.7c1.3,0,2.5-0.2,3.7-0.6l10.4,79.6c0.4,3.3,3.1,5.8,6.4,5.8
				c0,0,0.1,0,0.1,0L338.7,241.5z"/>
			<path class="st8" d="M341.3,227.4c0-3.5-0.8-6.7-2.2-9.4l1.1-6.8l-7.5,0c-1.8-1-3.8-1.6-6-1.6c-2.2,0-4.2,0.6-6,1.6l-11.4,0.1
				l-4.2,125.1c-0.2,3.3,2.1,6.2,5.4,6.8c4.1,0.7,8-2,8.7-6l15.9-95.3C338.9,238.7,341.3,233.4,341.3,227.4z"/>
			<path class="st2" d="M310.7,341.9l9.6-124.8l18.8,0.7l1.1-6.6l-30.9,0.1l-4.2,125.1c-0.2,3.3,2.1,6.2,5.4,6.8c0.1,0,0.1,0,0.2,0
				C310.7,342.8,310.7,342.4,310.7,341.9z"/>
			<path class="st6" d="M337.5,212.9c-4.4-8.7-14.1,0.1-25.3,0.1c-1.5,0-2.7,0.1-4.1,0.2l-0.2,1.9c1,4.3,4.9,7.3,9.8,8.4
				c9.2,2,31.2-0.9,37.4-9.6l0-4.3L337.5,212.9z"/>
			<path class="st10" d="M347.9,139.5c-3.3,5.2-1.2,13-1.6,23.3c-0.4,10.3,0.3,20.1,2.2,23.8c3.9,7.6,8,5.8,11.2,0.1
				c5.9-10.7,9.5-40.1-2.8-48C354,136.7,350.6,136.6,347.9,139.5z"/>
			<path class="st2" d="M347.9,139.5c-3.3,5.2-1.2,13-1.6,23.3c-0.4,10.3,0.3,20.1,2.2,23.8c3.9,7.6,8,5.8,11.2,0.1
				c5.9-10.7,9.5-40.1-2.8-48C354,136.7,350.6,136.6,347.9,139.5z"/>
			<g>
				<path class="st11" d="M326.7,125.8c0.8,4.8-0.1,14.8-4.8,16.7c-4.7,1.9,5.5,4.7,9.7,4.4c4.2-0.3,19.1-3.4,17-6.4
					c-2.1-3,0-4-1.8-3.9c-1.8,0.1-5.4-3.9-5.6-17C341,106.4,325.9,120.6,326.7,125.8z"/>
				<path class="st11" d="M329.6,98.6c-4.9,0-5.2-0.7-8,3.4c-1,1.5-2.2,5.2-1.6,7.2c1.2,4-1.3,6.2-1.1,9.8c0.3,5,1.8,17.7,18,8.2
					c8-4.7-3.6-7.1-6.7-13.1C327.3,108.4,332.8,98.6,329.6,98.6z"/>
				<path class="st8" d="M325.3,117.4c-0.5,2.3-3.1,9.7-4.6,4.6c-1.6-5.1-2.2-3.4-2.1-2c0.1,1.4,0.3,0.3,0.6,1.9
					c0.3,1.6,0.1,1.7,0.4,2.9c0.3,1.2-2.5,6.2-0.1,7c2.4,0.8,7.1,1.1,7.3-2.1c0.1-3.2-1-8.4-0.1-11.6c0.8-3.2,0.9-4.7,0.1-4.7
					C326.1,113.5,325.6,116.3,325.3,117.4z"/>
				<path class="st2" d="M333,146.7c0,0,0.1,0,0.1,0c0.2,0,0.4-0.1,0.7-0.1c0.1,0,0.2,0,0.2,0c0.3,0,0.6-0.1,0.9-0.1
					c0,0,0.1,0,0.1,0c0.3-0.1,0.6-0.1,0.9-0.2c0.1,0,0.1,0,0.2,0c0.3-0.1,0.7-0.1,1-0.2c0,0,0,0,0,0c0.4-0.1,0.7-0.2,1.1-0.2
					c0,0,0,0,0.1,0c0.4-0.1,0.8-0.2,1.2-0.3c-6-6.6-5-15.9-4.8-22.9c0.1-2.2,0.3-4.8,0.6-7.8c-0.5,0.2-1,0.5-1.5,0.9c0,0,0,0,0,0
					c-0.5,0.3-1,0.7-1.5,1.1c0,0,0,0,0,0v0l0,0c-0.3-0.3-0.6-0.7-0.9-1c-0.4-0.5-0.8-1.1-1.1-1.6c-3-5.8,2.5-15.6-0.6-15.6
					c-4.9,0-5.2-0.7-8,3.4c-1,1.5-2.2,5.2-1.6,7.2c1.1,3.8-1,6-1,9.3c-0.3,0.1-0.4,0.8-0.3,1.4c0.1,1.4,0.3,0.3,0.6,1.9
					c0,0.2,0.1,0.5,0.1,0.7c0.1,1,0,1.2,0.3,2.2c0.3,1.2-2.5,6.2-0.1,7c2.2,0.7,6.1,1,7.1-1.2c0.1,0,0.2,0,0.3,0c0,0,0,0,0,0l0,0
					c-0.2,3.3-0.9,6.9-2.4,9.4c0,0,0,0,0,0c-0.1,0.1-0.1,0.2-0.2,0.3c-0.7,1-1.5,1.7-2.4,2.1c-4.7,1.9,5.5,4.7,9.7,4.4
					c0.2,0,0.4,0,0.6-0.1c0.1,0,0.1,0,0.2,0C332.5,146.8,332.8,146.8,333,146.7z"/>
				<path class="st2" d="M329.3,128.8c0.2-4.1-5.1,0.1-7.6-5.8c-2.5-5.9,0.8-8.8,0.1-12.6c-0.6-3.8,1.2-6,3.2-9.7
					c0.3-0.6,1-1.4,1.8-2.2c-0.3,0-0.6,0-0.8,0c0,0,0,0,0,0c-0.2,0-0.4,0-0.6,0.1c0,0,0,0-0.1,0c-0.2,0-0.4,0.1-0.6,0.2c0,0,0,0,0,0
					c-0.2,0.1-0.4,0.2-0.5,0.3c0,0,0,0,0,0c-0.2,0.1-0.3,0.2-0.5,0.4c0,0,0,0-0.1,0.1c-0.2,0.2-0.4,0.3-0.5,0.6c0,0,0,0,0,0
					c-0.2,0.2-0.4,0.5-0.6,0.8c0,0.1-0.1,0.1-0.1,0.2c-0.2,0.3-0.4,0.6-0.7,0.9c-1,1.5-2.2,5.2-1.6,7.2c0.1,0.3,0.1,0.6,0.2,0.9
					c0.6,3.3-1.2,5.4-1.2,8.5c-0.3,0.1-0.4,0.8-0.3,1.4c0.1,1.4,0.3,0.3,0.6,1.9c0,0.2,0.1,0.5,0.1,0.7c0.1,1,0,1.2,0.3,2.2
					c0.3,1.2-2.5,6.2-0.1,7c2.2,0.7,6.1,1,7.1-1.2c0.1,0,0.2,0,0.3,0c0,0,0,0,0,0l0,0c-0.2,3.3-0.9,6.9-2.4,9.4c0,0,0,0,0,0
					c-0.1,0.1-0.1,0.2-0.2,0.3c-0.7,1-1.5,1.7-2.4,2.1c-0.3,0.1-0.5,0.2-0.6,0.3c-0.1,0-0.1,0.1-0.1,0.1c-0.1,0.1-0.2,0.2-0.3,0.3
					c0,0-0.1,0.1-0.1,0.1c-0.1,0.1-0.1,0.2-0.1,0.3c0,0,0,0,0,0c0,0.1,0.1,0.2,0.1,0.4c0,0,0.1,0.1,0.1,0.1c0.1,0.1,0.2,0.2,0.3,0.3
					c0,0,0.1,0.1,0.1,0.1c0.1,0.1,0.3,0.2,0.4,0.3c0,0,0.1,0.1,0.1,0.1c0.2,0.1,0.4,0.2,0.6,0.3c0.1,0,0.2,0.1,0.3,0.1
					c0.2,0.1,0.3,0.1,0.5,0.2c0.1,0,0.3,0.1,0.4,0.1c0.1,0,0.3,0.1,0.4,0.1c0.1,0,0.3,0.1,0.4,0.1c0.1,0,0.2,0.1,0.4,0.1
					c0.3,0.1,0.7,0.2,1,0.3c0.1,0,0.2,0.1,0.3,0.1c0.2,0,0.4,0.1,0.6,0.1c0.1,0,0.2,0,0.3,0.1c0.2,0,0.4,0.1,0.6,0.1
					C329.1,139.7,329.2,131.2,329.3,128.8z"/>
				<path class="st8" d="M332.9,94.9c9.1,0,17.1,3.2,17.1,15.3c0,12.2-6.2,11.9-6.8,15.4c-1.1,6-9.8,3.8-10.6,0.4
					c-0.8-3.4-0.6-8.4-2.9-9.5c-4-1.9-2.1,3-3.8,2.8c-1.7-0.2,0.9-3.9-1.2-6c-3.1-3-1-7-1.3-8.6c-0.1-0.7-0.8-1.5-1.6-2.1
					C319.2,100.8,323.5,94.9,332.9,94.9z"/>
				<path class="st2" d="M321.7,102.7c0.8,0.6,1.5,1.4,1.6,2.1c0.3,1.6-1.9,5.6,1.3,8.6c2.1,2.1-0.5,5.7,1.2,6
					c1.7,0.2-0.2-4.7,3.8-2.8c2.3,1.1,2.1,6.1,2.9,9.5c0.8,3.4,9.5,5.6,10.6-0.4c0.5-2.5,3.8-3,5.7-7.8c-3.1,6-12.1,7.7-13.3,1.6
					c-2.4-11.4,1.4-10.4-7.1-19c-2.4-2.4,3.6-4.7,9.1-5.2c-1.5-0.2-3-0.3-4.6-0.3C323.5,94.9,319.2,100.8,321.7,102.7z"/>
			</g>
			<path class="st10" d="M302.5,174.3c2.4-1.9,5.2,0.3,5.2,6.4c0,6.1,12.8-15.3,6-18.1C306.9,159.8,299.1,177,302.5,174.3z"/>
			<path class="st12" d="M302.5,174.3c2.4-1.9,5.2,0.3,5.2,6.4c0,6.1,12.8-15.3,6-18.1C306.9,159.8,299.1,177,302.5,174.3z"/>
			<path class="st10" d="M362.6,152.9c0-6.7-1.6-11.1-4.5-13.5c-7.3-6.2-25.2-0.7-33.5,2c-7.3,2.4-14.2,5.7-16.9,9.7l0,39.2l0,21.1
				c0,5.4,4.4,9.3,10,10.5c10.8,2.4,39.1-2.1,39.1-14.6c-1.2-7.8-4.1-19,0.4-32.3C360.6,165.3,362.6,158.1,362.6,152.9z"/>
			<path class="st2" d="M358.1,139.4c-7.3-6.2-25.2-0.7-33.5,2c-7.3,2.4-14.2,5.7-16.9,9.7l0,39.2l0,21.1c0,0.4,0,0.7,0.1,1.1
				c0,0.1,0,0.2,0.1,0.3c0,0.2,0.1,0.5,0.1,0.7c0,0.1,0.1,0.2,0.1,0.3c0.1,0.2,0.1,0.4,0.2,0.7c0,0.1,0.1,0.2,0.1,0.3
				c0.1,0.2,0.2,0.5,0.3,0.7c0,0.1,0.1,0.2,0.1,0.2c0.1,0.3,0.3,0.5,0.4,0.8c0,0,0,0.1,0.1,0.1c0.6,0.9,1.3,1.7,2.2,2.4h0l0,0
				c1.7,1.4,3.9,2.4,6.3,2.9c0.6,0.1,1.4,0.3,2.1,0.4c-1.2-7.8-3.7-18.5,0.6-31.2c3.3-9.7,5.3-16.9,5.3-22.1
				c0-6.7-1.6-11.1-4.5-13.5c-2.3-1.9-5.6-2.7-9.4-2.8c3.3-3.2,9.2-5.9,15.4-8c8.2-2.7,25.6-8.1,33.2-2.3
				C359.8,141.2,359,140.1,358.1,139.4z"/>
			<path class="st3" d="M343,131.6c0.9,1.8,2.6,4.3,4.1,4.9c-0.3,6.1-16.1,8.7-24.7,5.6c1.7-1.7,3.2-4.2,3.9-7.4
				C334.9,137.3,342.8,133.5,343,131.6z"/>
			<g>
				<g>
					<path class="st11" d="M270.1,158.9c-2.8-1.3-7.7-2.4-8.6-4c-1.5-2.8-0.8-1.5-1.7-2.9c-1-1.3-2-2.5-3.9-3.6
						c-1.9-1.1-3.2-3.1-4.1-2.5c-1,0.6-0.3,1.8-0.1,2.3c0.2,0.6,2.8,2.9,2.7,3.2c-0.1,0.2-1.6,0.1-2.8,0c-1.2-0.1-2.6-0.4-3.8-0.9
						c-1.2-0.5-5.8-2.1-6.5-1.5c-0.7,0.7,0.4,1.7,0.4,1.7s-1.4,0.5,0,2c1.4,1.5,2.6,2.5,2.6,2.5s-0.2,0.8,0.9,1.8
						c1.1,1,1.3,0.9,1.3,0.9s-0.3,0.9,2.6,2.7c2.8,1.8,9,2.1,11.3,3.7c2.3,1.7,4.1,2.7,5.7,3.3C267.7,168.3,273.5,160.5,270.1,158.9
						z"/>
					<path class="st6" d="M266.1,167.7c-1.6-0.6-3.4-1.6-5.7-3.3c-2.2-1.6-8.4-1.9-11.3-3.7c-2.8-1.8-2.6-2.7-2.6-2.7
						s-0.2,0.1-1.3-0.9c-1.1-1-0.9-1.8-0.9-1.8s-1.2-1-2.6-2.5c-1.4-1.5,0-2,0-2s-0.1-0.1-0.2-0.2c2.5,2.4,6.7,4.7,8.1,6.2
						c2.1,2.1,7.4,2.6,11.7,4.3c2.2,0.9,5,2.1,8.6,3.5C268.9,166.4,266.9,168,266.1,167.7z"/>
				</g>
				<path class="st10" d="M321.4,151.4L321.4,151.4c2.3,3.9,1.3,8.9-2.4,11.5l-21.3,14.7c-4.3,3.1-10,3.4-14.6,0.8l-18.4-10.1
					c-3.6-2-4.8-6.7-2.6-10.2c1.1-1.8,3.3-2.5,5.2-1.6l17.1,7.6c0.9,0.4,2,0.3,2.9-0.3l22.1-15C313.3,146,318.9,147.2,321.4,151.4z"
					/>
				<path class="st2" d="M318.5,148.5c-2.8-1.6-6.3-1.6-9.1,0.3l-21.1,14.4c-2.9,2-7.9,6.3-14.1,3.2c-5.8-2.9-7.8-4.3-13-5.6
					c-0.5,2.9,0.8,6,3.6,7.6l18.4,10.1c4.6,2.6,10.3,2.3,14.6-0.8l21.3-14.7c2-1.5,3.2-3.7,3.5-6
					C318.4,151.8,316.4,150.2,318.5,148.5z"/>
			</g>
		</g>
	</g>
	<g>
		<path class="st13" d="M399.4,80.4l51.1,29.5c2.5,1.4,4.5,4.9,4.5,7.7l0,83.8c0,1.4-0.5,2.4-1.3,2.9l1.5-0.9v0l0,0v0
			c0.8-0.5,1.3-1.5,1.3-2.9v-83.8c0-2.8-2-6.3-4.5-7.7l-51.1-29.5c-1.2-0.7-2.4-0.8-3.2-0.3v0l-1.5,0.8l0,0
			C397.1,79.7,398.2,79.7,399.4,80.4z"/>
		<path class="st9" d="M399.4,80.4l51.1,29.5c2.5,1.4,4.5,4.9,4.5,7.7l0,83.8c0,1.4-0.5,2.4-1.3,2.9l1.5-0.9v0l0,0v0
			c0.8-0.5,1.3-1.5,1.3-2.9v-83.8c0-2.8-2-6.3-4.5-7.7l-51.1-29.5c-1.2-0.7-2.4-0.8-3.2-0.3v0l-1.5,0.8l0,0
			C397.1,79.7,398.2,79.7,399.4,80.4z"/>
		<path class="st13" d="M454.9,201.5c0,2.8-2,4-4.5,2.6l-51.1-29.5c-2.5-1.4-4.5-4.9-4.5-7.7l0-83.8c0-2.8,2-4,4.5-2.6l51.1,29.5
			c2.5,1.4,4.5,4.9,4.5,7.7L454.9,201.5z"/>
		<path class="st13" d="M402.5,161L402.5,161C402.5,160.9,402.6,160.9,402.5,161c0.1-0.1,0.1-0.1,0.1-0.1c0,0,0,0,0.1,0
			c0,0,0,0,0.1,0c0,0,0,0,0.1,0c0,0,0,0,0.1,0c0,0,0,0,0.1,0c0,0,0,0,0.1,0c0,0,0,0,0.1,0c0,0,0,0,0.1,0c0,0,0,0,0.1,0
			c0,0,0,0,0.1,0c0,0,0,0,0.1,0c0,0,0,0,0.1,0c0,0,0,0,0.1,0c0,0,0,0,0.1,0c0,0,0,0,0.1,0c0,0,0,0,0.1,0c0,0,0,0,0.1,0
			c0,0,0,0,0.1,0c0.2-0.1,0.5-0.1,0.8,0l25.6,14.8c0.6,0.3,1.1,1.2,1.1,1.8c0,0.4-0.1,0.6-0.4,0.7c0,0,0,0-0.1,0c0,0,0,0-0.1,0
			c0,0,0,0-0.1,0c0,0,0,0-0.1,0c0,0,0,0-0.1,0c0,0,0,0-0.1,0c0,0,0,0-0.1,0c0,0,0,0-0.1,0c0,0,0,0-0.1,0c0,0,0,0-0.1,0
			c0,0,0,0-0.1,0c0,0,0,0-0.1,0c0,0,0,0-0.1,0c0,0,0,0-0.1,0c0,0,0,0-0.1,0c0,0,0,0-0.1,0c0,0,0,0-0.1,0c0,0,0,0-0.1,0
			c0,0,0,0-0.1,0c0,0,0,0-0.1,0c0.2-0.1,0.3-0.3,0.3-0.7c0-0.7-0.5-1.5-1.1-1.8L403.2,161C403,160.9,402.7,160.9,402.5,161z
			 M431.4,159.5c0-0.7-0.5-1.5-1.1-1.9l-25.6-14.8c-0.3-0.2-0.6-0.2-0.8,0c0,0-0.1,0-0.1,0c0,0,0,0-0.1,0c0,0,0,0-0.1,0
			c0,0-0.1,0-0.1,0c0,0,0,0-0.1,0c0,0,0,0-0.1,0c0,0,0,0-0.1,0c0,0,0,0-0.1,0c0,0-0.1,0-0.1,0c0,0-0.1,0-0.1,0c0,0-0.1,0-0.1,0
			c0,0-0.1,0-0.1,0c0,0-0.1,0-0.1,0c0,0,0,0-0.1,0c0,0,0,0-0.1,0c0,0,0,0-0.1,0c0,0,0,0-0.1,0c0,0,0,0-0.1,0c0,0,0,0-0.1,0
			c0,0-0.1,0-0.1,0c0.2-0.1,0.4-0.1,0.7,0.1l25.6,14.8c0.6,0.3,1.1,1.2,1.1,1.9c0,0.3-0.1,0.5-0.3,0.7h0c0,0,0,0,0.1,0
			c0,0,0,0,0.1,0c0,0,0,0,0.1,0c0,0,0,0,0.1,0c0,0,0.1,0,0.1,0c0,0,0.1,0,0.1,0c0,0,0,0,0.1,0c0,0,0,0,0.1,0c0,0,0,0,0.1,0
			c0,0,0.1,0,0.1,0c0,0,0,0,0.1,0c0,0,0,0,0.1,0c0,0,0,0,0.1,0c0,0,0.1,0,0.1,0c0,0,0,0,0.1,0c0,0,0,0,0.1,0c0,0,0,0,0.1,0
			c0,0,0,0,0.1,0c0,0,0,0,0.1,0c0,0,0,0,0.1,0C431.2,160.1,431.4,159.9,431.4,159.5z M403.9,137.9
			C403.9,137.9,403.9,137.9,403.9,137.9c-0.1,0.1-0.1,0.1-0.1,0.1c0,0,0,0-0.1,0c0,0-0.1,0-0.1,0c0,0,0,0-0.1,0c0,0,0,0-0.1,0
			c0,0-0.1,0-0.1,0c0,0-0.1,0-0.1,0c0,0,0,0-0.1,0c0,0-0.1,0-0.1,0c0,0,0,0-0.1,0c0,0,0,0-0.1,0c0,0,0,0-0.1,0c0,0,0,0-0.1,0
			c0,0,0,0-0.1,0c0,0-0.1,0-0.1,0c0,0,0,0-0.1,0c0,0-0.1,0-0.1,0c0,0,0,0-0.1,0c0,0,0,0-0.1,0l0,0c0.2-0.1,0.4-0.1,0.7,0.1
			l40.5,23.4c0.6,0.3,1.1,1.2,1.1,1.9c0,0.3-0.1,0.5-0.3,0.7l0,0c0,0,0,0,0.1,0c0,0,0,0,0.1,0c0,0,0,0,0.1,0c0,0,0.1,0,0.1,0
			c0,0,0,0,0.1,0c0,0,0.1,0,0.1,0c0,0,0,0,0.1,0c0,0,0.1,0,0.1,0c0,0,0,0,0.1,0c0,0,0,0,0.1,0c0,0,0,0,0.1,0c0,0,0,0,0.1,0
			c0,0,0,0,0.1,0c0,0,0,0,0.1,0c0,0,0.1,0,0.1,0c0,0,0,0,0.1,0c0,0,0,0,0.1,0c0,0,0,0,0.1,0c0,0,0,0,0.1,0c0,0,0,0,0.1,0
			c0.2-0.1,0.4-0.3,0.4-0.7c0-0.7-0.5-1.5-1.1-1.9L404.7,138C404.4,137.8,404.1,137.8,403.9,137.9z M423.5,109.1l0,15.7l13.6,7.8
			c0,4.3-1.5,7.3-3.9,8.8c0,0,0,0,0.1,0c0,0,0,0,0.1,0c0,0,0,0,0.1,0c0,0,0,0,0.1,0c0,0,0.1,0,0.1,0c0,0,0,0,0.1,0c0,0,0,0,0.1,0
			c0,0,0.1,0,0.1,0c0,0,0.1,0,0.1,0c0,0,0.1,0,0.1,0c0,0,0,0,0.1,0c0,0,0,0,0.1,0c0,0,0,0,0.1,0c0,0,0,0,0.1,0c0,0,0.1,0,0.1,0
			c0,0,0.1,0,0.1,0c0,0,0.1,0,0.1,0c0,0,0.1,0,0.1,0c0,0,0.1,0,0.1,0c0,0,0,0,0.1,0c2.5-1.4,4-4.4,4-8.8L425,124v-15.7
			c-3.8-2.2-7.2-2.4-9.6-0.9c0,0-0.1,0-0.1,0c0,0,0,0-0.1,0c0,0-0.1,0-0.1,0c0,0,0,0-0.1,0c0,0-0.1,0-0.1,0c0,0,0,0-0.1,0
			c0,0,0,0-0.1,0c0,0-0.1,0-0.1,0c0,0,0,0-0.1,0c0,0,0,0-0.1,0c0,0-0.1,0-0.1,0c0,0,0,0-0.1,0c0,0,0,0-0.1,0c0,0,0,0-0.1,0
			c0,0,0,0-0.1,0c0,0,0,0-0.1,0c0,0-0.1,0-0.1,0c0,0-0.1,0-0.1,0c0,0-0.1,0-0.1,0c0,0,0,0-0.1,0C416.4,106.8,419.7,107,423.5,109.1z
			 M437.8,184.2l-33-19.1c-0.3-0.2-0.6-0.2-0.8,0c0,0-0.1,0-0.1,0c0,0,0,0-0.1,0c0,0,0,0-0.1,0c0,0-0.1,0-0.1,0c0,0,0,0-0.1,0
			c0,0,0,0-0.1,0c0,0,0,0-0.1,0c0,0,0,0-0.1,0c0,0,0,0-0.1,0c0,0-0.1,0-0.1,0c0,0-0.1,0-0.1,0c0,0,0,0-0.1,0c0,0-0.1,0-0.1,0
			c0,0,0,0-0.1,0c0,0,0,0-0.1,0c0,0,0,0-0.1,0c0,0,0,0-0.1,0c0,0,0,0-0.1,0c0,0-0.1,0-0.1,0c0,0,0,0-0.1,0l0,0
			c0.2-0.1,0.4-0.1,0.7,0.1l33,19.1c0.6,0.3,1.1,1.2,1.1,1.8c0,0.3-0.1,0.5-0.3,0.7c0,0,0,0,0.1,0c0,0,0,0,0.1,0c0,0,0,0,0.1,0
			c0,0,0,0,0.1,0c0,0,0,0,0.1,0c0,0,0,0,0.1,0c0,0,0.1,0,0.1,0c0,0,0,0,0.1,0c0,0,0.1,0,0.1,0c0,0,0,0,0.1,0c0,0,0,0,0.1,0
			c0,0,0,0,0.1,0c0,0,0,0,0.1,0c0,0,0,0,0.1,0c0,0,0.1,0,0.1,0c0,0,0,0,0.1,0c0,0,0.1,0,0.1,0c0,0,0,0,0.1,0c0,0,0,0,0.1,0
			c0,0,0,0,0.1,0c0.2-0.1,0.4-0.3,0.4-0.7C438.8,185.4,438.3,184.5,437.8,184.2z M403.9,155.2C403.9,155.2,403.9,155.2,403.9,155.2
			c-0.1,0.1-0.1,0.1-0.1,0.1c0,0,0,0-0.1,0c0,0-0.1,0-0.1,0c0,0,0,0-0.1,0c0,0,0,0-0.1,0c0,0,0,0-0.1,0c0,0,0,0-0.1,0c0,0,0,0-0.1,0
			c0,0-0.1,0-0.1,0c0,0-0.1,0-0.1,0c0,0,0,0-0.1,0c0,0,0,0-0.1,0c0,0,0,0-0.1,0c0,0,0,0-0.1,0c0,0,0,0-0.1,0c0,0,0,0-0.1,0
			c0,0,0,0-0.1,0c0,0-0.1,0-0.1,0c0,0,0,0-0.1,0l0,0c0.2-0.1,0.4-0.1,0.7,0.1l40.5,23.4c0.6,0.3,1.1,1.2,1.1,1.9
			c0,0.3-0.1,0.5-0.3,0.7l0,0c0,0,0,0,0.1,0c0,0,0,0,0.1,0c0,0,0,0,0.1,0c0,0,0,0,0.1,0c0,0,0,0,0.1,0c0,0,0.1,0,0.1,0
			c0,0,0.1,0,0.1,0c0,0,0.1,0,0.1,0c0,0,0,0,0.1,0c0,0,0,0,0.1,0c0,0,0,0,0.1,0c0,0,0,0,0.1,0c0,0,0.1,0,0.1,0c0,0,0,0,0.1,0
			c0,0,0.1,0,0.1,0c0,0,0,0,0.1,0c0,0,0.1,0,0.1,0c0,0,0,0,0.1,0c0,0,0,0,0.1,0c0,0,0,0,0.1,0c0.2-0.1,0.4-0.3,0.4-0.7
			c0-0.7-0.5-1.5-1.1-1.9l-40.5-23.4C404.4,155.1,404.1,155.1,403.9,155.2z M437.8,166.9l-33-19.1c-0.3-0.2-0.6-0.2-0.8,0
			c0,0-0.1,0-0.1,0c0,0,0,0-0.1,0c0,0,0,0-0.1,0c0,0-0.1,0-0.1,0c0,0,0,0-0.1,0c0,0,0,0-0.1,0c0,0-0.1,0-0.1,0c0,0,0,0-0.1,0
			c0,0-0.1,0-0.1,0c0,0,0,0-0.1,0c0,0,0,0-0.1,0c0,0,0,0-0.1,0c0,0,0,0-0.1,0c0,0,0,0-0.1,0c0,0,0,0-0.1,0c0,0,0,0-0.1,0
			c0,0-0.1,0-0.1,0c0,0-0.1,0-0.1,0c0,0-0.1,0-0.1,0c0,0-0.1,0-0.1,0c0.2-0.1,0.4-0.1,0.7,0.1l33,19.1c0.6,0.3,1.1,1.2,1.1,1.9
			c0,0.3-0.1,0.5-0.3,0.7c0,0,0,0,0.1,0c0,0,0,0,0.1,0c0,0,0,0,0.1,0c0,0,0,0,0.1,0c0,0,0,0,0.1,0c0,0,0.1,0,0.1,0c0,0,0.1,0,0.1,0
			c0,0,0,0,0.1,0c0,0,0.1,0,0.1,0c0,0,0,0,0.1,0c0,0,0,0,0.1,0c0,0,0,0,0.1,0c0,0,0,0,0.1,0c0,0,0,0,0.1,0c0,0,0.1,0,0.1,0
			c0,0,0,0,0.1,0c0,0,0,0,0.1,0c0,0,0,0,0.1,0c0,0,0,0,0.1,0c0,0,0,0,0.1,0c0.2-0.1,0.4-0.3,0.4-0.7
			C438.8,168.1,438.3,167.2,437.8,166.9z"/>
		<path class="st9" d="M402.5,161L402.5,161C402.5,160.9,402.6,160.9,402.5,161c0.1-0.1,0.1-0.1,0.1-0.1c0,0,0,0,0.1,0
			c0,0,0,0,0.1,0c0,0,0,0,0.1,0c0,0,0,0,0.1,0c0,0,0,0,0.1,0c0,0,0,0,0.1,0c0,0,0,0,0.1,0c0,0,0,0,0.1,0c0,0,0,0,0.1,0
			c0,0,0,0,0.1,0c0,0,0,0,0.1,0c0,0,0,0,0.1,0c0,0,0,0,0.1,0c0,0,0,0,0.1,0c0,0,0,0,0.1,0c0,0,0,0,0.1,0c0,0,0,0,0.1,0
			c0,0,0,0,0.1,0c0.2-0.1,0.5-0.1,0.8,0l25.6,14.8c0.6,0.3,1.1,1.2,1.1,1.8c0,0.4-0.1,0.6-0.4,0.7c0,0,0,0-0.1,0c0,0,0,0-0.1,0
			c0,0,0,0-0.1,0c0,0,0,0-0.1,0c0,0,0,0-0.1,0c0,0,0,0-0.1,0c0,0,0,0-0.1,0c0,0,0,0-0.1,0c0,0,0,0-0.1,0c0,0,0,0-0.1,0
			c0,0,0,0-0.1,0c0,0,0,0-0.1,0c0,0,0,0-0.1,0c0,0,0,0-0.1,0c0,0,0,0-0.1,0c0,0,0,0-0.1,0c0,0,0,0-0.1,0c0,0,0,0-0.1,0
			c0,0,0,0-0.1,0c0,0,0,0-0.1,0c0.2-0.1,0.3-0.3,0.3-0.7c0-0.7-0.5-1.5-1.1-1.8L403.2,161C403,160.9,402.7,160.9,402.5,161z
			 M431.4,159.5c0-0.7-0.5-1.5-1.1-1.9l-25.6-14.8c-0.3-0.2-0.6-0.2-0.8,0c0,0-0.1,0-0.1,0c0,0,0,0-0.1,0c0,0,0,0-0.1,0
			c0,0-0.1,0-0.1,0c0,0,0,0-0.1,0c0,0,0,0-0.1,0c0,0,0,0-0.1,0c0,0,0,0-0.1,0c0,0-0.1,0-0.1,0c0,0-0.1,0-0.1,0c0,0-0.1,0-0.1,0
			c0,0-0.1,0-0.1,0c0,0-0.1,0-0.1,0c0,0,0,0-0.1,0c0,0,0,0-0.1,0c0,0,0,0-0.1,0c0,0,0,0-0.1,0c0,0,0,0-0.1,0c0,0,0,0-0.1,0
			c0,0-0.1,0-0.1,0c0.2-0.1,0.4-0.1,0.7,0.1l25.6,14.8c0.6,0.3,1.1,1.2,1.1,1.9c0,0.3-0.1,0.5-0.3,0.7h0c0,0,0,0,0.1,0
			c0,0,0,0,0.1,0c0,0,0,0,0.1,0c0,0,0,0,0.1,0c0,0,0.1,0,0.1,0c0,0,0.1,0,0.1,0c0,0,0,0,0.1,0c0,0,0,0,0.1,0c0,0,0,0,0.1,0
			c0,0,0.1,0,0.1,0c0,0,0,0,0.1,0c0,0,0,0,0.1,0c0,0,0,0,0.1,0c0,0,0.1,0,0.1,0c0,0,0,0,0.1,0c0,0,0,0,0.1,0c0,0,0,0,0.1,0
			c0,0,0,0,0.1,0c0,0,0,0,0.1,0c0,0,0,0,0.1,0C431.2,160.1,431.4,159.9,431.4,159.5z M403.9,137.9
			C403.9,137.9,403.9,137.9,403.9,137.9c-0.1,0.1-0.1,0.1-0.1,0.1c0,0,0,0-0.1,0c0,0-0.1,0-0.1,0c0,0,0,0-0.1,0c0,0,0,0-0.1,0
			c0,0-0.1,0-0.1,0c0,0-0.1,0-0.1,0c0,0,0,0-0.1,0c0,0-0.1,0-0.1,0c0,0,0,0-0.1,0c0,0,0,0-0.1,0c0,0,0,0-0.1,0c0,0,0,0-0.1,0
			c0,0,0,0-0.1,0c0,0-0.1,0-0.1,0c0,0,0,0-0.1,0c0,0-0.1,0-0.1,0c0,0,0,0-0.1,0c0,0,0,0-0.1,0l0,0c0.2-0.1,0.4-0.1,0.7,0.1
			l40.5,23.4c0.6,0.3,1.1,1.2,1.1,1.9c0,0.3-0.1,0.5-0.3,0.7l0,0c0,0,0,0,0.1,0c0,0,0,0,0.1,0c0,0,0,0,0.1,0c0,0,0.1,0,0.1,0
			c0,0,0,0,0.1,0c0,0,0.1,0,0.1,0c0,0,0,0,0.1,0c0,0,0.1,0,0.1,0c0,0,0,0,0.1,0c0,0,0,0,0.1,0c0,0,0,0,0.1,0c0,0,0,0,0.1,0
			c0,0,0,0,0.1,0c0,0,0,0,0.1,0c0,0,0.1,0,0.1,0c0,0,0,0,0.1,0c0,0,0,0,0.1,0c0,0,0,0,0.1,0c0,0,0,0,0.1,0c0,0,0,0,0.1,0
			c0.2-0.1,0.4-0.3,0.4-0.7c0-0.7-0.5-1.5-1.1-1.9L404.7,138C404.4,137.8,404.1,137.8,403.9,137.9z M423.5,109.1l0,15.7l13.6,7.8
			c0,4.3-1.5,7.3-3.9,8.8c0,0,0,0,0.1,0c0,0,0,0,0.1,0c0,0,0,0,0.1,0c0,0,0,0,0.1,0c0,0,0.1,0,0.1,0c0,0,0,0,0.1,0c0,0,0,0,0.1,0
			c0,0,0.1,0,0.1,0c0,0,0.1,0,0.1,0c0,0,0.1,0,0.1,0c0,0,0,0,0.1,0c0,0,0,0,0.1,0c0,0,0,0,0.1,0c0,0,0,0,0.1,0c0,0,0.1,0,0.1,0
			c0,0,0.1,0,0.1,0c0,0,0.1,0,0.1,0c0,0,0.1,0,0.1,0c0,0,0.1,0,0.1,0c0,0,0,0,0.1,0c2.5-1.4,4-4.4,4-8.8L425,124v-15.7
			c-3.8-2.2-7.2-2.4-9.6-0.9c0,0-0.1,0-0.1,0c0,0,0,0-0.1,0c0,0-0.1,0-0.1,0c0,0,0,0-0.1,0c0,0-0.1,0-0.1,0c0,0,0,0-0.1,0
			c0,0,0,0-0.1,0c0,0-0.1,0-0.1,0c0,0,0,0-0.1,0c0,0,0,0-0.1,0c0,0-0.1,0-0.1,0c0,0,0,0-0.1,0c0,0,0,0-0.1,0c0,0,0,0-0.1,0
			c0,0,0,0-0.1,0c0,0,0,0-0.1,0c0,0-0.1,0-0.1,0c0,0-0.1,0-0.1,0c0,0-0.1,0-0.1,0c0,0,0,0-0.1,0C416.4,106.8,419.7,107,423.5,109.1z
			 M437.8,184.2l-33-19.1c-0.3-0.2-0.6-0.2-0.8,0c0,0-0.1,0-0.1,0c0,0,0,0-0.1,0c0,0,0,0-0.1,0c0,0-0.1,0-0.1,0c0,0,0,0-0.1,0
			c0,0,0,0-0.1,0c0,0,0,0-0.1,0c0,0,0,0-0.1,0c0,0,0,0-0.1,0c0,0-0.1,0-0.1,0c0,0-0.1,0-0.1,0c0,0,0,0-0.1,0c0,0-0.1,0-0.1,0
			c0,0,0,0-0.1,0c0,0,0,0-0.1,0c0,0,0,0-0.1,0c0,0,0,0-0.1,0c0,0,0,0-0.1,0c0,0-0.1,0-0.1,0c0,0,0,0-0.1,0l0,0
			c0.2-0.1,0.4-0.1,0.7,0.1l33,19.1c0.6,0.3,1.1,1.2,1.1,1.8c0,0.3-0.1,0.5-0.3,0.7c0,0,0,0,0.1,0c0,0,0,0,0.1,0c0,0,0,0,0.1,0
			c0,0,0,0,0.1,0c0,0,0,0,0.1,0c0,0,0,0,0.1,0c0,0,0.1,0,0.1,0c0,0,0,0,0.1,0c0,0,0.1,0,0.1,0c0,0,0,0,0.1,0c0,0,0,0,0.1,0
			c0,0,0,0,0.1,0c0,0,0,0,0.1,0c0,0,0,0,0.1,0c0,0,0.1,0,0.1,0c0,0,0,0,0.1,0c0,0,0.1,0,0.1,0c0,0,0,0,0.1,0c0,0,0,0,0.1,0
			c0,0,0,0,0.1,0c0.2-0.1,0.4-0.3,0.4-0.7C438.8,185.4,438.3,184.5,437.8,184.2z M403.9,155.2C403.9,155.2,403.9,155.2,403.9,155.2
			c-0.1,0.1-0.1,0.1-0.1,0.1c0,0,0,0-0.1,0c0,0-0.1,0-0.1,0c0,0,0,0-0.1,0c0,0,0,0-0.1,0c0,0,0,0-0.1,0c0,0,0,0-0.1,0c0,0,0,0-0.1,0
			c0,0-0.1,0-0.1,0c0,0-0.1,0-0.1,0c0,0,0,0-0.1,0c0,0,0,0-0.1,0c0,0,0,0-0.1,0c0,0,0,0-0.1,0c0,0,0,0-0.1,0c0,0,0,0-0.1,0
			c0,0,0,0-0.1,0c0,0-0.1,0-0.1,0c0,0,0,0-0.1,0l0,0c0.2-0.1,0.4-0.1,0.7,0.1l40.5,23.4c0.6,0.3,1.1,1.2,1.1,1.9
			c0,0.3-0.1,0.5-0.3,0.7l0,0c0,0,0,0,0.1,0c0,0,0,0,0.1,0c0,0,0,0,0.1,0c0,0,0,0,0.1,0c0,0,0,0,0.1,0c0,0,0.1,0,0.1,0
			c0,0,0.1,0,0.1,0c0,0,0.1,0,0.1,0c0,0,0,0,0.1,0c0,0,0,0,0.1,0c0,0,0,0,0.1,0c0,0,0,0,0.1,0c0,0,0.1,0,0.1,0c0,0,0,0,0.1,0
			c0,0,0.1,0,0.1,0c0,0,0,0,0.1,0c0,0,0.1,0,0.1,0c0,0,0,0,0.1,0c0,0,0,0,0.1,0c0,0,0,0,0.1,0c0.2-0.1,0.4-0.3,0.4-0.7
			c0-0.7-0.5-1.5-1.1-1.9l-40.5-23.4C404.4,155.1,404.1,155.1,403.9,155.2z M437.8,166.9l-33-19.1c-0.3-0.2-0.6-0.2-0.8,0
			c0,0-0.1,0-0.1,0c0,0,0,0-0.1,0c0,0,0,0-0.1,0c0,0-0.1,0-0.1,0c0,0,0,0-0.1,0c0,0,0,0-0.1,0c0,0-0.1,0-0.1,0c0,0,0,0-0.1,0
			c0,0-0.1,0-0.1,0c0,0,0,0-0.1,0c0,0,0,0-0.1,0c0,0,0,0-0.1,0c0,0,0,0-0.1,0c0,0,0,0-0.1,0c0,0,0,0-0.1,0c0,0,0,0-0.1,0
			c0,0-0.1,0-0.1,0c0,0-0.1,0-0.1,0c0,0-0.1,0-0.1,0c0,0-0.1,0-0.1,0c0.2-0.1,0.4-0.1,0.7,0.1l33,19.1c0.6,0.3,1.1,1.2,1.1,1.9
			c0,0.3-0.1,0.5-0.3,0.7c0,0,0,0,0.1,0c0,0,0,0,0.1,0c0,0,0,0,0.1,0c0,0,0,0,0.1,0c0,0,0,0,0.1,0c0,0,0.1,0,0.1,0c0,0,0.1,0,0.1,0
			c0,0,0,0,0.1,0c0,0,0.1,0,0.1,0c0,0,0,0,0.1,0c0,0,0,0,0.1,0c0,0,0,0,0.1,0c0,0,0,0,0.1,0c0,0,0,0,0.1,0c0,0,0.1,0,0.1,0
			c0,0,0,0,0.1,0c0,0,0,0,0.1,0c0,0,0,0,0.1,0c0,0,0,0,0.1,0c0,0,0,0,0.1,0c0.2-0.1,0.4-0.3,0.4-0.7
			C438.8,168.1,438.3,167.2,437.8,166.9z"/>
		<path class="st14" d="M444.8,181.3c0,0.7-0.5,1-1.1,0.6l-40.5-23.4c-0.6-0.3-1.1-1.2-1.1-1.9l0,0c0-0.7,0.5-1,1.1-0.6l40.5,23.4
			C444.3,179.8,444.8,180.6,444.8,181.3L444.8,181.3z M437.3,186.9c0,0.7-0.5,1-1.1,0.6l-33-19.1c-0.6-0.3-1.1-1.2-1.1-1.9l0,0
			c0-0.7,0.5-1,1.1-0.6l33,19.1C436.9,185.4,437.3,186.2,437.3,186.9L437.3,186.9z M429.9,177.7c0-0.7-0.5-1.5-1.1-1.8L403.2,161
			c-0.6-0.3-1.1-0.1-1.1,0.6l0,0c0,0.7,0.5,1.5,1.1,1.9l25.6,14.8C429.4,178.6,429.9,178.3,429.9,177.7L429.9,177.7z M444.8,164
			c0,0.7-0.5,1-1.1,0.6l-40.5-23.4c-0.6-0.3-1.1-1.2-1.1-1.9l0,0c0-0.7,0.5-1,1.1-0.6l40.5,23.4C444.3,162.5,444.8,163.3,444.8,164
			L444.8,164z M437.3,169.6c0,0.7-0.5,1-1.1,0.6l-33-19.1c-0.6-0.3-1.1-1.2-1.1-1.9l0,0c0-0.7,0.5-1,1.1-0.6l33,19.1
			C436.9,168.1,437.3,168.9,437.3,169.6L437.3,169.6z M429.9,160.4c0-0.7-0.5-1.5-1.1-1.9l-25.6-14.8c-0.6-0.3-1.1-0.1-1.1,0.6l0,0
			c0,0.7,0.5,1.5,1.1,1.9l25.6,14.8C429.4,161.3,429.9,161.1,429.9,160.4L429.9,160.4z M423.5,109.1c-7.5-4.3-13.6-0.8-13.6,7.8
			c0,8.6,6.1,19.2,13.6,23.5c7.5,4.3,13.6,0.8,13.6-7.8l-13.6-7.8L423.5,109.1z"/>
		<path class="st13" d="M440,130.9l1.5-0.9c0-8.6-6.1-19.2-13.6-23.5l-1.5,0.9C433.9,111.8,440,122.3,440,130.9z"/>
		<path class="st9" d="M440,130.9l1.5-0.9c0-8.6-6.1-19.2-13.6-23.5l-1.5,0.9C433.9,111.8,440,122.3,440,130.9z"/>
		<path class="st2" d="M426.4,107.4v15.7l13.6,7.8C440,122.3,433.9,111.8,426.4,107.4z"/>
	</g>
	<g>
		<g>
			<path class="st13" d="M394.9,394.7c1.2-0.7,2.4-0.8,3.2-0.3l0,0l1.5,0.8l0,0c-0.8-0.5-1.9-0.4-3.2,0.3l-5.2,3
				c-1,0.6-1.8,0.1-1.8-1c0,0.1,0,0.2,0,0.2c0.1,0,0.2,0,0.2-0.1L394.9,394.7z M389.2,423c1.2,1.2,3.1,1.4,5.3,0.1
				c1.4-0.8,2.7-2,3.7-3.5c0.3-0.4,0.6-0.7,0.9-0.9c0.5-0.3,0.9-0.3,1.2-0.1l0,0l-1.5-0.8c0,0,0,0,0,0c-0.3-0.2-0.8-0.2-1.2,0.1
				c-0.3,0.2-0.7,0.5-0.9,0.9c-1.1,1.5-2.3,2.7-3.7,3.5C391.6,423.1,390.3,423.3,389.2,423z M389,387.2L389,387.2l-1.4-0.8
				c0,0,0,0,0,0l0,0h0c-1.2-0.6-2.8-0.5-4.5,0.5c-3.6,2.1-6.5,7.1-6.5,11.2c0,1.6,0.4,2.8,1.2,3.6c0.2,0.2,0.3,0.5,0.3,0.9
				c0,1.1-0.8,2.5-1.8,3.1l-5.2,3c-2.5,1.4-4.5,4.9-4.5,7.7l0,27.5c0,1.4,0.5,2.4,1.3,2.9l0,0l1.5,0.8c0.4,0.2,0.9,0.3,1.4,0.3
				c-1.6,0.1-2.7-1-2.7-3.2v-27.5c0-2.8,2-6.3,4.5-7.7l5.2-3c1-0.6,1.8-1.9,1.8-3.1c0-0.4-0.1-0.7-0.3-0.9c-0.7-0.8-1.2-2-1.2-3.6
				c0-4.1,2.9-9.1,6.5-11.2C386.2,386.6,387.8,386.5,389,387.2L389,387.2z"/>
			<path class="st9" d="M394.9,394.7c1.2-0.7,2.4-0.8,3.2-0.3l0,0l1.5,0.8l0,0c-0.8-0.5-1.9-0.4-3.2,0.3l-5.2,3
				c-1,0.6-1.8,0.1-1.8-1c0,0.1,0,0.2,0,0.2c0.1,0,0.2,0,0.2-0.1L394.9,394.7z M389.2,423c1.2,1.2,3.1,1.4,5.3,0.1
				c1.4-0.8,2.7-2,3.7-3.5c0.3-0.4,0.6-0.7,0.9-0.9c0.5-0.3,0.9-0.3,1.2-0.1l0,0l-1.5-0.8c0,0,0,0,0,0c-0.3-0.2-0.8-0.2-1.2,0.1
				c-0.3,0.2-0.7,0.5-0.9,0.9c-1.1,1.5-2.3,2.7-3.7,3.5C391.6,423.1,390.3,423.3,389.2,423z M389,387.2L389,387.2l-1.4-0.8
				c0,0,0,0,0,0l0,0h0c-1.2-0.6-2.8-0.5-4.5,0.5c-3.6,2.1-6.5,7.1-6.5,11.2c0,1.6,0.4,2.8,1.2,3.6c0.2,0.2,0.3,0.5,0.3,0.9
				c0,1.1-0.8,2.5-1.8,3.1l-5.2,3c-2.5,1.4-4.5,4.9-4.5,7.7l0,27.5c0,1.4,0.5,2.4,1.3,2.9l0,0l1.5,0.8c0.4,0.2,0.9,0.3,1.4,0.3
				c-1.6,0.1-2.7-1-2.7-3.2v-27.5c0-2.8,2-6.3,4.5-7.7l5.2-3c1-0.6,1.8-1.9,1.8-3.1c0-0.4-0.1-0.7-0.3-0.9c-0.7-0.8-1.2-2-1.2-3.6
				c0-4.1,2.9-9.1,6.5-11.2C386.2,386.6,387.8,386.5,389,387.2L389,387.2z"/>
			<path class="st13" d="M368.1,417.1v27.5c0,2.8,2,4,4.5,2.6l23.9-13.8c2.5-1.4,4.5-4.9,4.5-7.7l0-6c0-1.1-0.8-1.6-1.8-1
				c-0.3,0.2-0.7,0.5-0.9,0.9c-1.1,1.5-2.3,2.7-3.7,3.5c-3.6,2.1-6.5,0.4-6.5-3.7c0-4.1,2.9-9.1,6.5-11.2c1.4-0.8,2.7-1,3.7-0.8
				c0.3,0,0.6,0,0.9-0.2c1-0.6,1.8-1.9,1.8-3.1v-6c0-2.8-2-4-4.5-2.6l-5.2,3c-1,0.6-1.8,0.1-1.8-1c0-0.4,0.1-0.8,0.3-1.2
				c0.7-1.6,1.2-3.4,1.2-5c0-4.1-2.9-5.8-6.5-3.7c-3.6,2.1-6.5,7.1-6.5,11.2c0,1.6,0.4,2.8,1.2,3.6c0.2,0.2,0.3,0.5,0.3,0.9
				c0,1.1-0.8,2.5-1.8,3.1l-5.2,3C370.1,410.8,368.1,414.3,368.1,417.1z"/>
			<path class="st9" d="M395.3,425.6v-3c1.1-0.8,2-1.8,2.9-2.9c0.3-0.4,0.6-0.7,0.9-0.9c1-0.6,1.8-0.1,1.8,1l0,6
				c0,0.6-0.1,1.3-0.3,2l-0.8,0.5C397.3,429.6,395.3,428.4,395.3,425.6z M396.4,395.6l-0.8,0.5c-0.2,0.7-0.3,1.3-0.3,2v6
				c0,1.1-0.8,2.5-1.8,3.1c-0.3,0.2-0.7,0.2-0.9,0.2c-1-0.2-2.3,0-3.7,0.8c-3.6,2.1-6.5,7.1-6.5,11.2c0,4.1,2.9,5.8,6.5,3.7
				c0.1,0,0.1-0.1,0.2-0.1c-0.7-0.8-1.1-2-1.1-3.5c0-4.1,2.9-9.1,6.5-11.2c1.4-0.8,2.7-1,3.7-0.8c0.3,0,0.6,0,0.9-0.2
				c1-0.6,1.8-1.9,1.8-3.1v-6C400.8,395.3,398.8,394.2,396.4,395.6z"/>
		</g>
		<g>
			<path class="st5" d="M405.7,425.6v6c0,1.4,0.5,2.4,1.3,2.9l0,0l-1.5-0.9c0,0,0,0,0,0l-0.1,0l0,0c-0.8-0.5-1.2-1.5-1.2-2.8v-6
				c0-0.1,0-0.2,0-0.2C405,424.2,405.7,424.6,405.7,425.6z M437.2,382.3L437.2,382.3l-1.5-0.9c0,0,0,0,0,0c-0.8-0.5-1.9-0.4-3.2,0.3
				l-5.2,3c-1,0.6-1.8,1.9-1.8,3.1c0,0.4,0.1,0.7,0.3,0.9c0.7,0.8,1.2,2,1.2,3.6c0,4.1-2.9,9.1-6.5,11.2c-1.4,0.8-2.7,1-3.8,0.8
				c1.2,1.2,3.1,1.4,5.3,0.1c3.6-2.1,6.5-7.1,6.5-11.2c0-1.6-0.4-2.8-1.2-3.6c-0.2-0.2-0.3-0.5-0.3-0.9c0-1.1,0.8-2.5,1.8-3.1l5.2-3
				C435.3,381.9,436.4,381.8,437.2,382.3z M416.6,393.2L416.6,393.2l-1.5-0.8l0,0c-0.3-0.2-0.8-0.2-1.3,0.1l-5.2,3
				c-2.5,1.4-4.5,4.9-4.5,7.7v6c0,1.1-0.8,2.5-1.8,3.1c-0.3,0.2-0.6,0.2-0.9,0.2c-1-0.2-2.3,0-3.7,0.8c-3.6,2.1-6.5,7.1-6.5,11.2
				c0,2.1,0.7,3.5,1.9,4.2l1.5,0.8c-1.2-0.7-1.9-2.1-1.9-4.2c0-4.1,2.9-9.1,6.5-11.2c1.4-0.8,2.7-1,3.7-0.8c0.3,0,0.6,0,0.9-0.2
				c1-0.6,1.8-1.9,1.8-3.1l0-6c0-2.8,2-6.3,4.5-7.7l5.2-3C415.8,393.1,416.3,393.1,416.6,393.2z"/>
			<path class="st9" d="M405.7,425.6v6c0,1.4,0.5,2.4,1.3,2.9l0,0l-1.5-0.9c0,0,0,0,0,0l-0.1,0l0,0c-0.8-0.5-1.2-1.5-1.2-2.8v-6
				c0-0.1,0-0.2,0-0.2C405,424.2,405.7,424.6,405.7,425.6z M437.2,382.3L437.2,382.3l-1.5-0.9c0,0,0,0,0,0c-0.8-0.5-1.9-0.4-3.2,0.3
				l-5.2,3c-1,0.6-1.8,1.9-1.8,3.1c0,0.4,0.1,0.7,0.3,0.9c0.7,0.8,1.2,2,1.2,3.6c0,4.1-2.9,9.1-6.5,11.2c-1.4,0.8-2.7,1-3.8,0.8
				c1.2,1.2,3.1,1.4,5.3,0.1c3.6-2.1,6.5-7.1,6.5-11.2c0-1.6-0.4-2.8-1.2-3.6c-0.2-0.2-0.3-0.5-0.3-0.9c0-1.1,0.8-2.5,1.8-3.1l5.2-3
				C435.3,381.9,436.4,381.8,437.2,382.3z M416.6,393.2L416.6,393.2l-1.5-0.8l0,0c-0.3-0.2-0.8-0.2-1.3,0.1l-5.2,3
				c-2.5,1.4-4.5,4.9-4.5,7.7v6c0,1.1-0.8,2.5-1.8,3.1c-0.3,0.2-0.6,0.2-0.9,0.2c-1-0.2-2.3,0-3.7,0.8c-3.6,2.1-6.5,7.1-6.5,11.2
				c0,2.1,0.7,3.5,1.9,4.2l1.5,0.8c-1.2-0.7-1.9-2.1-1.9-4.2c0-4.1,2.9-9.1,6.5-11.2c1.4-0.8,2.7-1,3.7-0.8c0.3,0,0.6,0,0.9-0.2
				c1-0.6,1.8-1.9,1.8-3.1l0-6c0-2.8,2-6.3,4.5-7.7l5.2-3C415.8,393.1,416.3,393.1,416.6,393.2z"/>
			<path class="st5" d="M405.7,431.6v-6c0-1.1-0.8-1.6-1.8-1c-0.4,0.2-0.7,0.5-0.9,0.9c-1.1,1.5-2.3,2.7-3.7,3.5
				c-3.6,2.1-6.5,0.4-6.5-3.7c0-4.1,2.9-9.1,6.5-11.2c1.4-0.8,2.7-1,3.7-0.8c0.3,0,0.6,0,0.9-0.2c1-0.6,1.8-1.9,1.8-3.1l0-6
				c0-2.8,2-6.3,4.5-7.7l5.2-3c1-0.6,1.8-0.1,1.8,1c0,0.4-0.1,0.8-0.3,1.2c-0.7,1.6-1.2,3.4-1.2,5c0,4.1,2.9,5.8,6.5,3.7
				c3.6-2.1,6.5-7.1,6.5-11.2c0-1.6-0.4-2.8-1.2-3.6c-0.2-0.2-0.3-0.5-0.3-0.9c0-1.1,0.8-2.5,1.8-3.1l5.2-3c2.5-1.4,4.5-0.3,4.5,2.6
				v27.5c0,2.8-2,6.3-4.5,7.7l-23.9,13.8C407.7,435.6,405.7,434.4,405.7,431.6z"/>
		</g>
	</g>
	<g>
		<path class="st15" d="M39.4,244.7v-83.8c0-2.8,2-6.3,4.5-7.7l51.1-29.5c2.5-1.4,4.5-0.3,4.5,2.6c0-1.4-0.5-2.4-1.3-2.9l-1.5-0.8
			l0,0c-0.8-0.5-1.9-0.4-3.2,0.3l-51.1,29.5c-2.5,1.4-4.5,4.9-4.5,7.7l0,83.8c0,1.5,0.5,2.5,1.4,2.9l0,0l1.4,0.8l0,0
			C39.9,247.2,39.4,246.1,39.4,244.7z"/>
		<path class="st9" d="M39.4,244.7v-83.8c0-2.8,2-6.3,4.5-7.7l51.1-29.5c2.5-1.4,4.5-0.3,4.5,2.6c0-1.4-0.5-2.4-1.3-2.9l-1.5-0.8
			l0,0c-0.8-0.5-1.9-0.4-3.2,0.3l-51.1,29.5c-2.5,1.4-4.5,4.9-4.5,7.7l0,83.8c0,1.5,0.5,2.5,1.4,2.9l0,0l1.4,0.8l0,0
			C39.9,247.2,39.4,246.1,39.4,244.7z"/>
		<path class="st15" d="M99.4,210.1c0,2.8-2,6.3-4.5,7.7l-51.1,29.5c-2.5,1.4-4.5,0.3-4.5-2.6v-83.8c0-2.8,2-6.3,4.5-7.7l51.1-29.5
			c2.5-1.4,4.5-0.3,4.5,2.6L99.4,210.1z"/>
		<path class="st15" d="M70.4,151.6C70.4,151.6,70.4,151.6,70.4,151.6c-0.1,0-0.1-0.1-0.2-0.1c-0.1,0-0.1-0.1-0.2-0.1
			c-0.1,0-0.1-0.1-0.2-0.1c-0.1,0-0.1-0.1-0.2-0.1c-0.1,0-0.1-0.1-0.2-0.1c-0.1,0-0.1-0.1-0.2-0.1c-0.1,0-0.1-0.1-0.2-0.1
			c-0.3-0.1-0.4-0.3-0.4-0.7c0-0.7,0.5-1.5,1.1-1.9l5-2.9c0.3-0.2,0.6-0.2,0.8,0c0.1,0,0.1,0.1,0.2,0.1c0.1,0,0.1,0.1,0.2,0.1
			c0.1,0,0.1,0.1,0.2,0.1c0.1,0,0.1,0.1,0.2,0.1c0.1,0,0.1,0.1,0.2,0.1c0.1,0,0.1,0.1,0.2,0.1c0.1,0,0.1,0.1,0.2,0.1l0,0
			c-0.2-0.1-0.4,0-0.6,0.1l-5,2.9c-0.6,0.3-1.1,1.2-1.1,1.9C70.1,151.3,70.2,151.5,70.4,151.6z M68.6,160c0,0.4,0.2,0.6,0.4,0.7
			c0.1,0.1,0.1,0.1,0.2,0.1c0.1,0.1,0.1,0.1,0.2,0.1c0.1,0.1,0.1,0.1,0.2,0.1c0.1,0.1,0.1,0.1,0.2,0.1c0.1,0.1,0.1,0.1,0.2,0.1
			c0.1,0.1,0.1,0.1,0.2,0.1c0.1,0.1,0.1,0.1,0.2,0.1c-0.1-0.1-0.2-0.3-0.2-0.6c0-0.7,0.5-1.5,1.1-1.9l19.9-11.5
			c0.2-0.1,0.5-0.2,0.6-0.1c-0.1-0.1-0.1-0.1-0.2-0.1c-0.1-0.1-0.1-0.1-0.2-0.1c-0.1-0.1-0.1-0.1-0.2-0.1c-0.1,0-0.1-0.1-0.2-0.1
			c-0.1,0-0.1-0.1-0.2-0.1c-0.1-0.1-0.1-0.1-0.2-0.1c-0.1-0.1-0.1-0.1-0.2-0.1c-0.2-0.2-0.5-0.2-0.8,0l-19.9,11.5
			C69.1,158.5,68.6,159.3,68.6,160z M49.6,182.6v-19.8c0-0.7,0.5-1.5,1.1-1.9l14.1-8.2c0.2-0.1,0.5-0.2,0.6-0.1
			c-0.1,0-0.1-0.1-0.2-0.1c-0.1-0.1-0.1-0.1-0.2-0.1c-0.1-0.1-0.1-0.1-0.2-0.1c-0.1,0-0.1-0.1-0.2-0.1c-0.1,0-0.1-0.1-0.2-0.1
			c-0.1,0-0.1-0.1-0.2-0.1c-0.1-0.1-0.1-0.1-0.2-0.1c-0.2-0.2-0.5-0.2-0.8,0l-14.1,8.2c-0.6,0.3-1.1,1.2-1.1,1.9l0,19.8
			c0,0.4,0.2,0.6,0.4,0.7c0.1,0,0.1,0.1,0.2,0.1c0.1,0.1,0.1,0.1,0.2,0.1c0.1,0.1,0.1,0.1,0.2,0.1c0.1,0,0.1,0.1,0.2,0.1
			c0.1,0.1,0.1,0.1,0.2,0.1c0.1,0,0.1,0.1,0.2,0.1c0.1,0,0.1,0.1,0.2,0.1C49.7,183.1,49.6,182.9,49.6,182.6z M69.1,155.8
			c0.1,0.1,0.1,0.1,0.2,0.1c0.1,0.1,0.1,0.1,0.2,0.1c0.1,0,0.1,0.1,0.2,0.1c0.1,0,0.1,0.1,0.2,0.1c0.1,0.1,0.1,0.1,0.2,0.1
			c0.1,0.1,0.1,0.1,0.2,0.1c0.1,0.1,0.1,0.1,0.2,0.1c-0.1-0.1-0.2-0.3-0.2-0.6c0-0.7,0.5-1.5,1.1-1.8l12.5-7.2
			c0.2-0.1,0.5-0.2,0.6-0.1c-0.1-0.1-0.1-0.1-0.2-0.1c-0.1-0.1-0.1-0.1-0.2-0.1c-0.1-0.1-0.1-0.1-0.2-0.1c-0.1,0-0.1-0.1-0.2-0.1
			c-0.1-0.1-0.1-0.1-0.2-0.1c-0.1-0.1-0.1-0.1-0.2-0.1c-0.1-0.1-0.1-0.1-0.2-0.1c-0.2-0.2-0.5-0.2-0.8,0l-12.5,7.2
			c-0.6,0.3-1.1,1.2-1.1,1.9C68.6,155.5,68.8,155.7,69.1,155.8z M82.2,160.8L69.7,168c-0.6,0.3-1.1,1.2-1.1,1.9
			c0,0.4,0.2,0.6,0.4,0.7c0.1,0.1,0.1,0.1,0.2,0.1c0.1,0.1,0.1,0.1,0.2,0.1c0.1,0.1,0.1,0.1,0.2,0.1c0.1,0.1,0.1,0.1,0.2,0.1
			c0.1,0.1,0.1,0.1,0.2,0.1c0.1,0,0.1,0.1,0.2,0.1c0.1,0,0.1,0.1,0.2,0.1l0,0c-0.1-0.1-0.2-0.3-0.2-0.6c0-0.7,0.5-1.5,1.1-1.9
			l12.5-7.2c0.2-0.1,0.5-0.2,0.6-0.1l0,0c-0.1-0.1-0.1-0.1-0.2-0.1c-0.1-0.1-0.1-0.1-0.2-0.1c-0.1-0.1-0.1-0.1-0.2-0.1
			c-0.1-0.1-0.1-0.1-0.2-0.1c-0.1-0.1-0.1-0.1-0.2-0.1c-0.1,0-0.1-0.1-0.2-0.1c-0.1-0.1-0.1-0.1-0.2-0.1
			C82.8,160.7,82.5,160.6,82.2,160.8z M74.7,160.2l-5,2.9c-0.6,0.3-1.1,1.2-1.1,1.9c0,0.4,0.2,0.6,0.4,0.7c0.1,0.1,0.1,0.1,0.2,0.1
			c0.1,0.1,0.1,0.1,0.2,0.1c0.1,0.1,0.1,0.1,0.2,0.1c0.1,0,0.1,0.1,0.2,0.1c0.1,0.1,0.1,0.1,0.2,0.1c0.1,0.1,0.1,0.1,0.2,0.1
			c0.1,0.1,0.1,0.1,0.2,0.1c-0.1-0.1-0.2-0.3-0.2-0.6c0-0.7,0.5-1.5,1.1-1.9l5-2.9c0.2-0.1,0.5-0.2,0.6-0.1
			c-0.1-0.1-0.1-0.1-0.2-0.1c-0.1-0.1-0.1-0.1-0.2-0.1c-0.1,0-0.1-0.1-0.2-0.1c-0.1,0-0.1-0.1-0.2-0.1c-0.1-0.1-0.1-0.1-0.2-0.1
			c-0.1-0.1-0.1-0.1-0.2-0.1c-0.1,0-0.1-0.1-0.2-0.1C75.4,160,75.1,160,74.7,160.2z M49.6,224.6c0-0.7,0.5-1.5,1.1-1.9l40.5-23.4
			c0.2-0.1,0.5-0.2,0.6-0.1l0,0c-0.1-0.1-0.1-0.1-0.2-0.1c-0.1-0.1-0.1-0.1-0.2-0.1c-0.1,0-0.1-0.1-0.2-0.1
			c-0.1-0.1-0.1-0.1-0.2-0.1c-0.1-0.1-0.1-0.1-0.2-0.1c-0.1-0.1-0.1-0.1-0.2-0.1c-0.1-0.1-0.1-0.1-0.2-0.1c-0.2-0.2-0.5-0.2-0.8,0
			l-40.5,23.4c-0.6,0.3-1.1,1.2-1.1,1.9c0,0.4,0.2,0.6,0.4,0.7c0.1,0,0.1,0.1,0.2,0.1c0.1,0.1,0.1,0.1,0.2,0.1
			c0.1,0.1,0.1,0.1,0.2,0.1c0.1,0.1,0.1,0.1,0.2,0.1c0.1,0,0.1,0.1,0.2,0.1c0.1,0.1,0.1,0.1,0.2,0.1c0,0.1,0.1,0.1,0.2,0.1
			C49.7,225.1,49.6,224.9,49.6,224.6z M49.6,217.2c0-0.7,0.5-1.5,1.1-1.9l33-19.1c0.2-0.1,0.5-0.2,0.6-0.1c-0.1-0.1-0.1-0.1-0.2-0.1
			c-0.1-0.1-0.1-0.1-0.2-0.1c-0.1,0-0.1-0.1-0.2-0.1c-0.1-0.1-0.1-0.1-0.2-0.1c-0.1-0.1-0.1-0.1-0.2-0.1c-0.1-0.1-0.1-0.1-0.2-0.1
			c-0.1-0.1-0.1-0.1-0.2-0.1c-0.2-0.2-0.5-0.2-0.8,0l-33,19.1c-0.6,0.3-1.1,1.2-1.1,1.9c0,0.4,0.2,0.6,0.4,0.7
			c0.1,0,0.1,0.1,0.2,0.1c0.1,0,0.1,0.1,0.2,0.1c0.1,0.1,0.1,0.1,0.2,0.1c0.1,0,0.1,0.1,0.2,0.1c0.1,0,0.1,0.1,0.2,0.1
			c0.1,0,0.1,0.1,0.2,0.1c0.1,0,0.1,0.1,0.2,0.1C49.7,217.7,49.6,217.5,49.6,217.2z M49.6,234.5c0-0.7,0.5-1.5,1.1-1.9l33-19.1
			c0.2-0.1,0.5-0.2,0.6-0.1l0,0c-0.1-0.1-0.1-0.1-0.2-0.1c-0.1-0.1-0.1-0.1-0.2-0.1c-0.1,0-0.1-0.1-0.2-0.1c-0.1,0-0.1-0.1-0.2-0.1
			c-0.1-0.1-0.1-0.1-0.2-0.1c-0.1-0.1-0.1-0.1-0.2-0.1c-0.1-0.1-0.1-0.1-0.2-0.1c-0.2-0.2-0.5-0.2-0.8,0l-33,19.1
			c-0.6,0.3-1.1,1.2-1.1,1.9c0,0.4,0.2,0.6,0.4,0.7c0.1,0.1,0.1,0.1,0.2,0.1c0.1,0.1,0.1,0.1,0.2,0.1c0.1,0.1,0.1,0.1,0.2,0.1
			c0.1,0.1,0.1,0.1,0.2,0.1c0.1,0,0.1,0.1,0.2,0.1c0.1,0.1,0.1,0.1,0.2,0.1c0.1,0.1,0.1,0.1,0.2,0.1
			C49.7,234.9,49.6,234.7,49.6,234.5z M49.6,229.5c0-0.7,0.5-1.5,1.1-1.8l25.6-14.8c0.2-0.1,0.5-0.2,0.6-0.1l0,0
			c-0.1-0.1-0.1-0.1-0.2-0.1c-0.1,0-0.1-0.1-0.2-0.1c-0.1,0-0.1-0.1-0.2-0.1c-0.1,0-0.1-0.1-0.2-0.1c-0.1,0-0.1-0.1-0.2-0.1
			c-0.1-0.1-0.1-0.1-0.2-0.1c-0.1-0.1-0.1-0.1-0.2-0.1c-0.2-0.2-0.5-0.2-0.8,0l-25.6,14.8c-0.6,0.3-1.1,1.2-1.1,1.8
			c0,0.4,0.2,0.6,0.4,0.7c0.1,0.1,0.1,0.1,0.2,0.1c0.1,0.1,0.1,0.1,0.2,0.1c0.1,0,0.1,0.1,0.2,0.1c0.1,0.1,0.1,0.1,0.2,0.1
			c0.1,0.1,0.1,0.1,0.2,0.1c0.1,0.1,0.1,0.1,0.2,0.1c0.1,0.1,0.1,0.1,0.2,0.1l0,0C49.7,230,49.6,229.8,49.6,229.5z M49.6,207.3
			c0-0.7,0.5-1.5,1.1-1.9l40.5-23.4c0.2-0.1,0.5-0.2,0.6-0.1l0,0c-0.1,0-0.1-0.1-0.2-0.1c-0.1-0.1-0.1-0.1-0.2-0.1
			c-0.1-0.1-0.1-0.1-0.2-0.1c-0.1-0.1-0.1-0.1-0.2-0.1c-0.1-0.1-0.1-0.1-0.2-0.1c-0.1-0.1-0.1-0.1-0.2-0.1c-0.1,0-0.1-0.1-0.2-0.1
			c-0.2-0.2-0.5-0.2-0.8,0l-40.5,23.4c-0.6,0.3-1.1,1.2-1.1,1.9c0,0.4,0.2,0.6,0.4,0.7c0.1,0.1,0.1,0.1,0.2,0.1
			c0.1,0.1,0.1,0.1,0.2,0.1c0.1,0.1,0.1,0.1,0.2,0.1c0.1,0.1,0.1,0.1,0.2,0.1c0.1,0.1,0.1,0.1,0.2,0.1c0.1,0,0.1,0.1,0.2,0.1
			c0.1,0.1,0.1,0.1,0.2,0.1c0,0,0,0,0,0C49.7,207.8,49.6,207.6,49.6,207.3z M49.6,199.9c0-0.7,0.5-1.5,1.1-1.9l33-19.1
			c0.2-0.1,0.5-0.2,0.6-0.1l0,0c-0.1-0.1-0.1-0.1-0.2-0.1c-0.1-0.1-0.1-0.1-0.2-0.1c-0.1-0.1-0.1-0.1-0.2-0.1
			c-0.1,0-0.1-0.1-0.2-0.1c-0.1,0-0.1-0.1-0.2-0.1c-0.1-0.1-0.1-0.1-0.2-0.1c-0.1,0-0.1-0.1-0.2-0.1c-0.2-0.2-0.5-0.2-0.8,0
			l-33,19.1c-0.6,0.3-1.1,1.2-1.1,1.9c0,0.4,0.2,0.6,0.4,0.7c0.1,0,0.1,0.1,0.2,0.1c0.1,0.1,0.1,0.1,0.2,0.1
			c0.1,0.1,0.1,0.1,0.2,0.1c0.1,0,0.1,0.1,0.2,0.1c0.1,0,0.1,0.1,0.2,0.1c0.1,0,0.1,0.1,0.2,0.1c0.1,0,0.1,0.1,0.2,0.1l0,0
			C49.7,200.4,49.6,200.2,49.6,199.9z M49.6,195c0-0.7,0.5-1.5,1.1-1.9l25.6-14.8c0.2-0.1,0.5-0.2,0.6-0.1l0,0
			c-0.1,0-0.1-0.1-0.2-0.1c-0.1,0-0.1-0.1-0.2-0.1c-0.1,0-0.1-0.1-0.2-0.1c-0.1,0-0.1-0.1-0.2-0.1c-0.1,0-0.1-0.1-0.2-0.1
			c-0.1,0-0.1-0.1-0.2-0.1c-0.1-0.1-0.1-0.1-0.2-0.1c-0.2-0.2-0.5-0.2-0.8,0l-25.6,14.8c-0.6,0.3-1.1,1.2-1.1,1.9
			c0,0.4,0.2,0.6,0.4,0.7c0.1,0.1,0.1,0.1,0.2,0.1c0.1,0.1,0.1,0.1,0.2,0.1c0,0.1,0.1,0.1,0.2,0.1c0.1,0.1,0.1,0.1,0.2,0.1
			c0.1,0,0.1,0.1,0.2,0.1c0.1,0.1,0.1,0.1,0.2,0.1c0.1,0.1,0.1,0.1,0.2,0.1C49.7,195.4,49.6,195.2,49.6,195z M49.6,212.2
			c0-0.7,0.5-1.5,1.1-1.9l25.6-14.8c0.2-0.1,0.5-0.2,0.6-0.1c-0.1-0.1-0.1-0.1-0.2-0.1c-0.1,0-0.1-0.1-0.2-0.1
			c-0.1-0.1-0.1-0.1-0.2-0.1c-0.1-0.1-0.1-0.1-0.2-0.1c-0.1-0.1-0.1-0.1-0.2-0.1c-0.1-0.1-0.1-0.1-0.2-0.1c-0.1-0.1-0.1-0.1-0.2-0.1
			c-0.2-0.2-0.5-0.2-0.8,0l-25.6,14.8c-0.6,0.3-1.1,1.2-1.1,1.9c0,0.4,0.2,0.6,0.4,0.7c0.1,0.1,0.1,0.1,0.2,0.1
			c0.1,0.1,0.1,0.1,0.2,0.1c0.1,0.1,0.1,0.1,0.2,0.1c0.1,0,0.1,0.1,0.2,0.1c0.1,0.1,0.1,0.1,0.2,0.1c0.1,0.1,0.1,0.1,0.2,0.1
			c0.1,0.1,0.1,0.1,0.2,0.1C49.7,212.7,49.6,212.5,49.6,212.2z M49.6,190c0-0.7,0.5-1.5,1.1-1.9l40.5-23.4c0.2-0.1,0.5-0.2,0.6-0.1
			c-0.1-0.1-0.1-0.1-0.2-0.1c-0.1-0.1-0.1-0.1-0.2-0.1c-0.1-0.1-0.1-0.1-0.2-0.1c-0.1-0.1-0.1-0.1-0.2-0.1c-0.1-0.1-0.1-0.1-0.2-0.1
			c-0.1,0-0.1-0.1-0.2-0.1c-0.1-0.1-0.1-0.1-0.2-0.1c-0.2-0.2-0.5-0.2-0.8,0l-40.5,23.4c-0.6,0.3-1.1,1.2-1.1,1.9
			c0,0.4,0.2,0.6,0.4,0.7c0.1,0.1,0.1,0.1,0.2,0.1c0.1,0.1,0.1,0.1,0.2,0.1c0.1,0,0.1,0.1,0.2,0.1c0.1,0.1,0.1,0.1,0.2,0.1
			c0.1,0.1,0.1,0.1,0.2,0.1c0.1,0.1,0.1,0.1,0.2,0.1c0.1,0.1,0.1,0.1,0.2,0.1C49.7,190.5,49.6,190.3,49.6,190z"/>
		<path class="st9" d="M70.4,151.6C70.4,151.6,70.4,151.6,70.4,151.6c-0.1,0-0.1-0.1-0.2-0.1c-0.1,0-0.1-0.1-0.2-0.1
			c-0.1,0-0.1-0.1-0.2-0.1c-0.1,0-0.1-0.1-0.2-0.1c-0.1,0-0.1-0.1-0.2-0.1c-0.1,0-0.1-0.1-0.2-0.1c-0.1,0-0.1-0.1-0.2-0.1
			c-0.3-0.1-0.4-0.3-0.4-0.7c0-0.7,0.5-1.5,1.1-1.9l5-2.9c0.3-0.2,0.6-0.2,0.8,0c0.1,0,0.1,0.1,0.2,0.1c0.1,0,0.1,0.1,0.2,0.1
			c0.1,0,0.1,0.1,0.2,0.1c0.1,0,0.1,0.1,0.2,0.1c0.1,0,0.1,0.1,0.2,0.1c0.1,0,0.1,0.1,0.2,0.1c0.1,0,0.1,0.1,0.2,0.1l0,0
			c-0.2-0.1-0.4,0-0.6,0.1l-5,2.9c-0.6,0.3-1.1,1.2-1.1,1.9C70.1,151.3,70.2,151.5,70.4,151.6z M68.6,160c0,0.4,0.2,0.6,0.4,0.7
			c0.1,0.1,0.1,0.1,0.2,0.1c0.1,0.1,0.1,0.1,0.2,0.1c0.1,0.1,0.1,0.1,0.2,0.1c0.1,0.1,0.1,0.1,0.2,0.1c0.1,0.1,0.1,0.1,0.2,0.1
			c0.1,0.1,0.1,0.1,0.2,0.1c0.1,0.1,0.1,0.1,0.2,0.1c-0.1-0.1-0.2-0.3-0.2-0.6c0-0.7,0.5-1.5,1.1-1.9l19.9-11.5
			c0.2-0.1,0.5-0.2,0.6-0.1c-0.1-0.1-0.1-0.1-0.2-0.1c-0.1-0.1-0.1-0.1-0.2-0.1c-0.1-0.1-0.1-0.1-0.2-0.1c-0.1,0-0.1-0.1-0.2-0.1
			c-0.1,0-0.1-0.1-0.2-0.1c-0.1-0.1-0.1-0.1-0.2-0.1c-0.1-0.1-0.1-0.1-0.2-0.1c-0.2-0.2-0.5-0.2-0.8,0l-19.9,11.5
			C69.1,158.5,68.6,159.3,68.6,160z M49.6,182.6v-19.8c0-0.7,0.5-1.5,1.1-1.9l14.1-8.2c0.2-0.1,0.5-0.2,0.6-0.1
			c-0.1,0-0.1-0.1-0.2-0.1c-0.1-0.1-0.1-0.1-0.2-0.1c-0.1-0.1-0.1-0.1-0.2-0.1c-0.1,0-0.1-0.1-0.2-0.1c-0.1,0-0.1-0.1-0.2-0.1
			c-0.1,0-0.1-0.1-0.2-0.1c-0.1-0.1-0.1-0.1-0.2-0.1c-0.2-0.2-0.5-0.2-0.8,0l-14.1,8.2c-0.6,0.3-1.1,1.2-1.1,1.9l0,19.8
			c0,0.4,0.2,0.6,0.4,0.7c0.1,0,0.1,0.1,0.2,0.1c0.1,0.1,0.1,0.1,0.2,0.1c0.1,0.1,0.1,0.1,0.2,0.1c0.1,0,0.1,0.1,0.2,0.1
			c0.1,0.1,0.1,0.1,0.2,0.1c0.1,0,0.1,0.1,0.2,0.1c0.1,0,0.1,0.1,0.2,0.1C49.7,183.1,49.6,182.9,49.6,182.6z M69.1,155.8
			c0.1,0.1,0.1,0.1,0.2,0.1c0.1,0.1,0.1,0.1,0.2,0.1c0.1,0,0.1,0.1,0.2,0.1c0.1,0,0.1,0.1,0.2,0.1c0.1,0.1,0.1,0.1,0.2,0.1
			c0.1,0.1,0.1,0.1,0.2,0.1c0.1,0.1,0.1,0.1,0.2,0.1c-0.1-0.1-0.2-0.3-0.2-0.6c0-0.7,0.5-1.5,1.1-1.8l12.5-7.2
			c0.2-0.1,0.5-0.2,0.6-0.1c-0.1-0.1-0.1-0.1-0.2-0.1c-0.1-0.1-0.1-0.1-0.2-0.1c-0.1-0.1-0.1-0.1-0.2-0.1c-0.1,0-0.1-0.1-0.2-0.1
			c-0.1-0.1-0.1-0.1-0.2-0.1c-0.1-0.1-0.1-0.1-0.2-0.1c-0.1-0.1-0.1-0.1-0.2-0.1c-0.2-0.2-0.5-0.2-0.8,0l-12.5,7.2
			c-0.6,0.3-1.1,1.2-1.1,1.9C68.6,155.5,68.8,155.7,69.1,155.8z M82.2,160.8L69.7,168c-0.6,0.3-1.1,1.2-1.1,1.9
			c0,0.4,0.2,0.6,0.4,0.7c0.1,0.1,0.1,0.1,0.2,0.1c0.1,0.1,0.1,0.1,0.2,0.1c0.1,0.1,0.1,0.1,0.2,0.1c0.1,0.1,0.1,0.1,0.2,0.1
			c0.1,0.1,0.1,0.1,0.2,0.1c0.1,0,0.1,0.1,0.2,0.1c0.1,0,0.1,0.1,0.2,0.1l0,0c-0.1-0.1-0.2-0.3-0.2-0.6c0-0.7,0.5-1.5,1.1-1.9
			l12.5-7.2c0.2-0.1,0.5-0.2,0.6-0.1l0,0c-0.1-0.1-0.1-0.1-0.2-0.1c-0.1-0.1-0.1-0.1-0.2-0.1c-0.1-0.1-0.1-0.1-0.2-0.1
			c-0.1-0.1-0.1-0.1-0.2-0.1c-0.1-0.1-0.1-0.1-0.2-0.1c-0.1,0-0.1-0.1-0.2-0.1c-0.1-0.1-0.1-0.1-0.2-0.1
			C82.8,160.7,82.5,160.6,82.2,160.8z M74.7,160.2l-5,2.9c-0.6,0.3-1.1,1.2-1.1,1.9c0,0.4,0.2,0.6,0.4,0.7c0.1,0.1,0.1,0.1,0.2,0.1
			c0.1,0.1,0.1,0.1,0.2,0.1c0.1,0.1,0.1,0.1,0.2,0.1c0.1,0,0.1,0.1,0.2,0.1c0.1,0.1,0.1,0.1,0.2,0.1c0.1,0.1,0.1,0.1,0.2,0.1
			c0.1,0.1,0.1,0.1,0.2,0.1c-0.1-0.1-0.2-0.3-0.2-0.6c0-0.7,0.5-1.5,1.1-1.9l5-2.9c0.2-0.1,0.5-0.2,0.6-0.1
			c-0.1-0.1-0.1-0.1-0.2-0.1c-0.1-0.1-0.1-0.1-0.2-0.1c-0.1,0-0.1-0.1-0.2-0.1c-0.1,0-0.1-0.1-0.2-0.1c-0.1-0.1-0.1-0.1-0.2-0.1
			c-0.1-0.1-0.1-0.1-0.2-0.1c-0.1,0-0.1-0.1-0.2-0.1C75.4,160,75.1,160,74.7,160.2z M49.6,224.6c0-0.7,0.5-1.5,1.1-1.9l40.5-23.4
			c0.2-0.1,0.5-0.2,0.6-0.1l0,0c-0.1-0.1-0.1-0.1-0.2-0.1c-0.1-0.1-0.1-0.1-0.2-0.1c-0.1,0-0.1-0.1-0.2-0.1
			c-0.1-0.1-0.1-0.1-0.2-0.1c-0.1-0.1-0.1-0.1-0.2-0.1c-0.1-0.1-0.1-0.1-0.2-0.1c-0.1-0.1-0.1-0.1-0.2-0.1c-0.2-0.2-0.5-0.2-0.8,0
			l-40.5,23.4c-0.6,0.3-1.1,1.2-1.1,1.9c0,0.4,0.2,0.6,0.4,0.7c0.1,0,0.1,0.1,0.2,0.1c0.1,0.1,0.1,0.1,0.2,0.1
			c0.1,0.1,0.1,0.1,0.2,0.1c0.1,0.1,0.1,0.1,0.2,0.1c0.1,0,0.1,0.1,0.2,0.1c0.1,0.1,0.1,0.1,0.2,0.1c0,0.1,0.1,0.1,0.2,0.1
			C49.7,225.1,49.6,224.9,49.6,224.6z M49.6,217.2c0-0.7,0.5-1.5,1.1-1.9l33-19.1c0.2-0.1,0.5-0.2,0.6-0.1c-0.1-0.1-0.1-0.1-0.2-0.1
			c-0.1-0.1-0.1-0.1-0.2-0.1c-0.1,0-0.1-0.1-0.2-0.1c-0.1-0.1-0.1-0.1-0.2-0.1c-0.1-0.1-0.1-0.1-0.2-0.1c-0.1-0.1-0.1-0.1-0.2-0.1
			c-0.1-0.1-0.1-0.1-0.2-0.1c-0.2-0.2-0.5-0.2-0.8,0l-33,19.1c-0.6,0.3-1.1,1.2-1.1,1.9c0,0.4,0.2,0.6,0.4,0.7
			c0.1,0,0.1,0.1,0.2,0.1c0.1,0,0.1,0.1,0.2,0.1c0.1,0.1,0.1,0.1,0.2,0.1c0.1,0,0.1,0.1,0.2,0.1c0.1,0,0.1,0.1,0.2,0.1
			c0.1,0,0.1,0.1,0.2,0.1c0.1,0,0.1,0.1,0.2,0.1C49.7,217.7,49.6,217.5,49.6,217.2z M49.6,234.5c0-0.7,0.5-1.5,1.1-1.9l33-19.1
			c0.2-0.1,0.5-0.2,0.6-0.1l0,0c-0.1-0.1-0.1-0.1-0.2-0.1c-0.1-0.1-0.1-0.1-0.2-0.1c-0.1,0-0.1-0.1-0.2-0.1c-0.1,0-0.1-0.1-0.2-0.1
			c-0.1-0.1-0.1-0.1-0.2-0.1c-0.1-0.1-0.1-0.1-0.2-0.1c-0.1-0.1-0.1-0.1-0.2-0.1c-0.2-0.2-0.5-0.2-0.8,0l-33,19.1
			c-0.6,0.3-1.1,1.2-1.1,1.9c0,0.4,0.2,0.6,0.4,0.7c0.1,0.1,0.1,0.1,0.2,0.1c0.1,0.1,0.1,0.1,0.2,0.1c0.1,0.1,0.1,0.1,0.2,0.1
			c0.1,0.1,0.1,0.1,0.2,0.1c0.1,0,0.1,0.1,0.2,0.1c0.1,0.1,0.1,0.1,0.2,0.1c0.1,0.1,0.1,0.1,0.2,0.1
			C49.7,234.9,49.6,234.7,49.6,234.5z M49.6,229.5c0-0.7,0.5-1.5,1.1-1.8l25.6-14.8c0.2-0.1,0.5-0.2,0.6-0.1l0,0
			c-0.1-0.1-0.1-0.1-0.2-0.1c-0.1,0-0.1-0.1-0.2-0.1c-0.1,0-0.1-0.1-0.2-0.1c-0.1,0-0.1-0.1-0.2-0.1c-0.1,0-0.1-0.1-0.2-0.1
			c-0.1-0.1-0.1-0.1-0.2-0.1c-0.1-0.1-0.1-0.1-0.2-0.1c-0.2-0.2-0.5-0.2-0.8,0l-25.6,14.8c-0.6,0.3-1.1,1.2-1.1,1.8
			c0,0.4,0.2,0.6,0.4,0.7c0.1,0.1,0.1,0.1,0.2,0.1c0.1,0.1,0.1,0.1,0.2,0.1c0.1,0,0.1,0.1,0.2,0.1c0.1,0.1,0.1,0.1,0.2,0.1
			c0.1,0.1,0.1,0.1,0.2,0.1c0.1,0.1,0.1,0.1,0.2,0.1c0.1,0.1,0.1,0.1,0.2,0.1l0,0C49.7,230,49.6,229.8,49.6,229.5z M49.6,207.3
			c0-0.7,0.5-1.5,1.1-1.9l40.5-23.4c0.2-0.1,0.5-0.2,0.6-0.1l0,0c-0.1,0-0.1-0.1-0.2-0.1c-0.1-0.1-0.1-0.1-0.2-0.1
			c-0.1-0.1-0.1-0.1-0.2-0.1c-0.1-0.1-0.1-0.1-0.2-0.1c-0.1-0.1-0.1-0.1-0.2-0.1c-0.1-0.1-0.1-0.1-0.2-0.1c-0.1,0-0.1-0.1-0.2-0.1
			c-0.2-0.2-0.5-0.2-0.8,0l-40.5,23.4c-0.6,0.3-1.1,1.2-1.1,1.9c0,0.4,0.2,0.6,0.4,0.7c0.1,0.1,0.1,0.1,0.2,0.1
			c0.1,0.1,0.1,0.1,0.2,0.1c0.1,0.1,0.1,0.1,0.2,0.1c0.1,0.1,0.1,0.1,0.2,0.1c0.1,0.1,0.1,0.1,0.2,0.1c0.1,0,0.1,0.1,0.2,0.1
			c0.1,0.1,0.1,0.1,0.2,0.1c0,0,0,0,0,0C49.7,207.8,49.6,207.6,49.6,207.3z M49.6,199.9c0-0.7,0.5-1.5,1.1-1.9l33-19.1
			c0.2-0.1,0.5-0.2,0.6-0.1l0,0c-0.1-0.1-0.1-0.1-0.2-0.1c-0.1-0.1-0.1-0.1-0.2-0.1c-0.1-0.1-0.1-0.1-0.2-0.1
			c-0.1,0-0.1-0.1-0.2-0.1c-0.1,0-0.1-0.1-0.2-0.1c-0.1-0.1-0.1-0.1-0.2-0.1c-0.1,0-0.1-0.1-0.2-0.1c-0.2-0.2-0.5-0.2-0.8,0
			l-33,19.1c-0.6,0.3-1.1,1.2-1.1,1.9c0,0.4,0.2,0.6,0.4,0.7c0.1,0,0.1,0.1,0.2,0.1c0.1,0.1,0.1,0.1,0.2,0.1
			c0.1,0.1,0.1,0.1,0.2,0.1c0.1,0,0.1,0.1,0.2,0.1c0.1,0,0.1,0.1,0.2,0.1c0.1,0,0.1,0.1,0.2,0.1c0.1,0,0.1,0.1,0.2,0.1l0,0
			C49.7,200.4,49.6,200.2,49.6,199.9z M49.6,195c0-0.7,0.5-1.5,1.1-1.9l25.6-14.8c0.2-0.1,0.5-0.2,0.6-0.1l0,0
			c-0.1,0-0.1-0.1-0.2-0.1c-0.1,0-0.1-0.1-0.2-0.1c-0.1,0-0.1-0.1-0.2-0.1c-0.1,0-0.1-0.1-0.2-0.1c-0.1,0-0.1-0.1-0.2-0.1
			c-0.1,0-0.1-0.1-0.2-0.1c-0.1-0.1-0.1-0.1-0.2-0.1c-0.2-0.2-0.5-0.2-0.8,0l-25.6,14.8c-0.6,0.3-1.1,1.2-1.1,1.9
			c0,0.4,0.2,0.6,0.4,0.7c0.1,0.1,0.1,0.1,0.2,0.1c0.1,0.1,0.1,0.1,0.2,0.1c0,0.1,0.1,0.1,0.2,0.1c0.1,0.1,0.1,0.1,0.2,0.1
			c0.1,0,0.1,0.1,0.2,0.1c0.1,0.1,0.1,0.1,0.2,0.1c0.1,0.1,0.1,0.1,0.2,0.1C49.7,195.4,49.6,195.2,49.6,195z M49.6,212.2
			c0-0.7,0.5-1.5,1.1-1.9l25.6-14.8c0.2-0.1,0.5-0.2,0.6-0.1c-0.1-0.1-0.1-0.1-0.2-0.1c-0.1,0-0.1-0.1-0.2-0.1
			c-0.1-0.1-0.1-0.1-0.2-0.1c-0.1-0.1-0.1-0.1-0.2-0.1c-0.1-0.1-0.1-0.1-0.2-0.1c-0.1-0.1-0.1-0.1-0.2-0.1c-0.1-0.1-0.1-0.1-0.2-0.1
			c-0.2-0.2-0.5-0.2-0.8,0l-25.6,14.8c-0.6,0.3-1.1,1.2-1.1,1.9c0,0.4,0.2,0.6,0.4,0.7c0.1,0.1,0.1,0.1,0.2,0.1
			c0.1,0.1,0.1,0.1,0.2,0.1c0.1,0.1,0.1,0.1,0.2,0.1c0.1,0,0.1,0.1,0.2,0.1c0.1,0.1,0.1,0.1,0.2,0.1c0.1,0.1,0.1,0.1,0.2,0.1
			c0.1,0.1,0.1,0.1,0.2,0.1C49.7,212.7,49.6,212.5,49.6,212.2z M49.6,190c0-0.7,0.5-1.5,1.1-1.9l40.5-23.4c0.2-0.1,0.5-0.2,0.6-0.1
			c-0.1-0.1-0.1-0.1-0.2-0.1c-0.1-0.1-0.1-0.1-0.2-0.1c-0.1-0.1-0.1-0.1-0.2-0.1c-0.1-0.1-0.1-0.1-0.2-0.1c-0.1-0.1-0.1-0.1-0.2-0.1
			c-0.1,0-0.1-0.1-0.2-0.1c-0.1-0.1-0.1-0.1-0.2-0.1c-0.2-0.2-0.5-0.2-0.8,0l-40.5,23.4c-0.6,0.3-1.1,1.2-1.1,1.9
			c0,0.4,0.2,0.6,0.4,0.7c0.1,0.1,0.1,0.1,0.2,0.1c0.1,0.1,0.1,0.1,0.2,0.1c0.1,0,0.1,0.1,0.2,0.1c0.1,0.1,0.1,0.1,0.2,0.1
			c0.1,0.1,0.1,0.1,0.2,0.1c0.1,0.1,0.1,0.1,0.2,0.1c0.1,0.1,0.1,0.1,0.2,0.1C49.7,190.5,49.6,190.3,49.6,190z"/>
		<path class="st14" d="M84.7,147.5c0,0.7-0.5,1.5-1.1,1.9l-12.5,7.2c-0.6,0.3-1.1,0.1-1.1-0.6l0,0c0-0.7,0.5-1.5,1.1-1.8l12.5-7.2
			C84.3,146.5,84.7,146.8,84.7,147.5L84.7,147.5z M77.3,146.8c0-0.7-0.5-1-1.1-0.6l-5,2.9c-0.6,0.3-1.1,1.2-1.1,1.9l0,0
			c0,0.7,0.5,1,1.1,0.6l5-2.9C76.8,148.4,77.3,147.5,77.3,146.8L77.3,146.8z M92.2,148.1c0,0.7-0.5,1.5-1.1,1.9l-19.9,11.5
			c-0.6,0.3-1.1,0.1-1.1-0.6l0,0c0-0.7,0.5-1.5,1.1-1.9l19.9-11.5C91.7,147.2,92.2,147.5,92.2,148.1L92.2,148.1z M84.7,162.3
			c0,0.7-0.5,1.5-1.1,1.9l-12.5,7.2c-0.6,0.3-1.1,0.1-1.1-0.6l0,0c0-0.7,0.5-1.5,1.1-1.9l12.5-7.2C84.3,161.3,84.7,161.6,84.7,162.3
			L84.7,162.3z M77.3,161.7c0-0.7-0.5-1-1.1-0.6l-5,2.9c-0.6,0.3-1.1,1.2-1.1,1.9l0,0c0,0.7,0.5,1,1.1,0.6l5-2.9
			C76.8,163.2,77.3,162.3,77.3,161.7L77.3,161.7z M92.2,200c0,0.7-0.5,1.5-1.1,1.9l-40.5,23.4c-0.6,0.3-1.1,0.1-1.1-0.6l0,0
			c0-0.7,0.5-1.5,1.1-1.9l40.5-23.4C91.7,199,92.2,199.3,92.2,200L92.2,200z M84.7,214.2c0,0.7-0.5,1.5-1.1,1.9l-33,19.1
			c-0.6,0.3-1.1,0.1-1.1-0.6l0,0c0-0.7,0.5-1.5,1.1-1.9l33-19.1C84.3,213.2,84.7,213.5,84.7,214.2L84.7,214.2z M77.3,213.5
			c0-0.7-0.5-1-1.1-0.6l-25.6,14.8c-0.6,0.3-1.1,1.2-1.1,1.8l0,0c0,0.7,0.5,1,1.1,0.6l25.6-14.8C76.8,215,77.3,214.2,77.3,213.5
			L77.3,213.5z M92.2,165.4c0,0.7-0.5,1.5-1.1,1.9l-40.5,23.4c-0.6,0.3-1.1,0.1-1.1-0.6l0,0c0-0.7,0.5-1.5,1.1-1.9l40.5-23.4
			C91.7,164.5,92.2,164.7,92.2,165.4L92.2,165.4z M84.7,179.6c0,0.7-0.5,1.5-1.1,1.9l-33,19.1c-0.6,0.3-1.1,0.1-1.1-0.6l0,0
			c0-0.7,0.5-1.5,1.1-1.9l33-19.1C84.2,178.6,84.7,178.9,84.7,179.6L84.7,179.6z M77.3,178.9c0-0.7-0.5-1-1.1-0.6l-25.6,14.8
			c-0.6,0.3-1.1,1.2-1.1,1.9l0,0c0,0.7,0.5,1,1.1,0.6l25.6-14.8C76.8,180.5,77.3,179.6,77.3,178.9L77.3,178.9z M92.2,182.7
			c0,0.7-0.5,1.5-1.1,1.9l-40.5,23.4c-0.6,0.3-1.1,0.1-1.1-0.6l0,0c0-0.7,0.5-1.5,1.1-1.9l40.5-23.4C91.7,181.7,92.2,182,92.2,182.7
			L92.2,182.7z M84.7,196.9c0,0.7-0.5,1.5-1.1,1.9l-33,19.1c-0.6,0.3-1.1,0.1-1.1-0.6l0,0c0-0.7,0.5-1.5,1.1-1.9l33-19.1
			C84.3,195.9,84.7,196.2,84.7,196.9L84.7,196.9z M77.3,196.2c0-0.7-0.5-1-1.1-0.6l-25.6,14.8c-0.6,0.3-1.1,1.2-1.1,1.9l0,0
			c0,0.7,0.5,1,1.1,0.6l25.6-14.8C76.8,197.7,77.3,196.9,77.3,196.2L77.3,196.2z M64.8,152.8L50.6,161c-0.6,0.3-1.1,1.2-1.1,1.9
			v19.8l0,0c0,0.7,0.5,1,1.1,0.6l14.1-8.2c0.6-0.3,1.1-1.2,1.1-1.9l0,0l0-19.8C65.9,152.8,65.4,152.5,64.8,152.8z"/>
	</g>
	<g>
		<path class="st16" d="M228.6,72.2c0-13.4,9.4-18.9,21.1-12.1c11.6,6.7,21.1,23.1,21.1,36.5c0,6.7-2.4,11.4-6.2,13.6l1.5-0.9
			c3.8-2.2,6.2-6.9,6.2-13.6c0-13.4-9.4-29.8-21.1-36.5c-5.8-3.4-11.1-3.7-14.9-1.5l0,0l-1.5,0.9C231,60.8,228.6,65.5,228.6,72.2z"
			/>
		<path class="st9" d="M228.6,72.2c0-13.4,9.4-18.9,21.1-12.1c11.6,6.7,21.1,23.1,21.1,36.5c0,6.7-2.4,11.4-6.2,13.6l1.5-0.9
			c3.8-2.2,6.2-6.9,6.2-13.6c0-13.4-9.4-29.8-21.1-36.5c-5.8-3.4-11.1-3.7-14.9-1.5l0,0l-1.5,0.9C231,60.8,228.6,65.5,228.6,72.2z"
			/>
		<path class="st16" d="M270.8,96.6c0-13.4-9.4-29.8-21.1-36.5c-11.6-6.7-21.1-1.3-21.1,12.1c0,13.4,9.4,29.8,21.1,36.5
			C261.3,115.4,270.8,110,270.8,96.6z"/>
		<path class="st16" d="M242.6,76.6l5.5,9.6l8.3-4.8l2.1,3.6v0l1.5-0.9l-2.1-3.6l-1.2,0.7c0,0,0,0,0,0l-5.6,3.2l-5.5-9.6L242.6,76.6
			z"/>
		<path class="st9" d="M242.6,76.6l5.5,9.6l8.3-4.8l2.1,3.6v0l1.5-0.9l-2.1-3.6l-1.2,0.7c0,0,0,0,0,0l-5.6,3.2l-5.5-9.6L242.6,76.6z
			"/>
		<polygon class="st14" points="248.2,91.1 240.5,77.9 242.6,76.6 248.2,86.2 256.5,81.4 258.6,85.1 		"/>
		<path class="st2" d="M240.3,78.9c0,6,4.2,13.3,9.4,16.3c5.2,3,9.4,0.6,9.4-5.4c0-1.5-0.3-3-0.7-4.6l-10.2,5.9l-7.6-13.2L242,77
			l0,0l1.7-1l1.9-1.1l5.5,9.6l5.6-3.2c-1.7-3.3-4.2-6.1-7.1-7.8C244.5,70.5,240.3,72.9,240.3,78.9z"/>
		<path class="st6" d="M257,95.3c-1.7,1.5-4.4,1.6-7.3-0.1c-5.2-3-9.4-10.3-9.4-16.3c0-3.4,1.4-5.7,3.5-6.4c-1.3,1.1-2.1,3-2.1,5.6
			c0,6,4.2,13.3,9.4,16.2C253.4,95.6,255.4,95.9,257,95.3z"/>
	</g>
	<g>
		<path class="st0" d="M70.9,409.8c0-1.6,1-3.2,3.2-4.4l7.1-4.1l0,0c0.1-0.1,0.2-0.2,0.3-0.2c4.2-2.4,11-2.4,15.3,0
			c2.1,1.2,3.2,2.8,3.2,4.4c0,1.6-1,3.2-3.2,4.4l-7.3,4.2l0,0c0,0-0.1,0-0.1,0.1c-4.2,2.4-11,2.4-15.3,0
			C71.9,413,70.9,411.4,70.9,409.8z M93,425.2c4.2,2.4,11,2.4,15.3,0c0,0,0.1,0,0.1-0.1l0,0l22.2-12.8c2.1-1.2,3.2-2.8,3.2-4.4
			c0-1.6-1.1-3.2-3.2-4.4c-4.2-2.4-11-2.4-15.2,0c-0.1,0.1-0.2,0.2-0.3,0.2l0,0l-22,12.7c-2.1,1.2-3.2,2.8-3.2,4.4
			C89.8,422.4,90.9,424,93,425.2z M111.9,436.1c4.2,2.4,11,2.4,15.3,0c0,0,0.1,0,0.1-0.1l0,0l14.8-8.5c2.1-1.2,3.2-2.8,3.2-4.4
			c0-1.6-1.1-3.2-3.2-4.4c-4.2-2.4-11-2.4-15.3,0c-0.1,0.1-0.2,0.2-0.3,0.2l0,0l-14.5,8.4c-2.1,1.2-3.2,2.8-3.2,4.4
			C108.8,433.3,109.8,434.9,111.9,436.1z"/>
		<g>
			<path class="st10" d="M70.9,396.5c0-1.6,1-3.2,3.2-4.4c4.2-2.4,11-2.4,15.3,0c2.1,1.2,3.2,2.8,3.2,4.4h0v13.3l0,0
				c0,1.6-1,3.2-3.2,4.4c-4.2,2.4-11,2.4-15.3,0c-2.1-1.2-3.2-2.8-3.2-4.4V396.5z"/>
			<path class="st2" d="M74,400.9c4.2,2.4,11,2.4,15.3,0c2.1-1.2,3.2-2.8,3.2-4.4h0v13.3l0,0c0,1.6-1,3.2-3.2,4.4
				c-4.2,2.4-11,2.4-15.3,0c-2.1-1.2-3.2-2.8-3.2-4.4v-13.3C70.9,398.1,71.9,399.7,74,400.9z"/>
		</g>
		<g>
			<path class="st3" d="M89.8,390.3c0-1.6,1.1-3.2,3.2-4.4c4.2-2.4,11-2.4,15.3,0c2.1,1.2,3.2,2.8,3.2,4.4l0,0v30.5l0,0
				c0,1.6-1,3.2-3.2,4.4c-4.2,2.4-11,2.4-15.3,0c-2.1-1.2-3.2-2.8-3.2-4.4L89.8,390.3z"/>
			<path d="M93,394.7c4.2,2.4,11,2.4,15.3,0c2.1-1.2,3.2-2.8,3.2-4.4l0,0v30.5l0,0c0,1.6-1,3.2-3.2,4.4c-4.2,2.4-11,2.4-15.3,0
				c-2.1-1.2-3.2-2.8-3.2-4.4l0-30.5C89.8,391.9,90.9,393.5,93,394.7z"/>
		</g>
		<g>
			<path class="st13" d="M108.8,409.8c0-1.6,1.1-3.2,3.2-4.4c4.2-2.4,11-2.4,15.2,0c2.1,1.2,3.2,2.8,3.2,4.4l0,0v21.9l0,0
				c0,1.6-1,3.2-3.2,4.4c-4.2,2.4-11,2.4-15.3,0c-2.1-1.2-3.2-2.8-3.2-4.4L108.8,409.8z"/>
			<path class="st2" d="M111.9,414.2c4.2,2.4,11,2.4,15.3,0c2.1-1.2,3.2-2.8,3.2-4.4l0,0v21.9l0,0c0,1.6-1,3.2-3.2,4.4
				c-4.2,2.4-11,2.4-15.3,0c-2.1-1.2-3.2-2.8-3.2-4.4l0-21.9C108.8,411.4,109.8,413,111.9,414.2z"/>
		</g>
	</g>
	<g>
		<path class="st0" d="M268.2,448.1l-14.9-8.6c-6.6-3.8-17.4-3.8-24,0c-6.6,3.8-6.6,10,0,13.9c0,0,0,0,0,0l0,0l14.8,8.6
			c6.6,3.8,17.4,3.8,24,0C274.8,458.1,274.8,451.9,268.2,448.1z"/>
		<g>
			<path class="st17" d="M273.1,450.5L273.1,450.5c-0.1-2.5-1.7-4.9-5-6.8c-6.6-3.8-17.4-3.8-24,0c-3.3,1.9-4.9,4.3-5,6.8h0v4.5v0
				c0,2.5,1.6,5,5,6.9c6.6,3.8,17.4,3.8,24,0c3.3-1.9,5-4.4,5-6.9l0,0V450.5z"/>
			<path class="st12" d="M273.1,450.5L273.1,450.5c-0.1-2.5-1.7-4.9-5-6.8c-6.6-3.8-17.4-3.8-24,0c-3.3,1.9-4.9,4.3-5,6.8h0v4.5v0
				c0,2.5,1.6,5,5,6.9c6.6,3.8,17.4,3.8,24,0c3.3-1.9,5-4.4,5-6.9l0,0V450.5z"/>
			<path class="st3" d="M267,442.9c-6-3.5-15.7-3.5-21.7,0c-6,3.5-6,9.1,0,12.5c6,3.5,15.7,3.5,21.7,0C273,452,273,446.4,267,442.9z
				"/>
			<path class="st2" d="M273.1,450.5c0.1,2.6-1.6,5.1-5,7.1c-6.6,3.8-17.4,3.8-24,0c-3.4-2-5-4.5-4.9-7.1c0,0,0,0,0,0h0v4.5v0
				c0,2.5,1.6,5,5,6.9c6.6,3.8,17.4,3.8,24,0c3.3-1.9,5-4.4,5-6.9L273.1,450.5L273.1,450.5z"/>
		</g>
		<g>
			<path class="st17" d="M269.7,443.7L269.7,443.7c-0.1-2.5-1.7-4.9-5-6.8c-6.6-3.8-17.4-3.8-24,0c-3.3,1.9-4.9,4.3-5,6.8h0v4.5l0,0
				c0,2.5,1.6,5,5,6.9c6.6,3.8,17.4,3.8,24,0c3.3-1.9,5-4.4,5-6.9l0,0L269.7,443.7z"/>
			<path class="st12" d="M269.7,443.7L269.7,443.7c-0.1-2.5-1.7-4.9-5-6.8c-6.6-3.8-17.4-3.8-24,0c-3.3,1.9-4.9,4.3-5,6.8h0v4.5l0,0
				c0,2.5,1.6,5,5,6.9c6.6,3.8,17.4,3.8,24,0c3.3-1.9,5-4.4,5-6.9l0,0L269.7,443.7z"/>
			<path class="st3" d="M263.6,436c-6-3.5-15.7-3.5-21.7,0c-6,3.5-6,9.1,0,12.5c6,3.5,15.7,3.5,21.7,0
				C269.6,445.1,269.6,439.5,263.6,436z"/>
			<path class="st2" d="M269.7,443.7c0.1,2.6-1.6,5.1-5,7.1c-6.6,3.8-17.4,3.8-24,0c-3.4-2-5-4.5-4.9-7.1c0,0,0,0,0,0h0v4.5l0,0
				c0,2.5,1.6,5,5,6.9c6.6,3.8,17.4,3.8,24,0c3.3-1.9,5-4.4,5-6.9L269.7,443.7L269.7,443.7z"/>
		</g>
		<g>
			<path class="st17" d="M276.6,436.8L276.6,436.8c-0.1-2.5-1.7-4.9-5-6.8c-6.6-3.8-17.4-3.8-24,0c-3.3,1.9-4.9,4.3-5,6.8l0,0l0,4.5
				h0c0,2.5,1.6,5,5,6.9c6.6,3.8,17.4,3.8,24,0c3.3-1.9,5-4.4,5-6.9l0,0L276.6,436.8z"/>
			<path class="st12" d="M276.6,436.8L276.6,436.8c-0.1-2.5-1.7-4.9-5-6.8c-6.6-3.8-17.4-3.8-24,0c-3.3,1.9-4.9,4.3-5,6.8l0,0l0,4.5
				h0c0,2.5,1.6,5,5,6.9c6.6,3.8,17.4,3.8,24,0c3.3-1.9,5-4.4,5-6.9l0,0L276.6,436.8z"/>
			<path class="st3" d="M270.4,429.2c-6-3.5-15.7-3.5-21.7,0c-6,3.5-6,9.1,0,12.5c6,3.5,15.7,3.5,21.7,0
				C276.4,438.2,276.4,432.6,270.4,429.2z"/>
			<path class="st2" d="M276.5,436.8c0.1,2.6-1.6,5.1-5,7.1c-6.6,3.8-17.4,3.8-24,0c-3.4-2-5-4.5-4.9-7.1c0,0,0,0,0,0l0,0l0,4.5h0
				c0,2.5,1.6,5,5,6.9c6.6,3.8,17.4,3.8,24,0c3.3-1.9,5-4.4,5-6.9L276.5,436.8L276.5,436.8z"/>
			<path class="st17" d="M265.3,437.1l2,1.2l-1.7,1l-2-1.2c-1.4,0.6-3.1,1-4.7,1.1l-0.9-1.6c1.8-0.1,3.8-0.6,4.7-1.1
				c0.7-0.4,0.9-0.8,0.4-1.1c-1.6-0.9-5.5,2.4-8.7,0.6c-1.5-0.8-1.4-2,0-3.2l-1.9-1.1l1.7-1l1.9,1.1c1.2-0.6,2.6-0.9,3.9-1.1l1,1.6
				c-1.5,0.2-3.2,0.7-4,1.1c-0.6,0.3-0.7,0.7-0.3,0.9c1.5,0.9,5.5-2.4,8.8-0.5C267,434.8,266.7,436,265.3,437.1z"/>
		</g>
	</g>
	<g>
		<path class="st0" d="M174.6,348.1c4.5-2.6,10.7-3.7,16.6-3.2l2.6-1.9c0.3-0.2,0.7-0.3,1.1-0.3c0.4,0,0.9,0.1,1.2,0.3l2,1.2
			l29.2-16.9c0.5-0.3,1.2-0.4,1.8-0.2l7.6,1.6c0.2,0.1,0.4,0.1,0.6,0.2c0.2,0.1,0.4,0.3,0.5,0.5l0.9,3.3c0.1,0.3-0.1,0.6-0.5,0.8
			l-29.2,16.9l2,1.2c0,0,0,0,0,0c0.6,0.4,0.6,0.9,0,1.3c-0.1,0.1-0.2,0.1-0.4,0.2l-3.2,1.4c0.9,3.4-1,7-5.5,9.6
			c-7.6,4.4-20,4.4-27.6,0C167,359.6,167,352.4,174.6,348.1z"/>
		<path class="st7" d="M188.6,333.2l0.6-0.3l-0.6-0.3c-0.7-0.4-0.7-1,0-1.4l38.9-22.5c0.5-0.3,1.2-0.4,1.8-0.2l2.5,0.5l0,0v1.3
			l1.6,0.3l1.7-1l1.9,0.4c0.2,0.1,0.4,0.1,0.6,0.2c0.3,0.1,0.4,0.3,0.5,0.5l0.9,3.3c0,0.1,0,0.1,0,0.2h0v2.1h0
			c0,0.2-0.2,0.5-0.5,0.7l-38.9,22.5c-0.7,0.4-1.8,0.4-2.4,0l-8.5-4.9C188,334.2,188,333.6,188.6,333.2z"/>
		<path class="st2" d="M188.6,333.2l0.6-0.3l-0.6-0.3l8.5,4.9c0.7,0.4,1.8,0.4,2.4,0l38.9-22.5c0.4-0.2,0.6-0.5,0.5-0.9
			c0,0.1,0,0.1,0,0.2h0v2.1h0c0,0.2-0.2,0.5-0.5,0.7l-38.9,22.5c-0.7,0.4-1.8,0.4-2.4,0l-8.5-4.9C188,334.2,188,333.6,188.6,333.2z"
			/>
		<path class="st2" d="M203,325.6l28.8-16.6v1.3l1.6,0.3l1.7-1l-29.8,17.2c-0.6,0.4-1.6,0.4-2.2,0
			C202.4,326.5,202.4,325.9,203,325.6z"/>
		<path class="st2" d="M203,325.6l28.8-16.6v1.3L203,326.9c0,0,0,0,0,0C202.4,326.5,202.4,325.9,203,325.6z"/>
		<path class="st7" d="M190.8,329.8l-2.1-1.2c-0.6-0.3-0.6-0.8-0.1-1.2l5.4-4c0.3-0.2,0.7-0.3,1.1-0.3c0.4,0,0.9,0.1,1.2,0.3l15,8.7
			c0,0,0,0,0,0c0.3,0.2,0.5,0.4,0.5,0.6v4.1v0v0h0c0,0.2-0.2,0.5-0.5,0.6c-0.1,0.1-0.2,0.1-0.4,0.2l-6.7,3c-0.6,0.3-1.5,0.3-2.1-0.1
			l-13.5-7.8c-0.6-0.3-0.6-0.8-0.1-1.2L190.8,329.8z"/>
		<path class="st2" d="M190.8,329.8l-2.1-1.2l13.5,7.8c0.6,0.3,1.5,0.4,2.1,0.1l6.7-3c0.1,0,0.2-0.1,0.4-0.2
			c0.3-0.2,0.5-0.4,0.5-0.6v4.1v0v0h0c0,0.2-0.2,0.5-0.5,0.6c-0.1,0.1-0.2,0.1-0.4,0.2l-6.7,3c-0.6,0.3-1.5,0.3-2.1-0.1l-13.5-7.8
			c-0.6-0.3-0.6-0.8-0.1-1.2L190.8,329.8z"/>
		<path class="st13" d="M168.9,335.8v5.5c0,2.9,1.9,5.8,5.7,8c7.6,4.4,20,4.4,27.6,0c3.8-2.2,5.7-5.1,5.7-8h0v-5.5h0
			c0-2.9-1.9-5.8-5.7-8c-7.6-4.4-20-4.4-27.6,0C170.8,330.1,168.9,333,168.9,335.8z M178.9,336.4c2.4-1.4,6.2-1.4,8.6,0
			c2.4,1.4,2.4,3.6,0,5c-2.4,1.4-6.2,1.4-8.6,0C176.6,340,176.6,337.7,178.9,336.4z"/>
		<path class="st2" d="M174.7,343.8c7.6,4.4,20,4.4,27.6,0c3.8-2.2,5.7-5.1,5.7-8h0v5.5h0c0,2.9-1.9,5.8-5.7,8
			c-7.6,4.4-20,4.4-27.6,0c-3.8-2.2-5.7-5.1-5.7-8v-5.5c0,0,0,0,0,0C168.9,338.7,170.9,341.6,174.7,343.8z"/>
		<path class="st13" d="M187.5,341.3c-0.1,0-0.1,0.1-0.2,0.1c-2.3-1.3-6-1.3-8.3,0c-0.1,0-0.1,0-0.2-0.1c-2.4-1.4-2.4-3.6,0-5
			c2.4-1.4,6.2-1.4,8.6,0C189.9,337.7,189.9,340,187.5,341.3z"/>
		<path class="st2" d="M187.5,341.3c-0.1,0-0.1,0.1-0.2,0.1c-2.3-1.3-6-1.3-8.3,0c-0.1,0-0.1,0-0.2-0.1c-2.4-1.4-2.4-3.6,0-5
			c2.4-1.4,6.2-1.4,8.6,0C189.9,337.7,189.9,340,187.5,341.3z"/>
		<path class="st12" d="M200.7,342.9c-6.7,3.9-17.6,3.9-24.4,0c-3.4-1.9-5.1-4.5-5.1-7c0-2.5,1.7-5.1,5-7c6.7-3.9,17.6-3.9,24.4,0
			c3.4,1.9,5,4.5,5.1,7C205.7,338.4,204,340.9,200.7,342.9z"/>
		<path class="st18" d="M200.6,329.8c-6.7-3.9-17.7-3.9-24.4,0c-3.1,1.8-4.8,4.1-5,6.5c0-0.2,0-0.3,0-0.5c0-2.5,1.7-5.1,5-7
			c6.7-3.9,17.6-3.9,24.4,0c3.4,1.9,5,4.5,5.1,7c0,0.2,0,0.3,0,0.5C205.4,334,203.8,331.6,200.6,329.8z"/>
	</g>
	<g>
		<path class="st0" d="M42.4,320.1l-7.4-4.3c-6.6-3.8-17.4-3.8-24,0c-6.6,3.8-6.6,10,0,13.9c0,0,0,0,0,0l0,0l7.4,4.3
			c6.6,3.8,17.4,3.8,24,0C49.1,330.1,49.1,323.9,42.4,320.1z"/>
		<path class="st1" d="M47.4,322.6L47.4,322.6c-0.1-2.5-1.7-4.9-5-6.8c-6.6-3.8-17.4-3.8-24,0c-3.3,1.9-4.9,4.3-5,6.8h0l0,4.5h0
			c0,2.5,1.6,5,5,6.9c6.6,3.8,17.4,3.8,24,0c3.3-1.9,5-4.4,5-6.9l0,0L47.4,322.6z"/>
		<path class="st12" d="M47.4,322.6L47.4,322.6c-0.1-2.5-1.7-4.9-5-6.8c-6.6-3.8-17.4-3.8-24,0c-3.3,1.9-4.9,4.3-5,6.8h0l0,4.5h0
			c0,2.5,1.6,5,5,6.9c6.6,3.8,17.4,3.8,24,0c3.3-1.9,5-4.4,5-6.9l0,0L47.4,322.6z"/>
		<path class="st3" d="M41.3,314.9c-6-3.5-15.7-3.5-21.7,0c-6,3.5-6,9.1,0,12.5c6,3.5,15.7,3.5,21.7,0
			C47.3,324,47.3,318.4,41.3,314.9z"/>
		<path class="st2" d="M47.4,322.6c0.1,2.5-1.6,5.1-5,7.1c-6.6,3.8-17.4,3.8-24,0c-3.4-2-5-4.5-4.9-7.1c0,0,0,0,0,0h0l0,4.5h0
			c0,2.5,1.6,5,5,6.9c6.6,3.8,17.4,3.8,24,0c3.3-1.9,5-4.4,5-6.9L47.4,322.6L47.4,322.6z"/>
		<path class="st1" d="M36.1,322.8l2,1.2l-1.7,1l-2-1.2c-1.4,0.6-3.1,1-4.7,1.1l-0.9-1.6c1.8-0.1,3.8-0.6,4.7-1.1
			c0.7-0.4,0.9-0.8,0.4-1.1c-1.6-0.9-5.5,2.4-8.7,0.6c-1.5-0.8-1.4-2,0-3.2l-1.9-1.1l1.7-1l1.9,1.1c1.2-0.6,2.6-0.9,3.9-1.1l1,1.6
			c-1.5,0.2-3.2,0.7-4,1.1c-0.6,0.3-0.7,0.7-0.3,0.9c1.5,0.9,5.5-2.4,8.8-0.5C37.8,320.5,37.5,321.8,36.1,322.8z"/>
	</g>
	<g>
		<path class="st0" d="M491.4,303.4l-7.4-4.3c-6.6-3.8-17.4-3.8-24,0c-6.6,3.8-6.6,10,0,13.9c0,0,0,0,0,0l0,0l7.4,4.3
			c6.6,3.8,17.4,3.8,24,0C498,313.4,498,307.2,491.4,303.4z"/>
		<path class="st1" d="M496.3,305.8L496.3,305.8c-0.1-2.5-1.7-4.9-5-6.8c-6.6-3.8-17.4-3.8-24,0c-3.3,1.9-4.9,4.3-5,6.8h0l0,4.5h0
			c0,2.5,1.6,5,5,6.9c6.6,3.8,17.4,3.8,24,0c3.3-1.9,5-4.4,5-6.9l0,0V305.8z"/>
		<path class="st12" d="M496.3,305.8L496.3,305.8c-0.1-2.5-1.7-4.9-5-6.8c-6.6-3.8-17.4-3.8-24,0c-3.3,1.9-4.9,4.3-5,6.8h0l0,4.5h0
			c0,2.5,1.6,5,5,6.9c6.6,3.8,17.4,3.8,24,0c3.3-1.9,5-4.4,5-6.9l0,0V305.8z"/>
		<path class="st3" d="M490.2,298.2c-6-3.5-15.7-3.5-21.7,0c-6,3.5-6,9.1,0,12.5c6,3.5,15.7,3.5,21.7,0
			C496.2,307.3,496.2,301.6,490.2,298.2z"/>
		<path class="st2" d="M496.3,305.8c0.1,2.5-1.6,5.1-5,7.1c-6.6,3.8-17.4,3.8-24,0c-3.4-2-5-4.5-4.9-7.1c0,0,0,0,0,0h0l0,4.5h0
			c0,2.5,1.6,5,5,6.9c6.6,3.8,17.4,3.8,24,0c3.3-1.9,5-4.4,5-6.9L496.3,305.8L496.3,305.8z"/>
		<path class="st1" d="M485,306.1l2,1.2l-1.7,1l-2-1.2c-1.4,0.6-3.1,1-4.7,1.1l-0.9-1.6c1.8-0.1,3.8-0.6,4.7-1.1
			c0.7-0.4,0.9-0.8,0.4-1.1c-1.6-0.9-5.5,2.4-8.7,0.6c-1.5-0.8-1.4-2,0-3.2l-1.9-1.1l1.7-1l1.9,1.1c1.2-0.6,2.6-0.9,3.9-1.1l1,1.6
			c-1.5,0.2-3.2,0.7-4,1.1c-0.6,0.3-0.7,0.7-0.3,0.9c1.5,0.9,5.5-2.4,8.8-0.5C486.7,303.8,486.5,305,485,306.1z"/>
	</g>
</g>
</svg>
