<?xml version="1.0" encoding="utf-8"?>
<!-- Generator: Adobe Illustrator 25.2.3, SVG Export Plug-In . SVG Version: 6.00 Build 0)  -->
<svg version="1.1" id="Calque_1" xmlns="http://www.w3.org/2000/svg" xmlns:xlink="http://www.w3.org/1999/xlink" x="0px" y="0px"
	 viewBox="0 0 500 500" style="enable-background:new 0 0 500 500;" xml:space="preserve">
<style type="text/css">
	.st0{fill:url(#SVGID_1_);}
	.st1{fill:url(#SVGID_2_);}
	.st2{fill:url(#SVGID_3_);}
	.st3{fill:#F1CC5E;}
	.st4{fill:url(#SVGID_4_);}
	.st5{fill:#E1E9EF;}
	.st6{fill:url(#SVGID_5_);}
	.st7{fill:url(#SVGID_6_);}
	.st8{fill:#DCA686;}
	.st9{fill:#1A232F;}
	.st10{fill:#5B5D5B;}
	.st11{fill:#424E9B;}
	.st12{fill:#E7D9D2;}
	.st13{fill:#2D3D54;}
	.st14{fill:#CFC3BC;}
	.st15{fill:#2D333E;}
	.st16{fill:#F4E5DC;}
	.st17{fill:#9A7761;}
	.st18{fill:#2F386C;}
	.st19{fill:#C99B7D;}
	.st20{fill:#FFFFFF;}
	.st21{fill:#373958;}
	.st22{fill:#525469;}
	.st23{fill:#6B6C87;}
	.st24{fill:#27283B;}
	.st25{fill:#303149;}
	.st26{fill:#EECAA2;}
	.st27{fill:#75A6D9;}
	.st28{fill:#5F5F5C;}
	.st29{fill:#C59662;}
	.st30{fill:#7C7067;}
	.st31{fill:#CEB08B;}
	.st32{fill:#47698D;}
	.st33{fill:#2E4354;}
	.st34{fill:#343E78;}
	.st35{fill:#E7B96B;}
	.st36{fill:#E09638;}
	.st37{fill:#EAC483;}
	.st38{fill:#F8F7F7;}
	.st39{fill:#2D374B;}
	.st40{fill:#80807E;}
	.st41{fill:#D9D7E2;}
	.st42{fill:#232637;}
	.st43{fill:#DCA787;}
	.st44{fill:#C2BFC9;}
	.st45{fill:#3E4366;}
	.st46{fill:#DDA888;}
	.st47{fill:#1F2531;}
</style>
<g>
	<g>
		<g>
			<g>
				<linearGradient id="SVGID_1_" gradientUnits="userSpaceOnUse" x1="78.6956" y1="128.5965" x2="178.3692" y2="128.5965">
					<stop  offset="0" style="stop-color:#E89E5B"/>
					<stop  offset="1" style="stop-color:#F2D060"/>
				</linearGradient>
				<path class="st0" d="M170.1,117.8c-1-3.9-2.6-7.6-4.6-11l4.7-7l-6.5-6.5l-6.5-6.5l-7,4.7c-3.4-2-7.1-3.6-11-4.6l-1.7-8.2h-9.1
					h-9.1l-1.7,8.2c-3.9,1-7.6,2.6-11,4.6l-7-4.7l-6.5,6.5l-6.5,6.5l4.7,7c-2,3.4-3.6,7.1-4.6,11l-8.2,1.7v9.1v9.1l8.2,1.7
					c1,3.9,2.6,7.6,4.6,11l-4.7,7l6.5,6.5l6.5,6.5l7-4.6c3.4,2,7.1,3.6,11,4.6l1.7,8.2h9.1h9.1l1.7-8.2c3.9-1,7.6-2.6,11-4.6l7,4.6
					l6.5-6.5l6.5-6.5l-4.7-7c2-3.4,3.6-7.1,4.6-11l8.2-1.7v-9.1v-9.1L170.1,117.8z M128.5,160.6c-17.7,0-32-14.3-32-32
					c0-17.7,14.3-32,32-32c17.7,0,32,14.3,32,32C160.5,146.3,146.2,160.6,128.5,160.6z"/>
			</g>
		</g>
		<g>
			<g>
				<linearGradient id="SVGID_2_" gradientUnits="userSpaceOnUse" x1="39.7575" y1="64.0657" x2="103.8868" y2="64.0657">
					<stop  offset="0" style="stop-color:#E89E5B"/>
					<stop  offset="1" style="stop-color:#F2D060"/>
				</linearGradient>
				<path class="st1" d="M98.6,57.1c-0.7-2.5-1.6-4.9-2.9-7.1l3-4.5l-4.2-4.2l-4.2-4.2l-4.5,3c-2.2-1.3-4.6-2.3-7.1-2.9L77.7,32
					h-5.9H66l-1.1,5.3c-2.5,0.7-4.9,1.6-7.1,2.9l-4.5-3l-4.2,4.2L45,45.5l3,4.5c-1.3,2.2-2.3,4.6-2.9,7.1l-5.3,1.1v5.9v5.9l5.3,1.1
					c0.7,2.5,1.6,4.9,2.9,7.1l-3,4.5l4.2,4.2l4.2,4.2l4.5-3c2.2,1.3,4.6,2.3,7.1,2.9l1.1,5.3h5.9h5.9l1.1-5.3
					c2.5-0.7,4.9-1.6,7.1-2.9l4.5,3l4.2-4.2l4.2-4.2l-3-4.5c1.3-2.2,2.3-4.6,2.9-7.1l5.3-1.1v-5.9v-5.9L98.6,57.1z M71.8,84.6
					c-11.4,0-20.6-9.2-20.6-20.6c0-11.4,9.2-20.6,20.6-20.6c11.4,0,20.6,9.2,20.6,20.6C92.4,75.4,83.2,84.6,71.8,84.6z"/>
			</g>
		</g>
		<g>
			<linearGradient id="SVGID_3_" gradientUnits="userSpaceOnUse" x1="117.3119" y1="69.9896" x2="398.6306" y2="571.7512">
				<stop  offset="0" style="stop-color:#E89E5B"/>
				<stop  offset="1" style="stop-color:#F2D060"/>
			</linearGradient>
			<path class="st2" d="M216.5,449.9h45.1c55.5,0,100.5-45,100.5-100.5V224.9c0-55.5-45-100.4-100.4-100.4h-45.1
				c-55.5,0-100.4,45-100.4,100.4v124.6C116.1,405,161.1,449.9,216.5,449.9z"/>
		</g>
		<g>
			<polygon class="st3" points="197.5,58.2 186.9,52 186.9,56.1 171.1,56.1 171.1,60.3 186.9,60.3 186.9,64.3 			"/>
			<polygon class="st3" points="171.1,44.7 181.7,50.9 181.7,46.8 197.5,46.8 197.5,42.6 181.7,42.6 181.7,38.6 			"/>
		</g>
		<g>
			<g>
				<path class="st3" d="M327.5,57.7c-1.3-0.1-2.5-0.6-3.4-1.4c-1.1-0.9-1.6-2.1-1.6-3.4c-0.2-2.5-1-5.1-1.6-6.9
					c-3.1-2.5-4.8-6.3-4.5-10.2c0.5-6.5,6.2-11.5,12.8-11c6.5,0.5,11.5,6.2,11,12.8c-0.3,3.6-2.1,6.8-5,8.8
					c-0.9,2.4-1.4,4.6-1.6,6.6c0,2.6-2.5,4.7-5.6,4.7C327.8,57.7,327.7,57.7,327.5,57.7z M329.1,25.8c-6-0.5-11.3,4.1-11.7,10.1
					c-0.3,3.7,1.3,7.2,4.2,9.5l0.1,0.1l0,0.1c0.7,1.9,1.5,4.6,1.7,7.3l0,0c0,1,0.5,1.9,1.3,2.7c0.9,0.7,2,1.2,3.2,1.2
					c2.5,0,4.6-1.7,4.6-3.8v0l0,0c0.2-2.1,0.7-4.4,1.7-7l0.1-0.1l0.1-0.1c2.8-1.9,4.5-4.9,4.7-8.2C339.6,31.5,335.1,26.2,329.1,25.8
					z"/>
			</g>
			<g>
				<polygon class="st3" points="325.3,53.6 323.8,40.6 326.5,42.9 328.2,41 329.6,42.8 332.1,40.6 330.6,53.6 329.6,53.5 330.9,43 
					329.5,44.1 328.1,42.5 326.6,44.2 325,42.9 326.3,53.5 				"/>
			</g>
			<g>
				
					<rect x="323.8" y="56.5" transform="matrix(1 6.755476e-03 -6.755476e-03 1 0.4007 -2.2143)" class="st3" width="8.4" height="3.4"/>
			</g>
			<g>
				
					<rect x="322.4" y="53" transform="matrix(1 6.739931e-03 -6.739931e-03 1 0.3833 -2.2094)" class="st3" width="11.2" height="5.5"/>
			</g>
		</g>
		<g>
			<path class="st3" d="M279.6,15.4c-0.1-0.2-0.2-0.5-0.5-0.9c-0.2-0.3-0.5-0.7-0.8-1.1c-0.3-0.4-0.7-0.7-1.2-1.1
				c-0.4-0.3-0.9-0.7-1.4-0.9l-2.4,5.6l0.5,0.3c0.9,0.7,1.6,1.3,2.3,1.9c0.7,0.6,1.2,1.3,1.5,1.9c0.4,0.6,0.6,1.3,0.6,2.1
				c0,0.7-0.1,1.5-0.5,2.4c-0.4,1-0.9,1.7-1.6,2.2c-0.6,0.5-1.3,0.9-2.1,1.1c-0.8,0.2-1.6,0.2-2.5,0.1c-0.9-0.1-1.8-0.4-2.7-0.7
				l-1.2,2.8l-1.4-0.6l1.2-2.9c-1.3-0.6-2.4-1.4-3.4-2.4c-1-0.9-1.8-2-2.4-3.1l2.5-2c0.1,0.3,0.3,0.7,0.6,1.1c0.3,0.4,0.6,0.8,1,1.3
				c0.4,0.4,0.9,0.9,1.4,1.3c0.5,0.4,1.1,0.8,1.7,1.2l2.4-5.6c-0.1-0.1-0.2-0.2-0.3-0.2c-0.1-0.1-0.2-0.2-0.3-0.2
				c-0.8-0.7-1.6-1.3-2.1-1.9s-1-1.2-1.3-1.8c-0.3-0.6-0.5-1.2-0.5-1.8c0-0.6,0.1-1.3,0.5-2.1c0.4-0.9,0.9-1.6,1.5-2.1
				c0.6-0.6,1.3-1,2.1-1.2c0.8-0.3,1.6-0.4,2.5-0.3c0.9,0,1.8,0.2,2.7,0.5l1.2-2.7l1.4,0.6l-1.2,2.7c1.1,0.6,2.1,1.3,2.9,2.1
				c0.8,0.8,1.5,1.7,2,2.6L279.6,15.4z M270.4,12.2c-0.3,0.8-0.3,1.4,0.1,2c0.4,0.6,1,1.3,2,2l2.3-5.3c-1.1-0.4-2-0.5-2.8-0.3
				C271.3,11,270.8,11.5,270.4,12.2z M274.4,24.5c0.3-0.8,0.3-1.5-0.2-2.2c-0.5-0.7-1.2-1.4-2.2-2.2l-2.3,5.3
				c1.2,0.5,2.1,0.6,2.9,0.5C273.5,25.8,274,25.3,274.4,24.5z"/>
		</g>
		<linearGradient id="SVGID_4_" gradientUnits="userSpaceOnUse" x1="266.4254" y1="0.9022" x2="266.4254" y2="117.3808">
			<stop  offset="0" style="stop-color:#E1E9EF"/>
			<stop  offset="1" style="stop-color:#FCF9F5"/>
		</linearGradient>
		<path class="st4" d="M401.5,78.6C347.8,82,346.8,143,346.8,143v290.5H131.4V143c0,0-0.2-60.8,54.9-64.5H401.5z"/>
		<rect x="159.7" y="154.5" class="st5" width="148" height="13.1"/>
		<rect x="159.7" y="184.7" class="st5" width="126.3" height="9.2"/>
		<rect x="159.7" y="209.1" class="st5" width="63.5" height="13.7"/>
		<rect x="241.9" y="209.1" class="st5" width="65.7" height="13.7"/>
		<rect x="159.7" y="235.5" class="st5" width="101.2" height="9.8"/>
		<rect x="159.7" y="260" class="st5" width="114" height="5.4"/>
		<rect x="159.7" y="284.5" class="st5" width="137.1" height="5.4"/>
		<g>
			<path class="st5" d="M223.6,339.3h-64.4v-30.8h64.4V339.3z M160.1,338.4h62.6v-29.1h-62.6V338.4z"/>
		</g>
		<rect x="239.1" y="309" class="st5" width="57.7" height="7.1"/>
		<rect x="239.1" y="323.9" class="st5" width="40.9" height="7.1"/>
		<rect x="159.7" y="357.9" class="st5" width="113" height="5.4"/>
		<rect x="159.7" y="382.4" class="st5" width="64.9" height="5.4"/>
		<g>
			<linearGradient id="SVGID_5_" gradientUnits="userSpaceOnUse" x1="284.267" y1="376.4691" x2="324.8597" y2="376.4691">
				<stop  offset="0" style="stop-color:#E89E5B"/>
				<stop  offset="1" style="stop-color:#F2D060"/>
			</linearGradient>
			<path class="st6" d="M324.9,396.8h-40.6v-40.6h40.6V396.8z M288.1,393h33v-33h-33V393z"/>
		</g>
		<g>
			<linearGradient id="SVGID_6_" gradientUnits="userSpaceOnUse" x1="326.9185" y1="382.9979" x2="271.4007" y2="325.5752">
				<stop  offset="0" style="stop-color:#E89E5B"/>
				<stop  offset="1" style="stop-color:#F2D060"/>
			</linearGradient>
			<polygon class="st7" points="305.2,385 290.9,371.5 295.3,366.9 305.5,376.5 327.8,358.2 331.8,363.1 			"/>
		</g>
		<g>
			<g>
				<g>
					<g>
						<path class="st8" d="M161.8,388.1c0,0,0.9,0.8,1.2,1.6c0.2,0.6,1,1.4,1.4,1.9c0.4,0.5,1.8,2.7,2,3.3c0.1,0.3,0,2,0.2,2.5
							c0.2,0.5,0.8,1.4,0.4,1.6c-0.4,0.2-1.2-0.5-1.2-0.5s0.2,0.5-0.2,0.7c-0.7,0.5-1.1,0.3-1.1,0.3s-0.1,0.6-0.5,0.7
							c-0.7,0.3-1.2,0.1-1.2,0.1s-0.3,0.4-0.8,0.5c-0.7,0.1-1.1-0.4-1.1-0.4s-0.8,0.4-1.2,0c-0.4-0.3-0.4-0.8-0.7-1.1
							c-0.2-0.3-1.1-3.7-0.6-6.3c0.4-2.6-1.6-4.6-1.6-4.6L161.8,388.1z"/>
					</g>
				</g>
			</g>
			<g>
				<path class="st9" d="M169.1,408.4h-11.4c-1.2,0-2.1-0.9-2.1-2.1v-7.2c0-1.2,0.9-2.1,2.1-2.1h11.4c1.2,0,2.1,0.9,2.1,2.1v7.2
					C171.2,407.4,170.3,408.4,169.1,408.4z M157.7,398.4c-0.4,0-0.7,0.3-0.7,0.7v7.2c0,0.4,0.3,0.7,0.7,0.7h11.4
					c0.4,0,0.7-0.3,0.7-0.7v-7.2c0-0.4-0.3-0.7-0.7-0.7H157.7z"/>
			</g>
			<g>
				<rect x="142" y="405.3" class="st10" width="42.7" height="30.6"/>
			</g>
			<g>
				<path class="st8" d="M145.3,323.3c0,0-2.2,0-3.1,6.6c-0.9,6.5,0.8,9.3,1,12c0.2,2.7,3.4,20.3,3.5,21.1
					c0.1,0.8,0.5,10.1,1.8,12.6c1.2,2.5,10.4,16.6,10.5,17.3c0.1,0.7,4.4-2.5,4.4-2.5s-7.2-15.1-7.6-16.8
					c-0.4-1.7-3.3-10.5-2.9-13.2c0.5-2.7-1.3-17.5-1.1-19.1C152,339.7,149.4,324.3,145.3,323.3z"/>
			</g>
			<g>
				<path class="st11" d="M145.3,323.3c0,0-2.2,0-3.1,6.6c-0.9,6.5-0.1,8.9,0.5,11.7c0.5,2.7,2.3,19.1,2.4,19.9
					c0.1,0.8,2.3,10.7,3.4,14.1c0.9,2.6,9,16.5,9.2,17.2c0.1,0.7,6.4-3.2,6.4-3.2s-8-15.6-8.4-17.3c-0.4-1.7-1.8-7.7-1.8-10.4
					c-0.1-3.2-2.1-18.9-1.9-20.5C152,339.7,151.4,325.6,145.3,323.3z"/>
			</g>
			<path class="st12" d="M126.9,476c0,0,3.8,5.7,5.3,7c0,0,3.5,1.2,3.8,3.6c0.1,1.6,0,4.1-4,4.2c-4,0.1-6.6-1.3-7.4-3.7
				c-0.7-2.4-2.1-3.5-2.1-3.5v5.1h-0.9c0,0-0.2-5-0.3-5.9c-0.1-0.9-0.7-4.4,1.3-6C124.5,475.4,126.9,476,126.9,476z"/>
			<path class="st12" d="M152.8,471.5c0,0,0.7,1.6,1.9,3.2c0.9,1.2,3.8,6.1,5,6.4c1.3,0.3,5.1,1,5.5,3.2c0.3,2.2,0.5,3.7-3.3,3.9
				c-3.8,0.2-6.3,0.4-8.1-2.3c-1.8-2.7-4.7-4.6-4.7-4.6v7h-1.5c0,0-0.7-7.3-1.1-7.8c-0.4-0.5-1.4-6.1,2.1-9
				C152.1,468.6,152.8,471.5,152.8,471.5z"/>
			<path class="st8" d="M124.4,366.7c0,0-4.8,6.3-6.1,13.7c-1.3,7.4,0.8,32.4,0.7,36c-0.1,3.7-3.5,12.8-2.8,19.7
				c0.7,6.9,6.4,40.8,6.4,40.8l4.4-0.9c0,0-0.4-35.1,0-38c0.4-2.9,1.3-13.5,1.5-14.7c0.2-1.2,10.8-32.6,10.8-37.9
				C139.2,380.1,136,358,124.4,366.7z"/>
			<path class="st8" d="M148.6,369.2c0,0,7.9,30.2,8.8,34.4c0.9,4.2,2.3,7.6,2.3,9.4c0,4.1-1.5,10.7-1.5,10.7l-5.4,47.8h-4.2
				c0,0-2.7-27.9-3.1-33.5c-0.4-5.6,3.1-14.3,2.2-16.7c-0.9-2.4-13.7-30-13.7-30S124.2,360.4,148.6,369.2z"/>
			<path class="st8" d="M132.9,483.3c0,0-3.3,1.7-6.3-0.5c-3-2.3-4-5.9-4-5.9l4.4-0.9L132.9,483.3z"/>
			<path class="st8" d="M159.7,481.1c0,0-3.4,0.9-4.7,0c-1.3-0.9-5.8-8.4-7.2-8.8c0,0,1.4-2.9,5-0.8
				C152.8,471.5,158.7,479.8,159.7,481.1z"/>
			<path class="st13" d="M158.7,408.3c0,0-14.5,8.6-41.8,8.6c0,0-1.5-31.6,2.4-40.5c4-8.9,30.3-3.4,30.3-3.4
				S157.7,401.8,158.7,408.3z"/>
			<g>
				<path class="st12" d="M138.8,321c0,0,4.2,2,5.7,2.3c1.5,0.3,7.2,7.7,8.2,10.4c1,2.7,0,6.7-2.1,11.5c-2.1,4.8-0.1,6.3-1.1,11.1
					c-0.9,4.8-1.8,14.8-1.6,17.5c0.2,2.6-23.7,3.1-29.2-1.7c0,0,5.5-8.2,6.2-9.4c0.7-1.2,0.1-7.6-0.5-9.2
					c-0.6-1.6-4.9-15.6-4.9-15.6s-3.5-10.7-0.3-13.2c2.8-2.1,10.3-2.9,11.6-3.4C132.1,320.8,136.1,320.6,138.8,321z"/>
			</g>
			<g>
				<path class="st14" d="M140.2,330.4l2.6-3l-2.2-7.9C140.5,319.5,139.8,323.9,140.2,330.4z"/>
			</g>
			<g>
				<path class="st8" d="M133.5,291c2.5-0.9,11.7-3.1,13.9,8.7c2.2,11.8-4.3,20.2-10.3,18c-6-2.2-9.7-10.4-10-16.6
					C126.7,294.9,130.3,292.1,133.5,291z"/>
			</g>
			<g>
				<path class="st15" d="M147.4,299.7c0,0,0.5-10.1-9.6-10.4c-10-0.4-12.7,7.9-11.9,13.9c0.8,6,5,9.2,5,9.2s-0.4-4.9,1.6-6.1
					c1.9-1.3,9.7-3.8,13.2-9.7C145.6,296.6,147.2,298.5,147.4,299.7z"/>
			</g>
			<g>
				<path class="st15" d="M134.9,298.7c-1.3,4-5.2,6.3-8.8,5.2c-3.5-1.2-5.3-5.4-4-9.4c1.3-4,5.2-6.3,8.8-5.2
					C134.4,290.4,136.2,294.6,134.9,298.7z"/>
			</g>
			<g>
				<path class="st8" d="M140.8,316.1c0,0-0.8,7.7-0.7,10.3c0,0-4.4,4.4-9.4-5.1c0,0,2.1-3.9,0.5-9.3
					C129.7,306.6,140.8,316.1,140.8,316.1z"/>
			</g>
			<g>
				<polygon class="st8" points="140.2,326.4 140.2,330.4 135.1,326.6 				"/>
			</g>
			<g>
				<polygon class="st14" points="140.2,330.4 138.1,327.8 131,320.7 128.7,322.9 				"/>
			</g>
			<g>
				<path class="st11" d="M130,321.4c0,0,5.9,9,6.2,13c0.3,4-2.2,33.6-4.2,43.1c-2,9.5-16.4-1.1-16.4-1.1s9.7-15.7,6-28.2
					c-3.7-12.5-5.1-17.5-5.1-17.5s1.3-7,5.8-8C126.3,321.9,130,321.4,130,321.4z"/>
			</g>
			<g>
				<path class="st11" d="M153.1,334.8c0,0,1.1,3.8-3.1,12.1c0,0,0.1,10.7,0.2,14c0.1,3.3,0.9,16,0.9,16l-4.1,2.4
					c-0.8,0.5-1.9-0.2-1.7-1.1c1.2-9.6,5-46.1-3.2-55.9l3.3,1C145.3,323.3,151.1,328.1,153.1,334.8z"/>
			</g>
			<g>
				<path class="st8" d="M133.5,304.1c-0.4-0.9-1.6-1.2-2.3-0.7c-0.7,0.5-1.1,2.1,0,4.2C132.3,309.7,136.2,311.1,133.5,304.1z"/>
			</g>
			<g>
				<polygon class="st16" points="142.7,327.4 146,328.3 140.5,319.5 				"/>
			</g>
			<g>
				<polygon class="st16" points="138.1,327.8 135.1,331.7 129.1,321.5 131,320.7 				"/>
			</g>
			<g>
				<path class="st17" d="M140.7,317.8l-0.1,1.6c0,0-3.5,0.7-8.1-4.9C132.5,314.4,135.7,318.4,140.7,317.8z"/>
			</g>
			<g>
				<g>
					<g>
						<path class="st8" d="M158.6,365.2c0,0,2.1,1.3,3.2,0.6c1-0.6,2.8-0.7,3.3-0.7c0.7,0,2.9-1,2.9-0.1c0.1,0.9-3.5,1.7-4.2,2
							c-0.7,0.3,2.4,1.9,2.8,2.6c0.4,0.7-2.5,5.8-4.5,4.5c-2-1.3-3.3-4-3.7-4.2c-0.4-0.2-1.5-0.9-1.5-0.9L158.6,365.2z"/>
					</g>
				</g>
			</g>
			<g>
				<path class="st8" d="M119.7,324.1c0,0,2.8-0.7,5.3,1.9c2.5,2.6,3.7,7,4.3,8.4c0.6,1.4,8.8,14.4,9.3,14.7
					c0.5,0.3,8.8,7,12.5,10.6c3.8,3.6,11.1,7.6,11.1,7.6l-2.8,3.9c0,0-22.2-11.9-25.1-16.2c-2.8-4.3-14.1-16.4-14.1-16.4
					S113.6,328.5,119.7,324.1z"/>
			</g>
			<g>
				<g>
					<g>
						<path class="st8" d="M166.3,369.2c0,0,6,4.4,6.1,5c0.2,0.6-0.1,0.9-0.7,0.5c-0.6-0.4-5.9-4.1-5.9-4.1s6.2,6.4,6.4,6.9
							c0.1,0.3-0.3,0.9-0.7,0.7c-0.3-0.2-6.8-6.2-6.8-6.2s5.8,6,5.8,6.4c0.1,0.4-0.5,0.9-1,0.5c-0.5-0.4-6.1-5.7-6.1-5.7
							s3.9,4.6,3.7,5c-0.1,0.3-0.5,0.8-1.4-0.4c-1-1.2-3.6-3.9-3.6-3.9L166.3,369.2z"/>
					</g>
				</g>
			</g>
			<path class="st18" d="M150.9,344.9c0,0,0.2,13.4-0.6,19.8L150,347L150.9,344.9z"/>
			<g>
				<path class="st11" d="M121.1,323.2c0,0,1.6,0.3,4.1,2.9c2.5,2.6,3.7,7,4.3,8.4c0.6,1.4,8.8,14.4,9.3,14.7c0.5,0.3,7.3,5,11,8.5
					c3.8,3.6,10.7,7.9,10.7,7.9l-3.6,5.3c0,0-19.6-10.9-22.7-15c-3.3-4.4-15.2-17.4-15.2-17.4S111.4,326.7,121.1,323.2z"/>
			</g>
			<g>
				<g>
					<path class="st19" d="M165.9,398.1c0,0-0.8-3-1.7-3.4c-1-0.4-0.7,0.6-0.7,0.6s-0.2-1.1-1.1-1c-0.9,0.1-0.6,1.3-0.6,1.3
						s-0.4-0.8-1.2-0.4c-0.8,0.4-0.3,1.4-0.3,1.4s-1.1-0.8-1.4,0.3c-0.5,1.9,0.9,3.6,0.9,3.6s0.4,0.4,1.2,0c0,0,0.9,1,1.9-0.1
						c0,0,1.5,0.4,1.7-0.9C164.5,399.6,166.3,399.8,165.9,398.1z"/>
				</g>
			</g>
			<path class="st18" d="M134.5,359l-6.7-10.8c0,0,5.7,6.8,6.3,7.5c0.6,0.7,0.6,0.8,0.6,0.8S134.6,358.7,134.5,359z"/>
		</g>
		<polygon class="st3" points="329,221.7 267.5,221.7 267.5,267.9 267.5,277.6 276.9,267.9 329,267.9 		"/>
		<polygon class="st3" points="47.7,225.6 109.2,225.6 109.2,271.8 109.2,281.5 99.8,271.8 47.7,271.8 		"/>
		<g>
			<g>
				<path class="st20" d="M297.5,260c-1.3-0.1-2.4-0.6-3.3-1.3c-1-0.9-1.6-2.1-1.6-3.3c-0.2-2.5-0.9-5-1.6-6.7
					c-3-2.4-4.6-6.1-4.3-9.9c0.5-6.4,6.1-11.1,12.4-10.7c6.4,0.5,11.1,6.1,10.7,12.4c-0.3,3.5-2,6.6-4.9,8.6
					c-0.9,2.3-1.4,4.5-1.5,6.4c0,2.5-2.5,4.6-5.4,4.6C297.8,260,297.7,260,297.5,260z M299.1,229c-5.8-0.4-11,4-11.4,9.8
					c-0.3,3.6,1.3,7,4.1,9.2l0.1,0.1l0,0.1c0.7,1.8,1.5,4.5,1.7,7.1l0,0c0,1,0.4,1.9,1.3,2.6c0.8,0.7,2,1.1,3.2,1.1
					c2.4,0,4.4-1.6,4.5-3.7v0l0,0c0.2-2,0.7-4.3,1.7-6.8l0.1-0.1l0.1-0.1c2.7-1.8,4.3-4.7,4.6-8C309.3,234.6,304.9,229.5,299.1,229z
					"/>
			</g>
			<g>
				<polygon class="st20" points="295.4,256.1 293.9,243.5 296.5,245.6 298.1,243.8 299.5,245.5 302,243.4 300.5,256.1 299.6,256 
					300.8,245.7 299.4,246.9 298.1,245.3 296.6,246.9 295.1,245.7 296.3,256 				"/>
			</g>
			<g>
				
					<rect x="293.9" y="258.9" transform="matrix(1 6.736657e-03 -6.736657e-03 1 1.7619 -2.0013)" class="st20" width="8.2" height="3.3"/>
			</g>
			<g>
				
					<rect x="292.5" y="255.5" transform="matrix(1 6.726771e-03 -6.726771e-03 1 1.7434 -1.9985)" class="st20" width="10.8" height="5.3"/>
			</g>
		</g>
		<g>
			<path class="st20" d="M86,242.3c-0.2-0.3-0.6-0.5-1-0.8c-0.4-0.3-1-0.6-1.5-0.8c-0.6-0.3-1.2-0.5-1.9-0.7
				c-0.7-0.2-1.4-0.3-2.2-0.4l0,7.9l0.7,0.2c1.4,0.3,2.6,0.7,3.7,1.1c1.1,0.4,2,0.9,2.8,1.5c0.8,0.6,1.4,1.3,1.8,2.2
				c0.4,0.9,0.6,1.9,0.6,3.1c0,1.3-0.2,2.5-0.7,3.5c-0.5,1-1.2,1.7-2,2.4c-0.9,0.6-1.8,1.1-3,1.4c-1.1,0.3-2.3,0.5-3.6,0.5l0,4l-2,0
				l0-4.1c-1.8-0.1-3.6-0.5-5.2-1.1c-1.7-0.6-3.2-1.4-4.5-2.5l2-3.7c0.3,0.3,0.7,0.6,1.2,1c0.5,0.4,1.2,0.7,1.9,1
				c0.7,0.3,1.5,0.6,2.3,0.9c0.9,0.3,1.7,0.4,2.7,0.5l0-7.9c-0.2-0.1-0.3-0.1-0.5-0.1c-0.2,0-0.3-0.1-0.5-0.1
				c-1.3-0.4-2.5-0.7-3.5-1.1c-1-0.4-1.8-0.9-2.5-1.4c-0.7-0.6-1.2-1.2-1.5-2c-0.3-0.8-0.5-1.7-0.5-2.7c0-1.2,0.2-2.4,0.7-3.3
				c0.4-1,1-1.8,1.8-2.5c0.8-0.7,1.7-1.2,2.8-1.6c1.1-0.4,2.2-0.6,3.5-0.7l0-3.9l2,0l0,3.9c1.7,0.1,3.2,0.4,4.6,1
				c1.4,0.6,2.6,1.2,3.7,2L86,242.3z M73.4,243.3c0,1.1,0.4,1.9,1.1,2.4c0.7,0.5,1.9,1,3.4,1.4l0-7.5c-1.6,0.1-2.7,0.4-3.4,1.1
				C73.8,241.3,73.4,242.2,73.4,243.3z M84.4,256c0-1.1-0.4-2-1.3-2.5c-0.9-0.6-2.1-1.1-3.7-1.6l0,7.6c1.6,0,2.9-0.3,3.8-0.9
				C84,258,84.4,257.1,84.4,256z"/>
		</g>
		<g>
			<path class="st8" d="M374.9,398.7c0,0-2.2,0.4-3.2,0.5c-1,0-5.8-2.1-7.4-1.9c-1.5,0.2-11.6,4.5-12,4.8c-0.5,0.3,0.2,1,0.2,1
				l23,0.3L374.9,398.7z"/>
			
				<rect x="344.4" y="402.9" transform="matrix(-1 -7.568177e-03 7.568177e-03 -1 723.9113 812.0958)" class="st21" width="38.3" height="3.5"/>
			
				<rect x="321.3" y="385.7" transform="matrix(-0.2925 -0.9563 0.9563 -0.2925 69.4423 826.3334)" class="st21" width="38.3" height="3.5"/>
			<g>
				<path class="st22" d="M414.2,477.1l1.5,3.2c0,0,6.2-2.3,6.2-2.4c0-0.1-1.7-4.4-1.7-4.4L414.2,477.1z"/>
			</g>
			<g>
				<path class="st23" d="M361,477l-1.7,5c0,0,6.8,1.5,7.8,1.4c0.1,0,1.3-5.7,1.3-5.7L361,477z"/>
			</g>
			<path class="st24" d="M367.8,482c0,0-4.8-1.3-4.9-1.5c-0.1-0.2-1.9-1.4-2.8-1.2c-0.9,0.2-1,1.2-1.9,1.4c-0.9,0.2-7.9,2.4-8.8,3
				c-1,0.6-5.6-1.1-6.5,0.1c-0.9,1.2-1.7,4.3,5.5,5.4c7.2,1.1,15,4.3,16.7,3.9C366.9,492.7,368.1,483.9,367.8,482z"/>
			<path class="st24" d="M422.4,477c0,0-4.4,1.9-4.7,1.8c-0.2-0.1-2.3,0.1-2.9,0.7c-0.6,0.7,0,1.5-0.6,2.2c-0.6,0.7-3.7,4.9-4.6,5.8
				c-0.8,0.8-4.9,1.5-6.2,2.9c-1,1,0.2,5.2,7.2,3.2c6.8-1.9,15.3-5.3,16.4-6.7C428.2,485.7,423.8,478.3,422.4,477z"/>
			<g>
				<path class="st25" d="M417.9,414.4c0,0-19.4,8.6-23.5,11.6c-4.1,3-13.1,8.4-13.4,9.7c-0.3,1.3-2.1,0,1.1,6.7
					c3.2,6.7,18.3,22.7,19.7,24.4c1.5,1.8,12,12.7,12,12.7l7.9-5.9c0,0-15.2-22.3-17.4-25.6c-2.2-3.3-3.2-3.8-1.9-5.2
					c1.3-1.4,6.5-1.4,33.2-12.5c2.7-1.1,10.1-3.7,11.1-7.2c1.8-6.5,0.3-14.7-6.9-18.3C432.5,401.1,417.9,414.4,417.9,414.4z"/>
			</g>
			<g>
				<path class="st8" d="M408.7,351.8c0.2,0.2,0.4,0.5,0.5,0.9c0.3,0.6,0.6,1.6,0.9,2.6c0.9,3.1,1.7,7,1.7,7s11.1-9.3,9.5-9.8
					c-1.6-0.6-2.7-3.3-2.7-3.3S407.5,350.8,408.7,351.8z"/>
			</g>
			<g>
				<path class="st25" d="M418.2,410.9c0,0-20.1,4.7-25,6.3c-5,1.6-13.5,4.4-15.8,5.7c-1.2,0.7-3.1,1.7-5.3,9
					c-2.5,8.2-8.3,31.4-9.6,35c-0.8,2.3-3.2,11.2-3.2,11.2l10.3,1.8c0,0,12.2-24.6,13.2-31.2c1.7-11,5.9-11.1,7.7-12.1
					c1.7-1,10.1,0.9,39.7-1.5c3-0.2,11-0.4,13.1-3.6c3.8-5.8,7.6-12.3,1.7-18.1C439.1,407.5,418.2,410.9,418.2,410.9z"/>
			</g>
			<g>
				<path class="st8" d="M404.7,328.6c0,0-3.5,6-2.7,7.6c0.8,1.6-3.6,5.6-2.9,6.4c0.7,0.8,2.2,1.9,2.2,2.1c0,0.2,1.3,8.1,3,8.2
					c1.7,0.2,13.4-0.4,14.3-4.1c1-3.6,3.8-11.6,4.5-13.1C423.8,334.3,417.1,322.9,404.7,328.6z"/>
			</g>
			<g>
				<path class="st26" d="M419.1,327.5c1,0.7,1.8,1.5,2.4,2.3c0.8,0.4,5.3,2.6,4.3,5c-1.3,3.3-6.4,12-6.8,12.9
					c-0.1,0.1-0.1-0.1,0-0.6c-0.3-3.1-4.1-6.5-4.1-6.5l-2-0.9c1.1-2,0.6-3.8,0.6-3.8c-2.3-2.5-9.9-5.1-9.9-5.1
					C404.7,319.8,414,323.7,419.1,327.5z"/>
			</g>
			<g>
				<path class="st8" d="M415.7,337.9c0.5-0.8,3.4-0.7,3,1.7c-0.4,2.4-3.9,4.4-4.7,3.3C413.2,341.9,415.1,338.8,415.7,337.9z"/>
			</g>
			<path class="st27" d="M421.3,352.5c0,0,14.1,8.2,17.3,22.5c3.2,14.3,8.9,39.5,9,42.5c0,0-19.1-9.2-29.4-6.6
				c0,0-6.5-23.4-9.9-28.9c-3.4-5.5,1.7-18.5,1.7-18.5S414.8,355.8,421.3,352.5z"/>
			<path class="st28" d="M472.7,358.9l-11.4,33.3c-0.1,0.3-0.1,0.5-0.2,0.8l-2.7,43.8l-47.5,1.1l-13.8,50.3
				c-0.4,1.5-0.2,3.2,0.8,4.5c0.6,0.9,1.5,1.6,2.7,1.8c3,0.4,63.9,0,63.9,0v-2.5c0-1.3-1-2.3-2.3-2.3h-57c-0.9,0-1.8-0.4-2.4-1.1
				c-0.3-0.4-0.6-1-0.5-1.6c0.3-1.6,12.4-42.6,12.4-42.6l45.9-0.8c2.1,0,3.8-1.7,3.9-3.7l2-47.1c0-0.3,0.1-0.6,0.1-0.9l9.3-31.8
				c0,0,1-2.2-0.8-2.4C473.3,357.3,472.9,358.4,472.7,358.9z"/>
			<path class="st29" d="M410.7,438.8c0,0,0-3.6,4.9-3.9c5.7-0.3,42.9-0.5,42.9-0.5l-0.2,3.9L410.7,438.8z"/>
			<path class="st29" d="M387.7,409.1v1.7h-80.8v-1.7c0-1.6,1.1-2.9,2.4-2.9h76.1C386.7,406.3,387.7,407.6,387.7,409.1z"/>
			<path class="st30" d="M335.9,493.5h-24.4v-3.9H332C334.2,489.6,335.9,491.4,335.9,493.5L335.9,493.5z"/>
			<rect x="313" y="410.8" class="st30" width="3.2" height="82.7"/>
			<rect x="319.5" y="410.8" class="st30" width="3.2" height="82.7"/>
			<path class="st17" d="M409.2,352.8c0.3,0.6,0.6,1.6,0.9,2.6c1.7-0.7,4.8-3.6,4.9-3.7C413.7,352.1,409.2,352.8,409.2,352.8z"/>
			<path class="st31" d="M353.4,410.8h-57.8v-1.7c0-1.6,1.4-2.9,3-2.9h45.7L353.4,410.8z"/>
			<g>
				<path class="st27" d="M415.1,363.6c0,0-3.4,4.8-5.4,8.4c-2.4,4.1-4.7,8.1-5.2,9c-1,1.8-4.7,2.8-6.4,3.5
					c-1.5,0.6-26.5,14-26.8,14c-0.3,0,2.7,5,2.7,5s34.7-10,36.3-11.4c1.6-1.4,6.2-7.9,8.1-10.6c1.8-2.5,4.6-6.7,6-8.5
					c1.6-2,5.1-8.9,0.7-12.3C419.6,356.3,416.5,361.6,415.1,363.6z"/>
			</g>
			<path class="st32" d="M424.6,372.8c0,0-4,10.9-6.4,14.6c-2.4,3.7-5.1,6.8-5.1,6.8l-1.3-3.8C411.8,390.4,422.2,376.1,424.6,372.8z
				"/>
		</g>
		<g>
			<path class="st12" d="M47.3,475.9c0,0-3,7.6-4.6,9c-1.6,1.3-5.3,3.7-4.4,4.9c0.9,1.2,7.5,1.3,9.1,0.6c1.6-0.7,1.8-3.2,3.9-4
				c2.1-0.8,0.5-5.1,0.3-6.7c-0.3-2-0.8-2.3-0.8-3.4C50.7,475.2,47.3,475.9,47.3,475.9z"/>
			<path class="st12" d="M75.7,473.9c0,0,0.7,3.1,1.1,3.9c0.3,0.8,2.8,5,3.2,5.5c0.5,0.5,7.1,3.4,6.3,4.4c-0.9,0.9-2,2-6.6,1
				c-4.6-1-6-4.6-9.6-4.9c-3.6-0.3-2.5-4.3-1.1-6c1.4-1.7,2.8-4.8,2.8-4.8L75.7,473.9z"/>
			<path class="st11" d="M93.1,429c-0.6,4.1-12.8,26.6-16.8,46.2c0,0.2-0.1,0.3-0.1,0.4c-2.3-0.3-4.3-0.9-5.6-1.4
				c0.1-2.9,2.8-26,4.2-30.4c1.5-4.5,5.8-14.1,5.7-17.2c-0.2-3.1-2.2-5.1-3.5-6.6c-0.8-0.9-5.6-7.9-9.5-13.8v0c-2.3-3.4-4.2-6.5-5-8
				c-0.2-0.4-0.3-0.7-0.3-0.8c0-1.1-17.3-31.1,13.5-26.1c0,0,0.8,5,1,6c0.1,0.6,2.7,6.7,4.9,12.6c1.2,3.2,2.3,6.3,2.8,8.3
				c0.6,2.4,1.7,6.1,2.8,9.7c0,0,0,0,0,0c1.5,5,3.1,9.8,3.6,10.8C91.5,420.3,93.7,424.9,93.1,429z"/>
			<path class="st11" d="M62.8,396.6c0,0-2.4,10.2-3.7,14.3c-1.3,4.1-3.9,13-4.1,15.4c-0.1,2.3-0.1,7.5-0.3,9.6
				c-0.2,2.1,0,10.5-0.5,14.7c-0.6,4.3-2.8,24.9-2.9,26.2c0,0,0,0.1,0,0.1c-2.1,0.3-3.8,0.3-5,0.2c0,0,0,0,0-0.1
				c-1.2-5.7-2.5-26.8-2.6-30.2c-0.1-3.4,0.9-11.1,0.5-13.5c-0.3-2.3-3.6-26.5-2.5-36.2c1-9.7,4.4-25.8,4.4-25.8
				S80.7,358.8,62.8,396.6z"/>
			<path class="st8" d="M78.3,380.4c-0.1-0.9-1-7-1.8-10.9c-0.8-3.9-1.4-7.5-1.9-9.1c0-0.1-0.1-0.3-0.1-0.5
				c-0.3-1.2-0.9-3.7-1.6-6.2c0-0.2-0.1-0.3-0.1-0.5v-0.9c-0.5-1.7,0.3-2.5,0.4-3.8c0-0.4,0-0.8-0.1-1.3c0,0,0,0,0-0.1
				c-0.5-2.2-0.9-4.2-0.9-5.3c0-3.6-1.7-20.8-1.7-20.8s5.5,2.6,6.3,6.4c0.8,3.8,1,12.3,1.1,14c0.1,1.7,2.8,14.8,3.1,17.8
				c0.3,3,0.7,5.5,1.3,7.5c0.6,2,0.1,12.2,0.3,13.7C82.8,382.1,78.4,381.3,78.3,380.4z"/>
			<path class="st33" d="M67.1,305.7c0,0,4.3-12.6-3.9-16.5c-8.2-3.9-15.2,1.7-16.5,4.8c-1.3,3.1-1,8.6,0.2,12.5
				c1.1,3.9,1,9.8-1.5,11.7c-2.4,2-4.6,6.3-6.6,9.9c-2,3.6,17.5-8.6,17.5-8.6L67.1,305.7z"/>
			<path class="st8" d="M59.8,291.4c0,0,8.5,2.5,7.3,14.4c-1.2,11.8-6.8,11.2-7.3,11.3c-0.5,0.1-7.1,0.5-9.2-13.8
				C48.5,288.9,59.8,291.4,59.8,291.4z"/>
			<path class="st12" d="M63.8,319c0,0,8.3,2.1,9.1,3.5c0.8,1.4,0.9,7.5,1.4,9.5c0.5,2,1.7,6.3,0.9,8c-0.8,1.7-1.7,3.4-1.4,4.6
				c0.3,1.2,1,4.6,0.3,7.2c-0.6,2.6-1,8-0.2,11.7c0.8,3.7,1.6,7,1.7,7.7c0.1,0.6-29.6,0-29.6,0s2.4-8.4,3.3-10.3
				c0.9-1.9-0.8-9.3-1.6-11.1c-0.8-1.7-4.2-8.8-4.2-9.6c0,0-3.6-12.3-3.3-12.7c0.3-0.4,0.1-2.2,3.5-4.4c2.6-1.6,10.4-3.6,12.6-3.9
				C58.6,319,63.8,319,63.8,319z"/>
			<path class="st8" d="M63.9,314.9c0,0-0.4,4.2,0.4,6.7c0.8,2.4-8.5,2.3-9.3,0.5c-0.8-1.9,0.4-4.4-0.7-8.3
				C53.3,309.7,63.9,314.9,63.9,314.9z"/>
			<path class="st12" d="M72.3,329.4c0,0,2.4,3,3.3,6.4c0.8,3,0.1,6-1.8,8.4c0,0-7.9-0.4-10.7-0.3c-2.8,0.1-11.6,1-16.5,3.7
				c0,0-3.7-6.7-3.6-7.6c0.1-0.9,2.4-7.2,5.9-7.9c6.6-1.3,11,7,13.1,6.8C64.2,338.5,65.6,330.3,72.3,329.4z"/>
			<path class="st33" d="M57.6,296.7c0,0,4.6,7.4,9.5,9.1c0,0,2.7-12.4-8.3-15c-11-2.6-9.3,12.5-8.5,16.5
				C50.3,307.3,52.6,301.4,57.6,296.7z"/>
			<path class="st17" d="M55.6,315.4c0,0,3.4,3.5,7.7,0.4c0,0-0.4,2.2-3.5,2.5C56.7,318.6,55.6,315.4,55.6,315.4z"/>
			<path class="st34" d="M67.4,406.2L67.4,406.2L67.4,406.2c-2.3-3.4-4.2-6.5-5-8c0,0,0,0,0,0c0,0,3-7.7,3.4-10.7
				C66.1,384.5,67.4,406.2,67.4,406.2z"/>
			<path class="st8" d="M53.5,320c0,0,3.8,6.6,8.1,7.7c4.2,1.1,4.1-5.4,2.9-8.5c0,0-0.1-0.3-4.3-0.4C55.8,318.7,53.5,320,53.5,320z"
				/>
			<g>
				<path class="st35" d="M44.4,368.5c-2.2-12.3,6-23.9,18.3-26.1c12.3-2.2,23.9,6,26.1,18.3c2.2,12.3-6,23.9-18.3,26.1
					C58.2,388.9,46.6,380.7,44.4,368.5z"/>
				<path class="st35" d="M71.8,386.5L64,342.2c11.8-1.4,22.7,6.7,24.8,18.5C90.9,372.5,83.3,383.8,71.8,386.5z"/>
				<path class="st35" d="M44.4,368.5c-1.8-10.4,3.8-20.4,13-24.5l7.6,43.1C54.9,386.3,46.2,378.9,44.4,368.5z"/>
				<path class="st36" d="M49.5,364.1c0.2-9.5,8.1-16.9,17.6-16.7c9.5,0.2,16.9,8.1,16.7,17.6c-0.2,9.5-8.1,16.9-17.6,16.7
					C56.7,381.5,49.2,373.6,49.5,364.1z"/>
				<g>
					<path class="st37" d="M72.9,362.3c-0.1-0.2-0.3-0.4-0.5-0.7c-0.2-0.3-0.5-0.5-0.8-0.8c-0.3-0.3-0.7-0.5-1.1-0.8
						c-0.4-0.3-0.8-0.5-1.3-0.6l-1.5,5l0.4,0.2c0.8,0.5,1.5,0.9,2.1,1.4c0.6,0.5,1.1,1,1.5,1.5c0.4,0.5,0.6,1.1,0.7,1.7
						c0.1,0.6,0,1.3-0.2,2.1c-0.3,0.8-0.6,1.5-1.1,2c-0.5,0.5-1.1,0.9-1.7,1.1c-0.7,0.2-1.4,0.3-2.1,0.3c-0.8,0-1.6-0.1-2.4-0.4
						l-0.8,2.5l-1.2-0.4l0.8-2.6c-1.1-0.4-2.2-1-3.1-1.7c-0.9-0.7-1.7-1.5-2.4-2.4l1.9-1.9c0.1,0.2,0.3,0.5,0.6,0.9
						c0.3,0.3,0.6,0.7,1,1c0.4,0.3,0.8,0.7,1.3,1c0.5,0.3,1,0.6,1.6,0.8l1.5-5c-0.1-0.1-0.2-0.1-0.3-0.2c-0.1-0.1-0.2-0.1-0.3-0.2
						c-0.8-0.5-1.4-0.9-2-1.4c-0.6-0.4-1-0.9-1.3-1.4c-0.3-0.5-0.5-1-0.6-1.5c-0.1-0.5,0-1.1,0.2-1.8c0.2-0.8,0.6-1.4,1-2
						c0.5-0.5,1-0.9,1.6-1.2c0.6-0.3,1.3-0.5,2-0.5c0.7,0,1.5,0,2.3,0.2l0.7-2.4l1.2,0.4l-0.7,2.4c1,0.4,1.9,0.9,2.7,1.5
						c0.8,0.6,1.4,1.3,1.9,2L72.9,362.3z M64.9,360.6c-0.2,0.7-0.1,1.2,0.3,1.7c0.4,0.5,1,1,1.9,1.5l1.4-4.7c-1-0.2-1.8-0.2-2.4,0
						C65.5,359.4,65.1,359.9,64.9,360.6z M69.4,370.6c0.2-0.7,0.1-1.3-0.4-1.8c-0.5-0.5-1.1-1.1-2.1-1.7l-1.4,4.7
						c1,0.3,1.9,0.3,2.5,0.1C68.7,371.8,69.2,371.3,69.4,370.6z"/>
				</g>
				<path class="st38" d="M75.4,385.4c9.5-4,15.3-14.1,13.5-24.7c-1.9-10.6-10.8-18.1-21-18.6L75.4,385.4z"/>
				<path class="st38" d="M65,387.1L57.4,344c1.7-0.7,3.4-1.3,5.3-1.6c0.4-0.1,0.9-0.1,1.3-0.2l7.8,44.3c-0.4,0.1-0.9,0.2-1.3,0.3
					C68.6,387.1,66.8,387.2,65,387.1z"/>
			</g>
			<path class="st8" d="M42.5,324.2c0,0-3.1,2.4-5.4,6.7c-2.3,4.4-7.7,12-8.8,14.5c-1,2.5-4.5,6.8-5,10.1c-0.5,3.2,0.8,4.4,2.9,5.8
				c2.1,1.4,16.9,5.9,16.9,5.9s2.6-4.2,1.3-4.5c-2.4-0.5-8.2-4.1-9.2-4.7c-1.1-0.6-3.7-2.9-2.4-3.9c1.3-1,10.2-14,12-16.5
				c1.8-2.5,5.1-8.7,3.9-11.8C47.5,322.6,44.7,323,42.5,324.2z"/>
			<path class="st8" d="M41.4,361.9c0,0,0.7,0.4,1.3,0.3c1.1-0.2,2.2-1.5,3.5-0.7c1.4,0.8-0.3,5.6-1.1,6.2c-0.8,0.7-3,0.1-5.5-2
				C37,363.7,41.4,361.9,41.4,361.9z"/>
			<path class="st8" d="M45.7,361.3c0,0,2.4,0.4,5,1.1c2.3,0.6,4.8,1.7,4.9,2.2c0.1,0.5-2.4-0.3-4.7-0.8c-2.1-0.4-1.8,0-1.8,0
				s-0.1-0.1,2.1,0.8c2.4,1,4.7,2.2,4.7,2.7c0,0.3-0.2,0.4-1.1,0.2c0.5,0.2,0.5,0.4,0.4,0.6c-0.4,1.1-4.2,0.2-5.6-0.2
				c1.1,0.3,1.9,0.6,1.2,1.1c-0.8,0.6-6-0.9-8-1.3C40.8,367.3,45.7,361.3,45.7,361.3z"/>
			<g>
				<path class="st8" d="M85.2,356.1c0,0,3.4-0.8,4.5,0.9c1.1,1.7,1.1,3.8,0.9,4.8c-0.3,1-1.2,3.5-2.3,3
					C84.5,363,85.2,356.1,85.2,356.1z"/>
			</g>
			<g>
				<path class="st8" d="M88.6,356.1c0,0-0.5-2.3-1.4-1.9c-0.9,0.4-0.1,1.9-0.1,1.9L88.6,356.1z"/>
			</g>
			<g>
				<path class="st39" d="M43.9,367.9c-0.6,2.6-1,2.6-1.2,2.6c0,0,0,0,0,0c-0.3,0-0.4-0.4-0.5-0.7c-0.2-0.8-0.3-1.7-0.3-2.6
					c0-2.3,0.5-4.7,0.6-5.1c0,0,0-0.1,0-0.1l0.1,0l0,0l0.1,0c0,0-0.6,2.8-0.6,5.3c0,0.8,0.1,1.7,0.3,2.4c0.1,0.5,0.2,0.5,0.2,0.5
					c0,0,0.1,0,0.3-0.5c0.1-0.3,0.3-0.9,0.6-1.9C43.7,367.9,43.8,367.9,43.9,367.9z"/>
			</g>
		</g>
		<g>
			<path class="st24" d="M265.6,481.3c0,0,1.6,2.9,2.6,4c1,1.1,4.9,3.2,4.9,6.6c0,3.7-6.5,2.7-9.1,2.5c-2.6-0.1-2.8-2.1-3.8-4.2
				c-1.1-2.1-2.2-1.7-2.4-3.4c-0.2-1.7,1-5.6,1-5.6H265.6z"/>
			<g>
				<path class="st24" d="M226.6,481c0,0-3.2,3.5-6.4,4.3c-3.2,0.7-5.5,1.7-5.5,3.7c0,2,9.2,3.4,12.9,1.3c5.5-3.1,6-2.1,6.7-3.7
					c0.6-1.5-0.7-5.6-0.7-6.1C233.6,480,226.6,481,226.6,481z"/>
			</g>
			<g>
				<path class="st40" d="M226.9,479.3c0,0-0.4,1.7-0.4,1.7c0.1,0,7.2,0.9,7-0.4c-0.2-1.1-0.4-2.2-0.4-2.2L226.9,479.3z"/>
			</g>
			<g>
				<path class="st40" d="M258.9,480.2c0,0-0.3,1.6-0.2,1.6c0.1,0,7.3,1.3,7.2,0c0-1-0.7-2.3-0.7-2.3L258.9,480.2z"/>
			</g>
			<g>
				<path class="st25" d="M233.4,380.2c0,0-2.6,25.3-4,34c-1.6,10.1-2.1,18.5-2.6,23.8c-0.6,6.6-0.7,39.1-1.1,41
					c-0.4,1.9,8.6,0.5,8.6,0.5s4.4-42.4,6.1-49.5c1.5-6.5,7.3-34.7,8.7-33c1.4,1.8,3.2,32.9,4.2,38.1c1,5.2,4.2,45.6,4.2,45.6
					s7.2,1.4,9.1-0.2c0,0,0.9-34.9,0.2-44.5c-0.3-3.7,4.3-44.3-1.5-60.6C262.4,366.9,233.4,380.2,233.4,380.2z"/>
			</g>
			<g>
				<path class="st41" d="M256.9,374.6c0,0-1.7-2.6-3.6-3c-1.8-0.3,25.4-13.5,25.3-18.2c-0.1-3.8-9.5-10.9-9.5-10.9s0,0,0,0
					c0,0,0-0.1,0-0.1c0,0,0,0,0,0c-0.2,0.8-3.3,12-3.4,17.1c-0.1,5.2,0.3,23.2,0.3,23.2l-7,1.9l-22.3,0.2l-5.1-2.1
					c0,0,0.6-5.8,0.8-9.8c0.1-2.6,0.6-7.2,0.5-11.7c0,0,0.1-4.7-0.4-6.8c0-9-0.6-17.9-0.6-17.9c-0.3-4.1-0.5-7.9-0.6-11.5
					c1-0.5,2.2-1.1,3.1-1.6c2.9-1.4,7-3.3,9.6-4.5c1.5-0.7,3-1.2,3-1.2s10.5-1,11.3-1c0.3,0,1.6,0.5,3.3,1.1
					c3.7,1.4,10.9,4.3,12,5.1c1.7,1.2,12.6,30.2,12.8,32.1C286.7,358.8,256.9,374.6,256.9,374.6z"/>
			</g>
			<path class="st42" d="M232.3,380.8c0,0,15.3,1.3,28.7,0v4.4c0,0-20,1.9-29.4-0.8L232.3,380.8z"/>
			<g>
				<path class="st27" d="M231,325c0.1,3.6,0.3,7.5,0.6,11.7c0,0,0.3,10.1,0.9,19.8c0.2,1.4,0.3,2.8,0.2,4.2
					c-0.1,1.9-0.3,3.9-0.6,6.1c0,0,0,0.1,0,0.1c-0.1,0.5-0.1,1-0.2,1.5c0,0,0,0,0,0c-1.3,10.7-3.5,23-4.7,26.7
					c-0.2,0.8,0.6,1.5,1.2,2l4.2,2.6c0,0,1.7-15.9,2.3-21.3c0.6-5.2,2.3-12.2,3.1-19v0c1-8.6,2.3-17.1,3-22.1
					c1.9-13.1,4.4-18.9,4.4-18.9C244.1,318.8,231,325,231,325z"/>
			</g>
			<g>
				<path class="st27" d="M275.5,352.1c1.8,4-16.7,11.1-16.3,12.1c1,2.4,5.1,7.2,5.1,7.2s24.4-12,24.1-14.8
					c-0.2-2-11.6-32-13.3-33.2c-1-0.7-8.1-3.2-11.6-4.6c-0.6-0.3-2.8-1.1-3.4-1.3c-0.7,0.8-5.9,6.5-7.7,27.9
					c-0.3,3.6,0.7,11.2,1.3,17.5c0.7,6.6,1.4,11.8,2,17.4c1.1,11,1.9,19.7,1.9,19.7l10.9-4.9c1.8-0.9,4.8-3.2,4.2-5
					c-2.5-7.1-6.3-20.4-6.3-26.6c0,0,1.8-17.1,2.7-20.4C269.1,342.9,273.4,347.7,275.5,352.1z"/>
			</g>
			<g>
				<path class="st43" d="M257.4,318c0,0,0.1-3.6,1.5-10.9c0.4-1.9-11.3,5.1-11.3,5.1s0,0.7,0.1,1.6c0,0.5,0,1,0,1.6
					c0,0.2,0,0.4,0,0.6c0,0.5,0,1-0.1,1.4c0,0.4-0.3,1.2-0.4,1.4C246.7,320,253.4,320.8,257.4,318z"/>
			</g>
			<path class="st25" d="M250.1,321.8l-1.9,2.6c0,0,1.1,1.5,3.1,0.4L250.1,321.8z"/>
			<path class="st25" d="M248.7,324.5c0,0-7.3,28.3-5.8,50.2l2.5,4.4l2.3-4.6c0,0,0.6-39.3,2.6-50.1L248.7,324.5z"/>
			<path class="st43" d="M248,319.3l2.1,2.4c0,0,3.3-0.6,4.3-2.4C255.4,317.6,248,319.3,248,319.3z"/>
			<path class="st44" d="M247.5,317.2c0,0,0.2,1.8,2.5,4.5l-2.5,3.4l-1.4-7L247.5,317.2z"/>
			<path class="st44" d="M257.6,315.2c0,0-4.1,5.3-7.5,6.6l1.6,3.9l7.1-8.6L257.6,315.2z"/>
			<g>
				<path class="st8" d="M188.3,354.2c0,0-7.7,0.9-8.1,1.4c-0.4,0.5-0.3,0.9,0.4,0.9c0.7-0.1,7.5-0.7,7.5-0.7s-8.8,2.6-9.3,2.9
					c-0.3,0.2-0.1,1,0.3,1c0.4,0,9.3-2.1,9.3-2.1s-8.2,2.4-8.5,2.8c-0.3,0.3,0.1,1.1,0.7,0.9c0.6-0.1,8.4-2,8.4-2s-5.8,2.2-5.9,2.6
					c0,0.3,0.1,1,1.6,0.4c1.5-0.6,5.2-1.7,5.2-1.7L188.3,354.2z"/>
			</g>
			<g>
				<g>
					<path class="st8" d="M197.4,354.6c0,0-2.6,0.1-3.3-1.2c-0.7-1.1-2.3-2.1-2.8-2.4c-0.7-0.4-2.3-2.4-2.8-1.6
						c-0.5,0.8,2.5,3.4,3.1,4.1c0.5,0.7-3.2,0.4-3.8,0.9c-0.7,0.5-0.3,6.6,2.2,6.5c2.5-0.1,5-1.9,5.5-1.9c0.5,0.1,1.9,0,1.9,0
						L197.4,354.6z"/>
				</g>
			</g>
			<g>
				<path class="st27" d="M196.4,360.6c0,0,18.9-2.6,23-3.7c1.9-0.5,4.5-3.1,6.9-6.3c0.8-1,1.6-2.1,2.3-3.2c0,0,0,0,0,0
					c3-4.3,5.3-8.4,5.3-8.4s8.8-10.3,1.7-14.9c0,0-3-0.1-4.7,0.8c-1.7,0.9-5.3,8.5-6,9.9c-0.6,1.3-7.3,13.8-7.7,14.1
					c-0.4,0.3-7.1,1.7-10.1,2.3c-4.3,0.9-12.4,2.6-12.4,2.6L196.4,360.6z"/>
			</g>
			
				<rect x="243.6" y="381.1" transform="matrix(-1 -1.224647e-16 1.224647e-16 -1 494.2913 767.5447)" class="st45" width="7.2" height="5.4"/>
			<path class="st46" d="M255.5,374.9c0,0,0.9,0,1.3-0.2c0,0,0.7-0.4,1.2-0.7c0.2-0.1,0.3-0.2,0.4-0.2c0.4-0.2,1.3-0.4,2.1-1
				c0.8-0.6,3.6-3.2,3.6-3.2l-1.8-2.7l-0.8-2.7c0,0-6.4,0.6-7.2,1.1c-0.1,0-0.2,0.1-0.2,0.2c-0.7,0.5-1,1.2-1.3,1.5
				c-0.1,0.1-1.2,1.3-1.2,1.8c0.1,0.7,0.4,1.1,0.8,1.3c0,0,0.2,1.3,0.9,1.9c0,0,0.2,1.2,1.2,1.7
				C254.5,373.6,254.8,374.8,255.5,374.9z"/>
			<path class="st27" d="M264.3,371.3c0,0-3.5-2.9-5.5-7.2l10.9-6l4,8.2L264.3,371.3z"/>
			<g>
				<path class="st8" d="M241.4,294.3c0,0-2.6,4.8-1.3,5.5c1.1,0.6-1.2,5.3-1.5,6c-0.3,0.8,1.9,1.3,2.4,1.8c0.5,0.5,1.9,6.5,3.7,6.7
					c1.8,0.2,10-2.7,12.2-5c2.2-2.3,4-12.8,2.6-17.2C257.9,287.9,245.9,286,241.4,294.3z"/>
			</g>
			<g>
				<path class="st47" d="M240.9,295.4c0,0-2.6-5.1,2.1-8.9c4.8-3.8,13.5,2.9,14.5,3.1c1,0.3,6.6,0.6,3.8,10.5
					c-2.4,8.5-2.8,8.8-2.8,8.8s-1.8-4.9-2.8-5.6c-1.6-1.2-5.1-0.9-5.1-0.9s1.7-4.5-0.9-5.1C247,296.6,243.5,294.4,240.9,295.4z"/>
			</g>
			<g>
				<path class="st8" d="M253.3,299.8c0.2-0.6,1-3.2,3.2-1.7c2.3,1.5-1.4,6.5-1.8,6.6C254.4,304.7,251.4,304.9,253.3,299.8z"/>
			</g>
			<path class="st17" d="M247.6,315.4c0,0.2,0,0.4,0,0.6c6.7-2.2,8-5.6,8-5.6c-2.1,1.5-8,3.4-8,3.4
				C247.6,314.3,247.6,314.9,247.6,315.4z"/>
		</g>
	</g>
</g>
</svg>
